/* XPM */
static char *_0252d627e18471af8f761dad17f7106yCHcpqTDqg6b6a3x[] = {
/* columns rows colors chars-per-pixel */
"65 65 256 2 ",
"   c #0B0201",
".  c #060706",
"X  c #140301",
"o  c #1C0100",
"O  c #170C09",
"+  c #05140A",
"@  c #19120A",
"#  c #0A0B14",
"$  c #130E14",
"%  c #1A0C17",
"&  c #151115",
"*  c #1A1415",
"=  c #15131A",
"-  c #1C141B",
";  c #1D191D",
":  c #1A1B16",
">  c #0D1317",
",  c #240301",
"<  c #2B0301",
"1  c #280905",
"2  c #330101",
"3  c #330C01",
"4  c #3A0706",
"5  c #281608",
"6  c #371606",
"7  c #260715",
"8  c #390914",
"9  c #231B1C",
"0  c #2C1D1D",
"q  c #251717",
"w  c #351A17",
"e  c #2B211B",
"r  c #36261A",
"t  c #3B2A0F",
"y  c #1C1922",
"u  c #1D0F22",
"i  c #231523",
"p  c #231C23",
"a  c #2A1C24",
"s  c #271C2A",
"d  c #301D28",
"f  c #262123",
"g  c #2C2324",
"h  c #2C242B",
"j  c #2B272B",
"k  c #322423",
"l  c #32252C",
"z  c #332A2D",
"x  c #3C2C2A",
"c  c #3A2825",
"v  c #3C312B",
"b  c #342B33",
"n  c #392C34",
"m  c #362A37",
"M  c #3C3235",
"N  c #3C333B",
"B  c #3A3638",
"V  c #2D2B33",
"C  c #142317",
"Z  c #460704",
"A  c #580704",
"S  c #481507",
"D  c #571404",
"F  c #4E1415",
"G  c #670A01",
"H  c #760C01",
"J  c #691504",
"K  c #771703",
"L  c #6E1913",
"P  c #4A2719",
"I  c #552818",
"U  c #4B3017",
"Y  c #7A2505",
"T  c #712B16",
"R  c #472727",
"E  c #46352A",
"W  c #563527",
"Q  c #42353C",
"!  c #473937",
"~  c #563B36",
"^  c #4C2C2E",
"/  c #6F312E",
"(  c #56192B",
")  c #58453A",
"_  c #4F4536",
"`  c #664836",
"'  c #714B31",
"]  c #79411E",
"[  c #3B3743",
"{  c #3D2F40",
"}  c #453B42",
"|  c #483B45",
" . c #5C3B4C",
".. c #743B46",
"X. c #3F4148",
"o. c #4C4445",
"O. c #4D444B",
"+. c #474648",
"@. c #564948",
"#. c #5B534A",
"$. c #544A53",
"%. c #594C54",
"&. c #5B5457",
"*. c #4C4852",
"=. c #644C48",
"-. c #67564A",
";. c #665958",
":. c #73544C",
">. c #76665B",
",. c #756451",
"<. c #595462",
"1. c #675C64",
"2. c #735E62",
"3. c #696365",
"4. c #766868",
"5. c #776D74",
"6. c #7B7377",
"7. c #736D75",
"8. c #870800",
"9. c #881702",
"0. c #981B05",
"q. c #8B1811",
"w. c #A31B04",
"e. c #B91C01",
"r. c #AA140A",
"t. c #8A2601",
"y. c #982604",
"u. c #962815",
"i. c #913410",
"p. c #A92803",
"a. c #B72605",
"s. c #A93603",
"d. c #B83603",
"f. c #AE3017",
"g. c #983628",
"h. c #8F312B",
"j. c #AE342A",
"k. c #951F2D",
"l. c #C43706",
"z. c #C83613",
"x. c #CE2A1B",
"c. c #A74802",
"v. c #B94805",
"b. c #B0510F",
"n. c #BA6816",
"m. c #924931",
"M. c #AF4C2E",
"N. c #AA5E23",
"B. c #CD4F12",
"V. c #CD6B12",
"C. c #D2512A",
"Z. c #ED5329",
"A. c #D37033",
"S. c #EC6F33",
"D. c #E26D14",
"F. c #945148",
"G. c #AA5447",
"H. c #8C6C53",
"J. c #B46D4D",
"K. c #88756A",
"L. c #877977",
"P. c #8E7569",
"I. c #AC7571",
"U. c #CC6D4C",
"Y. c #EC7649",
"T. c #D37A6A",
"R. c #CB5F4C",
"E. c #813041",
"W. c #E7901A",
"Q. c #D38B32",
"!. c #ED9033",
"~. c #F4B131",
"^. c #D3991C",
"/. c #9A8168",
"(. c #97857A",
"). c #928873",
"_. c #A68C76",
"`. c #AE9071",
"'. c #BBA17E",
"]. c #BB8441",
"[. c #D18A4E",
"{. c #FC9A58",
"}. c #F5914B",
"|. c #FCA956",
" X c #FFB855",
".X c #FCB345",
"XX c #D09374",
"oX c #EC9371",
"OX c #CDA27C",
"+X c #FDB567",
"@X c #FAAD73",
"#X c #DCB35B",
"$X c #FED051",
"%X c #FFEA5D",
"&X c #FDCB67",
"*X c #FFD679",
"=X c #FECF71",
"-X c #FFE666",
";X c #FEEA74",
":X c #877C82",
">X c #957E86",
",X c #D17C81",
"<X c #8C8486",
"1X c #968888",
"2X c #9C9497",
"3X c #9A8E90",
"4X c #A28D85",
"5X c #A59589",
"6X c #A69998",
"7X c #B6978C",
"8X c #B7A698",
"9X c #B6A48E",
"0X c #A99DA4",
"qX c #ACA5A5",
"wX c #B7AAA8",
"eX c #BAB3B4",
"rX c #B9B1AD",
"tX c #C79988",
"yX c #EA9A8B",
"uX c #C7A989",
"iX c #C5AB97",
"pX c #CDB499",
"aX c #D7B797",
"sX c #D6B08D",
"dX c #F2B695",
"fX c #C9B6A8",
"gX c #D6BCA5",
"hX c #C7BAB7",
"jX c #C8B2AC",
"kX c #ECB9AC",
"lX c #FACD8F",
"zX c #FFE585",
"xX c #FFEC96",
"cX c #D9C3AA",
"vX c #D9C6B9",
"bX c #CFC5B9",
"nX c #E7C6AA",
"mX c #E8CCB7",
"MX c #EBD1BA",
"NX c #FAD0AE",
"BX c #FFE4BB",
"VX c #C7BDC2",
"CX c #CBC4C4",
"ZX c #D6C9C7",
"AX c #DAD6D5",
"SX c #DDD1C6",
"DX c #EAD8C9",
"FX c #F8DAC8",
"GX c #E4DBD9",
"HX c #F1D4CD",
"JX c #F7E6D5",
"KX c #F4ECEA",
"LX c #FFFDFC",
"PX c #F9F5F4",
"IX c #EEEAEA",
"UX c #EADFE3",
/* pixels */
"O & : e g z B _ +.+.&.&.@.o.&.;.1.%.1.;.&.%.<.*.{ | [ m s i 7 - u u y s s u u s u i i u u u - * - - - i ; ; ; y i # u u u % . y = ",
"$ : f 9 C B o.#.$.;.4.3.4.7.4.4.1.L.;.1.5.<.7.| V [ { { b d s i s s s y s V s p u i s u i s p 9 q % % - ; = = - % m # % % s ; # - ",
". : j B _ +.#.3.3.5.4.4.<X3X).:X4.;.5.5.6.:X7.m i s s V l l M m y s s y p a s s i s s i s p y - q - - - ; ; - y u u d i p   9 & % ",
"$ @ f B +.X.&.3.4.<X2X6X6X3X<X2XM _ L.L.L.>X<.p y = s h s h } } { s s [ } N l d h m s s y s p y u y - y y y - - % s % 7 a ;.z 9 - ",
"* 9 z +.&.;.3.3.6.<X2XrXrXqX<X1.v (.L.L.1X6.o.p s - f f y f b b } | &.;.@.| ! Q Q m m s s f f y i u y = y y y y i i d 7 5.1XK.1.b ",
"& e z B &.).<X<XwXqXeXCXCXAXeX5.5XbXrX1XL.6.! h g f h h p 9 f p s } ;.@.Q _ O.x Q Q m s y f y ; - - = = = y - = q q w L.4XqX6XL.n ",
"& * * e +.:XqXeXeXCXGXAXCXZXZXCXKXbXZX6X4.1X1.m +.O.+.b z V j j m s 0 ! ;.L.;.q z l h y y ; = : - - = = > y = = i % d 4.jXjX4Xk n ",
"@ + j &.:X2XrXCXAXGXAXIXKXAXAXKXKXGXeXwX3XrX0X7.5.6.1.+.B N m [ Q a ! 5.4X6X(.-.g h g p f ; : & * * - = = y y = % w 1 ~ VXiXr x %.",
"B X.B 3.2XqXCXGXIXIXIXLXPXLXLXPXLXAXrXjX0X0XwX2X2X0X6.O.*.| b m a M e E 5XrX8X5Xv * q h p ; f : e 9 - $ - > = 9 q e w K.vXK.q R | ",
"_ 3.6.&.:XqXGXAXIXIXLXPXIXLXIXLXKXGXVXVXhXeXwX>X:X7.1.1.1.| s N l 7 0 k E 5XSX;.$ e 9 p : ; > O O q 9 . = # V * k 0 r (.jX~ q Q | ",
"3.<X<XeXAXVXPXPXPXLXPXPXLXLXPXLXLXUXVXVXVXjX>X| Q | | O.%.| l s l q k x 5 3.bX).O g * a f f O &.bXJXJX2X- h # g 0 e E _.4XR R Q $.",
"3.<XqXeXAXAX6.AXLXPXLXLXPXLXAXUXPXKXUXAX0X2.} d x c ^ | | n m n m l 0 g r E 3X8Xx 1 * a f e @ qXFXKXGXIX:X  p e q 5 -.5X1X! =.O.%.",
"#.#.<X2XrXLX2XV GXLXPXLXIX3.&.LXPXKXGXhX1X%.x R 0 R R x ! ;.2.2.O.l l 0 r 0 ).1X;.O k q q p : fXcXDXvXJXL.O - $ e @ >.5X4.^ O.%.%.",
"X.6.6.7.VXIXIX2X3.LXLXLXeX> qXLXLXPXGXbXwX1X-.) P.VXJXwXK.4.2.4.%.m n 0 k 5 >.5XK.O 0 q g 0 q 8X/.H.cX-.;.$ g g 5 _ 5X6X-.| | | } ",
"#.X.).<XAXPXPXPXLXPXIXAX+.. LXLXPXPXKXhX5XL.K._.JXJXHXHXvX_.) ~ Q V l a k @ E 6X4X! q q 0 * $ 4.sXuX8X4X5.q e e E 5XSX9X=.&.*.} N ",
"V j 7.rXCXIXLXLXPXLXLXC &.AXIXLXPXDXhX(.;.:.P.vXHXmXpXiXiXK.~ ! } m h m k e e (.SXeX! q 0 r 5 ~ P.gXcX/.E v B _ ;.bXfX<XQ | | | Q ",
"+ f B &.<XCXUXIXLXLXAXqXPXLXLXPXJXGXCXK.L.4._.gX`./.'.' ` ,.0 Q m B N b j e k v 6XSXc w x x ) E `.uXcX,.U v ~ #.K.wXK.M ! Q b n N ",
"C j f f V #.3.7.wXKXLXLXPXLXKXLXIXDXCX3XL.>XK.mX' U aX' ` ).x | N M b z j f e e e rX>.  ~ ) ` -.P.nXpXU 5 t t ! 4XrX;.l Q d z z l ",
"V f j ; ; f j V 5.IXLXKXVXKXUXGXUXbX6X2X3XqX4.tXuXpX`./._.` e f M V j f e f 9 q @ -.wX>.-.>.8XiX9XaX9XH.P.-.) 4.hX4.k v Q l n % n ",
"C : ; f f C j j B <X2X1.&.6XeX2XbXCXqX0X0X4.@.~ /.`.BXuX_ @ : g p i ; ; y f g z z B 3XvXDXDX8XiXuXMXmXgXcXmXDXDX(.g Q o.l | n b *.",
"& $ $ & = : ; f p j z * p _ L.qXqXVX0X7.:X| ! t _ ' OX' ` 5 : : & @ & * - f m [ 3.;.@.>._.vXiXgXuXFXMXuX8XfX4X;.x x | } %.4.| $.1.",
"; * $ $ = & * : g : : z g j $.1X0XeX<X1.1.%.R P ` sX/.,.,.O @ C * : * & = y V m ;.o.@.=._ P.cXpXsXJXmXgXgX_.r @ k Q O.7.:X1.| m | ",
"# & $ & = * & $ * * * * = * 9 Q 7.VXqX<X2.@.E E U `.OX/.5 5 t + @ : : * = u s { *.%.#.-.>./.fXaXcXJXBXgXiX>.O c M @.7.3X1.V s h n ",
"$ = & $ $ & * $ $ - q # q * 9 l *.2X4.3.4.4.8XiX`.H.aX/.`.9XpX).. O @ * y s V [  .2.4.4.6._.pXvXaX'.'.gXgX4XR ! o.7.<X&.{ m i l m ",
": = > $ $ & & $ * * * * $ $ q a [ %.%.$.>.9XSX9XaXaXOXaXaXuXcXJX8Xe O & ; p N *.1.>X7.L.K.L.mX`.H.`.H.H.8X6XE ! ;.1.N b b h m q i ",
"& & $ $ % = * & = * - ; q * * 9 m $.%.#.).fX9XaXlXaXOX'.`.'.pX/.DX>.  & f $ m | 2X1.>X:X~ P.fX/./.cX/.H._.8Xv j z N b m m b b s s ",
"= $ $ $ = = = = * * * 9 9 - - q k o.=.@.pX'.H.uXsXnXlX'.`.OXOX5 >.8Xe O * - s O.7.*.4.L.2.L.7X(.P.aX`.>.4XK.e j O.+.} h q a s l l ",
"# $ & $ $ * % & - - = - - 9 g l q k ! -.cX-.H.OXsXlXOXsXaXOX`.5 . rX).. O = % | 1.1.1.6.1X3.! c _.MX7X5 E ! @.3.*.} *.n l n d m | ",
"$ $ = $ $ = = = p p ; ; - 9 j M a d v 4X_.t `.aXlXnXaXsXsXOX'.t X >.ZX* k q a O.3.+.7.:X:X5.n R _.FX9Xr w ! +.<.+.m O.N l Q d x | ",
"$ # $ $ $ = - y - p f f p 9 g b n n B SX,.t '.uXsXsXsXsXsXsXaXU O 1 jX>.O k c o.O.B @.;.$.} | ! 8XFX7Xr r k _ $.O.m | n d Q d d } ",
"$ $ $ $ % = y f p p h h g f j m M N &.ZX_ U `.'.H.H.H.sXmXuXgX,.o o K.jXq r q 9 k _ j } &.| 1.4.8XFX8Xt q k *.b N h Q } m } ^ R m ",
"$ = = & = y s j V z z b m m N N *.! L.8Xr v K./.H.`.H.H.pXuXcX).q 5 E ZXK.q 9 e z j Q N 1.5.%.L.fXJXiX-.0 z n V $.M Q R 7 R ^ ! m ",
"O O + & y V V j M N b N [ <.3.7.#.#.bXwXV X.@.@.^ ) r #.aX9X,._ 0 q E bX8Xq q h { $.1._ @.;.>XmXkXkXmXmX>X{ { d |  .` P R R R ~ / ",
"  O * & > y f V +.Q Q &.1.6.2X7.6XGXFX).B X.N | ! r $.4.gXuX_ @ i 7 w 4XiXx s M <.1.7.#.-.) 4XKXfXFX9XDXUX . .(  ./ S 4 P P 2 Z / ",
"  $ & $ > ; ; y k d =.4.L.L.4.qXUXK.) ).<.X.<.&.;.@.4.;.9XnX-.@ a 0 o -.8XE a { <.<.3.#.-._ K.fX)._.-.gX>XE.H./ ..( A S ( F 4 Z T ",
"@ $ # # = y ; > r ;.=.:.L.3XZXeX4.>.#.3.*.<.:X>X:.4.@.q I.MX).5 q k 1 #.8X^ i N <.&.@.v _ 4XbXKXrX_ ,.FXkXyXG.h.h./ h.T h./ F T L ",
"= # . # > y j f ! #.E -.DXvX1X,.#.4.@.;.7.7.7.<X2.=.r X H.mX_.5 @ e @ ` 5X) j m | $.&.! v fX5XK.rX9XpXP.J.FXm.i.h.T i.h.m.F.k.q.q.",
"= > # # > y V X.! E r 8XJX#._ #.&.#.@.;.<.7.7.1.@.w ~ -.).cX5XC @ @ . ) 7X-.k i s {  .N @ 8X5X-.r t U S J.dXt.i.g.h.u.u.j.j.k.q.w.",
"= # # # > y B @.v v 8XJX8X#.;.;.;.%.! $.&.<.O.@.E ,.fXMXpXcXcXv @ +   E 8X=.d q q d b z   (.8X) ^ / F.i.J.dXn.A.j.f.f.f.r.j.u.w.u.",
"% # # = y j B ! ) jXJXK.).K.#.O.| %.| %.+.b M Q c fXDXpX,.H.cXU O 5 X R jX=.d ^ d m Q b O ).hXW =./ F.T ].@X}.+XB.d.w.f.f.f.0.0.p.",
"% X   % u 7 %.| 8XJXwXK.L.| +.l } | [ [ B j B v r /.cXpX1 1 gXU   @   5 HX:.F w R | >X2X;.4XjXR F.h.i.Y J.+X$XA.p.s.y.p.a.w.y.s.w.",
"  7 % # O d O.c 3.6X:.%.;. .[ V b N [ +.z e v 5 /.uXaXNX' U aXnX_.5 X W HX:.< 8 , 8 2.6X>X>XfX4 h.k.u.t.Q.=X XW.s.V.V.y.a.a.w.w.w.",
": . . + + +.b * O _ v $. .$.V B z B *.X.e e e _ MX9XN.OXaXaXNXFXmX6 ` kXtX2 I F I 8 8 ( R ~ gXI h.k.w.y.A.+X.X*X|.lX&Xb.a.e.e.l.a.",
": + . > . &.C   . r #.#.$.+.X.X.z B B +.) 6 W MXnXdXNXdXlXI.m./ I m.FXFXm.J J A D F Z Z < / 7XI g.r.a.p.A.A.n..XzXxXzX}.l.e.e.e.a.",
"+ + + + . #.C + r x #.U ! ^ o.o.v ! z $.t ` gXFXFXXX[.M.J Z A J D XXyXyXh.G t.K J K L F < / tX/ i.y.f.w.Y.C.y.v.v.{.*XlXB.e.e.p.a.",
">       + B e r ` W I P W ` :.@.E c z a U aXnXOXdXY H i.J.XXM.K h.oXoXG.9.9.9.H t.K K L F D yXh.g.9.a.w.oXY.p.l.l.p.c.|.S.l.p.z.z.",
"B N - % w R ~ / F./ T h.h.F.h./ R r * ) nXkX' kXNXJ.y.y.R.T.R.y.i.U.u.u.0.H p.S.A.9.K L J L dXG.y.y.a.f.yXU.y.d.p.d.s.s.l.x.d.v.l.",
"1.qX>X^ 8 F I.M.M.g.g.g.g.q.H L S 3 c nXkXm.L oXdXoXA.c.A.M.M.y.9.0.y.y.0.V.|.=X}.8.H H G m.yXR.9.r.a.p.oXU.d.s.p.a.d.a.S.Z.f.C.z.",
"s | 2.< T h.g.w.w.q.y.u.y.0.0.8.K T nXNXM.u.q.R.dXY.}.=X.Xn.i.y.w.p.y.t.W.%X$X-X!.K K L G I.yXg.9.w.0.p.U.oXS.v.d.p.l.l.B.Z.f.C.C.",
"u u w F T u.z.f.z.C.f.y.y.s.Y.s.i.NXBXH.K r.j.C.@XA.W.-X%X$X!.c.p.0.s.~.$X%X%X$Xn.N.i.J K T.yXu.u.r.y.y.A.{.}.A.p.B.a.l.Z.d.p.C.A.",
"c w 6 ' M.d.B.B.Y.lXC.s.y.@XNXJ.J.NXnXD q.j.a.p.|.Q.V..X%X;X&XV.D.D.n.-XzX*X|.c.b.+XC.H G G.,X/ q.0.u.t.M.}.}.{.B.B.l.l.D.l.b.{.z.",
"_ t W g.f.B.l.B.{.lX}.p.B.lXxX*XNXXX' Z u.w.e.l.}.^.i.n.~.~.Q.c.$X-Xb.c.c.c.t.y.{.@Xs.A K G.,X/ q.8.9.y.M.A.A.+X!.W.W.B.{.A.V.lXB.",
"E R F.u.z.C.a.B.D.C.Z.e.p.C.U.lXA.8.A A r.Z.x.x.}.&XD.B.c.c.y.B.|. XB.t.s.Y s.@X=XD.K A D F._./ M.f.0.0.U.U.b.Q. X$X%X^.-X$XQ.xX[.",
"1 F k.f.x.l.B.B.a.d.z.l.d.{.@X}.B.}.Y G 8.e.Z.e.Q.|.|.+X X!.D.B.c.s.c.t.i.c.V.=X}.y.K A Z :.(./ G.x.u.9.R.U.s.n..X.X%X%X$X-XxXxX X",
"7 ( g.C.C.C.|.V.V.|.@Xb.Q.lXdXK B.|.K G 8.e.x.e.A.#X}.+X$X X$X-X$X^.~.^.^.~.&X+Xb.G A Z Z H.(.W T L g.q.G.J.t.c.!.!.W.&XV.~.zX~.*X",
"  4 h.j.d.S.zX^.c.=XzXQ.#XzX+XS.}.}.K u.x.e.e.r.U.@XC.A.!.V.W.~.$X$X%X$X%X;X!.t.A G A 4 4 :.I.W L Z T T R.U.y.t.v.S.d.A.V.V.Q.c.&X",
". 5 g.y.y.A.&X$X^.;XzX&X;XzXzX;X.XB.t.Y.S.S.l.8.[.lXg.j.M.b.y.V.~.~.!.}.W.c.t.H G G A A A G.J.m.D Z A J T.J.9.9.0.z.x.j.C.a.B.p.A.",
"+ + T i.c.n.$X=X;X;X;X;X&XzX|.c.D.B.B.V.Y.Y.Z.0.].NXG.H i.K 9.9.y.9.K q.K G G G G A A Z A G.yXF.2 < < Z oXU.t.9.0.u.x.r.a.f.p.p.s.",
"C + S g.p.s.|.zX^.*XzX}.s.}.A.Y c.d.B.C.S.Z.S.C.oXdXJ.G K G J H K H G G G D D S 4 2 2 < 4 :.kXH., 7 , S sXJ.A J L L k.k.q.j.u.f.k.",
"+ + F G 9.p.C.Q.[.xXlXN.H b.c.J 9.j.C.Y.Z.S.S.S.oXNXg.A D D G L A G A A A Z 4 < < o 1 o o P tX:.o 8 , 3 sX' < 4 A Z ( E./ / L T T ",
"9 7 F Z K 9.K J.BXOXm.T L K D Z Y i.M.C.n.n.n.].nXFXS 3 P Z Z 8 8 Z 8 4 4 8 7 7 7 7 7 4 , T sXH., 4 < 3 sX`.4 , o o O R 8 5 w 6 W ",
"d ( R S 4 S h.lXNX` 4 Z Z 2 Z 6 J K p.s.c.N.[.xXJXH.3 1 S 4 4 Z 8 7 1 , o , 7 7 , 7 , 1 3 H.NXJ.2 1 3 1 pXMX..X o X   9 % X q 5 o ",
"8 < X E ).xXBXaX`.I < 4 2 2 4 4 Z K j.s.b.A.lXnX7Xo 5 3 < 3 2 4 1 , , 3 3 < 2 < 1 1 , 1 1 ) P.W , , < , :.(.W X 5 1 , 1 w 4 8 w w ",
"< , _ vXuX_ U 1 , 3 < S 4 F 2 D D G y.u.f.i.T T 2 8 w < 6 3 S 2 3 1 3 3 3 2 < < 3 , 5 3 1 o w X 1 6 5 1 o o , 1 1 o 6 1 R P 4 8 k ",
"w 8 W _ 5 6 6 S I D I I L I T J J T Y Y i.T D S I I P I I I I F U P I I U I I U W I U W W W I W I U I W I U P P P P P W ~ W P ` 5 "
};
