/* XPM */
static char *_93824cd357f46b6b5e579bb3ce741afRQLCBPcpFzoEvPs1[] = {
/* columns rows colors chars-per-pixel */
"65 65 256 2 ",
"   c #050203",
".  c #04040B",
"X  c #08070D",
"o  c #0A0A0E",
"O  c #0B0703",
"+  c #120C09",
"@  c #14120D",
"#  c #1A1309",
"$  c #0D0D13",
"%  c #0C0E1A",
"&  c #040918",
"*  c #100F15",
"=  c #110E1B",
"-  c #0D1115",
";  c #0E131B",
":  c #0D171E",
">  c #121116",
",  c #14141B",
"<  c #18171D",
"1  c #16181D",
"2  c #1A1A1E",
"3  c #1A1814",
"4  c #211B1B",
"5  c #221315",
"6  c #1E221E",
"7  c #28221A",
"8  c #382A17",
"9  c #070C23",
"0  c #0D1323",
"q  c #0D162B",
"w  c #071629",
"e  c #131523",
"r  c #1A1523",
"t  c #141A24",
"y  c #1B1C23",
"u  c #12162A",
"i  c #141B2B",
"p  c #1C1D2B",
"a  c #071937",
"s  c #141C32",
"d  c #1A1D33",
"f  c #151D3A",
"g  c #0A0C30",
"h  c #211E2C",
"j  c #231D27",
"k  c #221A3A",
"l  c #1D2124",
"z  c #1E222C",
"x  c #16242A",
"c  c #1D2333",
"v  c #1C223A",
"b  c #172538",
"n  c #0B2B34",
"m  c #232225",
"M  c #22222C",
"N  c #2C2B2C",
"B  c #282929",
"V  c #332C28",
"C  c #37332C",
"Z  c #242533",
"A  c #2A2634",
"S  c #252A35",
"D  c #2B2A34",
"F  c #23243A",
"G  c #252A3C",
"H  c #2B2B3B",
"J  c #29273C",
"K  c #332E37",
"L  c #28343A",
"P  c #383639",
"I  c #2F312D",
"U  c #433B39",
"Y  c #463325",
"T  c #4A443A",
"R  c #534739",
"E  c #705531",
"W  c #051A47",
"Q  c #141D45",
"!  c #041C56",
"~  c #0A2547",
"^  c #142244",
"/  c #1B2444",
"(  c #1C2A4C",
")  c #182649",
"_  c #1F344B",
"`  c #09265B",
"'  c #1C2B54",
"]  c #172756",
"[  c #103552",
"{  c #2B2B42",
"}  c #262C47",
"|  c #322947",
" . c #273548",
".. c #373946",
"X. c #252C55",
"o. c #2C355A",
"O. c #273556",
"+. c #343B57",
"@. c #302F59",
"#. c #0B1F61",
"$. c #082867",
"%. c #162C65",
"&. c #17366A",
"*. c #073576",
"=. c #173679",
"-. c #0D2D75",
";. c #293969",
":. c #313B67",
">. c #273975",
",. c #2A3268",
"<. c #221F54",
"1. c #433E46",
"2. c #463D59",
"3. c #184750",
"4. c #394448",
"5. c #3B4657",
"6. c #294A5C",
"7. c #14456B",
"8. c #26466A",
"9. c #344367",
"0. c #284775",
"q. c #364976",
"w. c #375878",
"e. c #30536C",
"r. c #3C6B75",
"t. c #494947",
"y. c #524D49",
"u. c #57544A",
"i. c #464C58",
"p. c #48535A",
"a. c #575657",
"s. c #594B55",
"d. c #63584B",
"f. c #635C5A",
"g. c #7C5A59",
"h. c #676359",
"j. c #746B57",
"k. c #736D53",
"l. c #465769",
"z. c #4E5B6E",
"x. c #6D5268",
"c. c #5A636C",
"v. c #586978",
"b. c #4D6A77",
"n. c #696868",
"m. c #7C776A",
"M. c #726D78",
"N. c #787978",
"B. c #6D6D6F",
"V. c #BA6D0D",
"C. c #B07133",
"Z. c #8B603C",
"A. c #C77615",
"S. c #CD7310",
"D. c #C8752A",
"F. c #8E7154",
"G. c #A97551",
"H. c #847B69",
"J. c #957A68",
"K. c #8C7B74",
"L. c #895C45",
"P. c #C67D46",
"I. c #D18A37",
"U. c #EA9037",
"Y. c #968259",
"T. c #B88748",
"R. c #B68A54",
"E. c #89836A",
"W. c #95886A",
"Q. c #888578",
"!. c #948C77",
"~. c #999376",
"^. c #BA9468",
"/. c #A6987D",
"(. c #B59874",
"). c #A68E6C",
"_. c #B6A87C",
"`. c #C88B48",
"'. c #C79454",
"]. c #D8934E",
"[. c #E89947",
"{. c #E39352",
"}. c #DCA459",
"|. c #E9A347",
" X c #E9A756",
".X c #F8AE53",
"XX c #CA9B6D",
"oX c #D5A671",
"OX c #EFB56E",
"+X c #FBC271",
"@X c #B58428",
"#X c #0B3484",
"$X c #193A87",
"%X c #173B95",
"&X c #08368C",
"*X c #233B88",
"=X c #164688",
"-X c #1A4796",
";X c #0E4F93",
":X c #274987",
">X c #265394",
",X c #365895",
"<X c #2F5089",
"1X c #346B91",
"2X c #1151AB",
"3X c #2B5AA3",
"4X c #1971B3",
"5X c #2677B6",
"6X c #316CAD",
"7X c #106399",
"8X c #4F6F8B",
"9X c #677586",
"0X c #787984",
"qX c #756993",
"wX c #4C75A9",
"eX c #43518F",
"rX c #1C74C9",
"tX c #2977C7",
"yX c #427CC5",
"uX c #827B89",
"iX c #2984BD",
"pX c #758A99",
"aX c #78848A",
"sX c #538EAF",
"dX c #7995A6",
"fX c #6D99B9",
"gX c #79A8B4",
"hX c #2D81C6",
"jX c #6FABC9",
"kX c #609AC6",
"lX c #888886",
"zX c #999789",
"xX c #92928F",
"cX c #A49D86",
"vX c #A8928E",
"bX c #9BA293",
"nX c #A9A698",
"mX c #B5A98D",
"MX c #8A98A8",
"NX c #94A5AC",
"BX c #A8ABA6",
"VX c #B2AAA4",
"CX c #B8B7AF",
"ZX c #AE91BD",
"AX c #C89B87",
"SX c #C2BFAB",
"DX c #C8A69D",
"FX c #CCC8B7",
"GX c #8DB9D0",
"HX c #88B7E3",
"JX c #8DC3DC",
"KX c #8DCBEC",
"LX c #ACD4F4",
"PX c #AFDAEE",
"IX c #CDEFFF",
"UX c #CCD5C4",
/* pixels */
". . X X o o o o o o $ $ + $ O o o * $ o * * * > * * $ $ > , < , > > ; > , , - > ; - > > > - - - ; - ; - $ - % $ $ - = , r < , < e ",
"X X X o + $ $ o o $ $ $ $ $ o o $ o $ * * * > = = * $ > > > , > > , > > , , > , > > > > > > - @ - ; - - $ % $ % % - , , < < , , , ",
"o o o * $ $ * $ o * $ $ * * $ o o $ $ * * * * = > > > > , < < > < , , , , , 3 1 > > > , , > > > > ; - - % - $ * $ > , , , < r , , ",
"o * o o * * $ o o o $ > * > o * $ o o o * * > 3 , > > > > < < < , < , 1 1 1 1 1 1 > , > 1 > 1 - ; ; ; - - - = ; - > , , r , < r r ",
"o $ $ $ * * $ $ $ $ * > * > * $ o $ $ $ = , , > , > , , < < < , 1 1 1 2 1 3 1 1 1 1 1 1 1 > 1 , , , > ; ; ; - > , > , , , 1 r < j ",
"o o o o $ * * $ $ * = > > * * $ $ o * * * > > , < , > > > < < < > 1 1 1 1 1 1 1 1 1 < < 1 1 1 1 ; 1 ; ; - ; > ; = , , , < , 1 , y ",
"o o o $ * > * * * * > , > > * * $ $ * * * > , > < > > < , < < < 2 1 1 1 1 1 1 1 < 2 y 1 2 < r 1 1 , : , > ; > , , , , e < , r 1 y ",
"o X $ $ * > > = * * > > > > * $ $ * * * = > > , > , , > < > , > 2 > 1 1 2 1 1 2 2 2 t y r y 1 < ; , 1 ; , ; , , , , , , , , < < y ",
"X X $ % = > * * > > > , , , , > * $ * > > , > > , > > > < > 1 < > > > 2 2 y 2 y y y y y y r y r t 1 , : , , , ; ; , , , r r < < > ",
". o o $ > = > = = , $ > = > = , * $ $ > > < , > < < < 1 < > 1 < 1 1 2 2 y 2 2 1 t 2 y p p y y u 1 1 t 1 , t , , % = , , , < < < 1 ",
"X & o $ = > , = = * $ = > = , > * * = > > > , > < < < < < < < < 2 2 2 l y 2 t 1 y y y p p y p y t 1 1 , t , , , > % , , , , , , < ",
"X X o $ % > > , > $ = > , , , , > * * > , < < < > 1 < < < < < < y 6 2 y y 2 y y p y p y p y p r t 1 , : t , , , > > , , , , , , 1 ",
"& & $ $ % = > e > = = = e < e > > > = > > 1 < < < < < < < < < < 1 2 2 l y y y y j p p M p p r p t 1 , 1 , t , , , > , , , , , , > ",
"$ $ & $ = > , = , = , , = e r < < > > > > < < < , < < < < < 2 < 1 2 2 y y l j y M M z h h p y p y t 1 t , t , , < e , < e > , , - ",
"X = = = % = , = = , = = , < = > < < > 1 < < < < 1 < < y 2 2 2 2 2 2 y 2 m y j y y j z M h p p j y y t 1 , , , , = , e > , , = * - ",
"$ X = o % = = % e = = e = , > = 2 3 > > > < , < 1 < y 2 y y 2 2 2 l l m l l l y y p p M h Z h d p x t , e , e = , , , > = > > = $ ",
"$ $ * * > , 0 0 q q = 0 y * o U Q.cXQ.B @ 1 - t t 2 2 2 l 2 2 y y 2 2 y l m l l z z p z M z p p x x i p i p e = e = = , = ; $ % o ",
"* * * * ; ; 0 q 9 d k d e   C nXCXcX!.u.3 1 < z 2 1 y y y l j y y 6 y y M M z z z M p z c p x p p s p i p i r r e e % , ; % - % o ",
"* * * * , : e q f u e u < $ U CXmXd.k.R @ 3 y ; y 2 2 y l l y y y l y M l M M M M z z z z c p i x c s p p p p r r = = > - - % o $ ",
"* * * * ; 0 0 u s u s k r   C zXcXm.E.h.3 * y < t 2 1 y 2 y y j y l m m z y z Z Z M z Z Z M c x d i i i p i r y r = = = $ - - - $ ",
"> > - > ; : q i q u v c t @ 3 R zX/.cXu.@ < y < 1 1 2 2 r y j h y l m m M y M z Z Z Z Z Z Z c c i i i t p p y t u < > * - - - - $ ",
"> ; > ; , t q i d s i = > > O   k.W.E.V O 3 * < 2 2 2 2 y j h h y m M l l l z M Z Z Z S S S Z c c c i u t y r 2 < < > % > - - $ % ",
"- > ; ; ; t t i u d F r 2 N V 8 k.E.~.d.P N > B 2 2 2 y y j h h M l y M M M M z M Z Z Z F S S c c c p p u y t r , > , ; ; ; - - % ",
"> - ; ; 0 t q i s u u p a.lXQ.m.Y.k.j.H.zXm.m X y 2 y y y h j k M m z j M M S M z z z Z S S Z c Z b x i p t t t r , , ; ; ; ; % % ",
"% % , u t 0 q s s d d h uXa.m.j.m.E.k.E.R h.N 1 2 m 2 j < A Z Z A M M M D B S Z Z h c Z Z c F F c c Z c z p t t u t 0 u i q q 0 % ",
"e , ; t t t i x s s d p N.5 d.H.E.W.W.E.T y.P 3 > 2 2 N j j r H B M M M D M Z Z Z Z Z d p Z Z v c c c x Z c p i i 0 i q s f a w 9 ",
"e , 0 e t i i i d u r h lX@ u.E.m.k.E.m.U U y.> N m 3 2 < M k K A M M Z S A Z Z S S Z Z Z c c c c c c c c c F c i s f Q ) Q W a q ",
"; 0 ; e q q i c s u 0 = lX@ d.H.E.E.k.E.T t.y.O 3 2 m B j j j h Z M A B M M Z Z S S F S F Z Z Z c c c c c v v v f ^ ) ] ] ] ! W a ",
"% 0 t t 0 i s b s r % $ M.+ u.W.E.k.T h.C T a.> 7 2 2 6 m m A A Z N D M D Z D Z H G H G G G G G G F c c c v f v Q Q <.%.%.%.$.! a ",
"e u i u i i c v s 9 % A lXY d.!.W.k.8 u.C y.f.y.t.u.t.6 > M K M M Z D A Z D S S H H H H H L G { H G F v v f v ^ ] <.%.%.$X=.-.-.Q ",
"e u t 0 i x s q 0 9 & A N.y.R k.~.k.# 8 # 7 B B 2 f.lXh.P < M h M A D A D D H H K H H { { L G { { G G G v } / ) ] ] <.*X*X$X#X-.! ",
"e 0 0 ; t i u % & 9 & X < @ O 8 cXk.# # 7 7 3 y 3 3 t.N.N.K j A M Z S B Z D H D H H { { { H G G } G F G } } } ] X.&.-.$X%X%X&X-.#.",
"t i ; % , < = & 9 % & % y 2 4 7 cX/.7 O V j h h l 2 7 4.t.D h A p K B B L Z B K A K | | | F b  . .} } F } } ) O.,.>.<X%X2X2X&X&X$.",
"x x ; $ , * $ & & & & & r > 2 V cXcXd.V 5 h j A A y 1 l S p h Z ..p B I x L B M A | @.| { } _ _ _ } J { X.] ' X.' ,.*X%X%X2X&X&X$.",
"b s q & % % . $ & . & . - 2 y.xXj.).!.zXs.e A h S M m M M H J Z e G l B L  .G ..H | | X. . ._ O._ } } | X.X.X.O.z.qX;.:X%X%X&X-.$.",
"^ f q 0 0 $ & - ; . - @ > o t.!.H.m.g.uX1.= ..A M y Z D M S A d ..N.B.4. .{ x  .G @.o.O. . . ._ _ } X.@.,.,.o.O.9X0X) >.#X$X$X-.#.",
"] ) f u d t , r S m - - o @ T m.T 8 j.f.3 A A H H y Z M M S J ..CXSXUXaX4.4.b _ G O.+.o.+.3.O._ _ _ @.:.>.>.;.O.MXNX[ 8.-.%X*X*X-.",
"] ' ) f c c p x L 4.. o > t.Q.vX7 8 B.K.s.A h F  .h Z Z H A J a.BXFXcXbXB.b 4.L  .O.o.o.+.5.O.O.3.O.:.>.>.*X:X7.GXJX8.<X%X-X%X#X-.",
"] ] Q s c c x 6 S n.: 6 > f.K.s.j.R 7 a.M.r | c h i F z H J d s.d.W.E E.B.q 4.b { +.o.,.+.5.:.5.8.;.:X,X:X>X3X;XgXJX;X2X2X2X2X%X&X",
"] ) Q 9 t c x : 5.NXL : . s.n.$ 3 + O 1.M.y Z H F J H s H J h n.mXF.mX~.i.4. . .} o.,.X.5.9.q.>.<X0.<X,X>X3X5X7XkXJX4XrXrX2X2X2X&X",
"Q / s 9 9 x x q : : : w t p.M.5 m #   y.N.j A A F { Z { k H H C DXDX).j...@.+.O.o.:.;.:.q.q.<X<X<X:X3X>X6X7XiXiXjXKXtXtXrX2X3X;X;X",
"f v n 9 & t x x & w 9 & % i.M.< j >   1.0Xj H Z F H d { F { J K j.H.k.f.2.} } 9.O.:.q.>.:.0.q.:X3X>X>X-X6X4XiX7XhXKXtXrX2XyX6X=X7X",
"s b x & . & i q a / b s 9 i.qXj B 3 X 1.aXl D M F { f { J | H P lXcXQ.a.@.+.9.o.o.:.q.q.q.l.eXeX,X<XwXwX1X6XiXiXjXKX5XtXwXkXq.0.>X",
"q b i & & 9 s b b O._ a & ..0X= j < X C K.m H p F { F F J { D t.vXVXnXp.f @.5.c +.+.2.i.5.4.9.:.z.:XwXwXwXsX5X5XjXKXsX6X-.) &  .;X",
"i i i e q s / } ) ' _ f & H N.1 l 1 . I aX6 N z G G F } F H A a.zXzXCXN.L 4.1.U R R d.m.H.j.m.uXM.qX8Xl.fXfXtX5XfXJXkXhX>.g 9 6.>X",
"i i i i b v ^ ) O._ ( a 9 L aX2 y 1   I N.2 M M F F d k Z J K M.zXE.mXW.7 T d.E.(.XXXXoXoXXX^.(.uXvXuX:.f >.5X7X6.8.$.7X,Xa g [ -X",
"i s d d F Q Q Q ' ' ~ w & L lX6 2 y . U Q.6 l B F c F k Z J ..zXzXW.mXY.Y J.(.OX X X XI.I.U.].`.oXvXVXuX9 W hX7X[ [ 7.hX6X$.! =X$X",
"i i s / k Q ( ' ' [ _ w : t.nXI 2 j . t.lXm 6 L Z p h F h A P VX~.Y._._.E XXT.`. X.X[.S.V.S.I.I.P.P.AXuX0X>.tXhX1Xw.4XtX7X*.! $.=.",
"h d k d Q ) ) ] <.) ( t   N.m.6 m y . a.N.3 I B I I l l h 2 P nXcXE._.Y.Y.oX@X}.OX|..XI.D.{.{.D.G.XXXXvXZXeX6XtX<Xe.2XrXrX;X-.*.-.",
"p u d f ) ) ] ) X.) _ w . n.h.@ < , * ..n.C 7 @ a.Q.lXh.f.y.f.lXSX_._.Y.Y.oXXX+X.X[.OX[.D.{.].P.`.XXXXXXZXqX6X6Xw.&.;XrX4X;X*.*.$.",
"t u d f ) ( ] ] ,.' ^ q ; c.4.@ N o . a.t.@ N lXN.B.BXu.B U P y.Q.mX_.).'.OX+XOXI.I.[.{.{. X].XXXXXXoXoXoXW.b.8X .o.*.4XtX-X! &.` ",
"t i d d ) ) ) ] ' ' ^ i t c.P o r , X n...P N.xXlXa.a.BXP 3 M > I E._.)._.OX+X.X.X[..X X{.{.].oXAXAXOXOX+XR.bXN.K d $.3X2X%X$.Q ! ",
": t i n b ) ^ ) ' X.^ g c v.K $ > 3   n.t.a.Q.n.m @ * s.CX| j K # k.mXW.R.'.]..X|.|.|.U.I.T.`.XXAXAXOXOX.X@XmXm.r k ` 7.3X*XW <.] ",
": : 0 x b ^ ~ ~ ^ ( / 9 i M.D $ + + V f.V lXN.6 < V 4 < K.MXj j @ k.mX).T.I.V.A.S.S.@XV.C.`.R.^.uXDXoX}.|.C.FXxXk g W =X$X$X] a ^ ",
": t 0 i n f a f b f d 9 p B.K + + 5 # m.xXh.O 6 3 < m K r M.MX3 I E.mXY.'.}.A.S.S.S.S.A.P.`.XXJ.G.vX'.R.T.Y.FXMXk <.` $.=X=.W ) W ",
", e : q u s b s s 9 e o < n.V @ 4   C CXR   3 3 4 j 3 r j A M.uXxXSX_.Z.R. X[.S.S.S.S.A.`.].].G.J.AX).G.E R c.} <.<.$.*.*.-.~ a a ",
"e e = e 0 i i 0 ; & x O 3 zXY 3 O u.~.E.O @ @ @ - 6 3 6 I : I aXBXSXY.E T.}.U..XD.D.U.P.P.P.G.G.F.K.J.d.P 9.8X7.%.<.#.-.$.` w a w ",
"= = e = u r e t : 1 O O @ bXY O u.m.N.Q.O O O 6 6 3 - : - : 6 I bXnX~.F.@XR.`.I.D.D.D.D.G.P.G.L.K.K.d.t.} ` [ 3.>.! ! *X%.;.n w w ",
"r = = = r y t > 2 > @ C 8 cXE.m.BXh.T BXbXn.m.BXBXxXaXn.u.4.4.6 u.bXE.8 E '.`.C.D.C.Z.G.G.J.L.x.x.x.1.H Q W 3.r.l.] ! #.] ' a n w ",
"= r r r e = : l 7 m f.zXzXVXVXVXzXaXQ.N.dXxXdXQ.p.c.aXxXbXNXBXaXm.bX~.H.L.F.G.Z.L.Z.L.F.K.F.x.x.x.2.c a W ` 3.6.~ ~ <.%.:._ w b i ",
"= = $ . X I N.BXxXbXCXbX4.B T u.L L 4.I 4. .4.p.p.4.4.L L 4.p.a.h.zXnXH.R 8 8 Y Y Y U ..4.P L 3.Q a g g a [ 3.w a g [ 8.' Q Q a a ",
"& = * = : 6 L t.L L c 4.x B x S S x x n b 4.b G L L c n L L x I B j.a.7 4 C K 1.s.i.i.l.e.e.e.r.q.w.w.e.7.<Xb.3.[ ~ ~ n W W W a g ",
"> - * 1 6 x l : S c L p.5.4.4.5.e.p.5.b.l.v.e.z.c.z.p.5.p.p.5.5.a.t.i.a.p.c.M.v.8X8X9XsXsXsXiXsXsXsX1X1X8XwXsX<X,X>Xe.n 7.&.` ` Q ",
"o 1 2 y x 6 L L 4.4.p. .p.p.l.e.l.z.l.l.b.z.9Xv.b.b.v.b.v.v.B.c.a.B.B.n.c.z.w.z.8X8XsXsXfXjXjXjXjXKXKXLXIXPXPXIXLXHXgXr.e.:X>X&.[ ",
"2 y t x L ..L 4.i.4.5.p.c.v.v.v.v.v.aXaXpXpXdXdXgXdXdXpXMXaXaX9XB.aXaXc.v.v.c.9XdXjXjXKXIXIXIXgXfXJXJXgXgXgXJXJXdX1Xr.3.[ &.>X7.a "
};
