/* XPM */
static char *_074d558cc784cdbe1e7d379fc84f3abGPzHXaXSmsfSIBXg[] = {
/* columns rows colors chars-per-pixel */
"65 65 209 2 ",
"   c #020202",
".  c #080408",
"X  c #0C0C0C",
"o  c #110513",
"O  c #100B11",
"+  c #0F1010",
"@  c #141414",
"#  c #19141C",
"$  c #1A1A1B",
"%  c #1E0922",
"&  c #22082D",
"*  c #261B29",
"=  c #2B0E37",
"-  c #2E1936",
";  c #1F2528",
":  c #222222",
">  c #25232A",
",  c #2B2B2B",
"<  c #2E302E",
"1  c #2D2332",
"2  c #252E33",
"3  c #292F31",
"4  c #342836",
"5  c #253237",
"6  c #2C3235",
"7  c #263238",
"8  c #2A363C",
"9  c #2C393F",
"0  c #333334",
"q  c #33383D",
"w  c #3B3B3B",
"e  c #3F413F",
"r  c #40403F",
"t  c #391D45",
"y  c #3D2A4A",
"u  c #2E3C43",
"i  c #3B3745",
"p  c #313D44",
"a  c #3D3C4A",
"s  c #392A59",
"d  c #392861",
"f  c #441F4D",
"g  c #461759",
"h  c #43374A",
"j  c #4B265C",
"k  c #4C3B52",
"l  c #473759",
"z  c #513A58",
"x  c #523A5B",
"c  c #5C1B77",
"v  c #592969",
"b  c #4B356A",
"n  c #563966",
"m  c #562A70",
"M  c #5E2E73",
"N  c #5C3277",
"B  c #632A79",
"V  c #67337A",
"C  c #344046",
"Z  c #3B4144",
"A  c #37474F",
"S  c #3A464D",
"D  c #37484F",
"F  c #38484F",
"G  c #374750",
"H  c #3B4653",
"J  c #374850",
"K  c #3B4A52",
"L  c #424242",
"P  c #484747",
"I  c #464148",
"U  c #464A4C",
"Y  c #4B4B4B",
"T  c #444553",
"R  c #494254",
"E  c #424C53",
"W  c #44445B",
"Q  c #434D59",
"!  c #4C4B5B",
"~  c #455056",
"^  c #4C5254",
"/  c #535353",
"(  c #53575B",
")  c #5B5D5D",
"_  c #4B4462",
"`  c #4F4E63",
"'  c #584A68",
"]  c #4E5962",
"[  c #585865",
"{  c #55566A",
"}  c #5B4770",
"|  c #5D5872",
" . c #664E6C",
".. c #674A76",
"X. c #6D5177",
"o. c #695A74",
"O. c #695876",
"+. c #705077",
"@. c #72527A",
"#. c #556266",
"$. c #5E6B71",
"%. c #616161",
"&. c #6B6C6B",
"*. c #626D74",
"=. c #69607D",
"-. c #677378",
";. c #6A767C",
":. c #777879",
">. c #593188",
",. c #6B2689",
"<. c #7B249C",
"1. c #7C1FA2",
"2. c #7F21A4",
"3. c #6D4581",
"4. c #764789",
"5. c #775E82",
"6. c #756687",
"7. c #796588",
"8. c #6F7B80",
"9. c #777985",
"0. c #841EA6",
"q. c #8422A6",
"w. c #8626A9",
"e. c #8C23AA",
"r. c #8D27B1",
"t. c #9927B6",
"y. c #9B2ABB",
"u. c #A02DB8",
"i. c #864799",
"p. c #8B5F92",
"a. c #82628A",
"s. c #916A97",
"d. c #8E739E",
"f. c #994BA9",
"g. c #9F47B1",
"h. c #A346B4",
"j. c #AB47BC",
"k. c #A64CBB",
"l. c #AD4BBD",
"z. c #AC57BC",
"x. c #9677A4",
"c. c #A865B5",
"v. c #A37DB1",
"b. c #9C2AC0",
"n. c #A82EC4",
"m. c #B22DC8",
"M. c #B539CC",
"N. c #BB33D6",
"B. c #B846CB",
"V. c #B154C1",
"C. c #B45CC3",
"Z. c #B864C6",
"A. c #BA68C8",
"S. c #BE71CB",
"D. c #BE79CA",
"F. c #C175CD",
"G. c #C37ACF",
"H. c #C47ED0",
"J. c #CD77DC",
"K. c #D871EA",
"L. c #E57FF6",
"P. c #758186",
"I. c #7C848C",
"U. c #858B8E",
"Y. c #8F8F8F",
"T. c #878F94",
"R. c #938F9D",
"E. c #889297",
"W. c #8C9599",
"Q. c #91999E",
"!. c #9885A5",
"~. c #959BA1",
"^. c #9C99A8",
"/. c #AC82B7",
"(. c #B285BC",
"). c #AE99B8",
"_. c #9AA2A5",
"`. c #A0A0A0",
"'. c #A3AAAE",
"]. c #A7A8B1",
"[. c #B9B9B9",
"{. c #BB8AC7",
"}. c #B7BDC0",
"|. c #C38BCE",
" X c #C783D2",
".X c #CB8DD6",
"XX c #CD91D7",
"oX c #CC9AD6",
"OX c #CF94D9",
"+X c #D095DA",
"@X c #D29BDB",
"#X c #CBA7D2",
"$X c #CAA9D2",
"%X c #D8BEDD",
"&X c #E895F6",
"*X c #DBACE2",
"=X c #DEB2E5",
"-X c #E8BCEF",
";X c #BCC1C4",
":X c #C8C8CA",
">X c #D7D7D6",
",X c #DBC1E1",
"<X c #E5C5EA",
"1X c #E8DAEB",
"2X c #EDD7F1",
"3X c #DEE0E2",
"4X c #E8E9EA",
"5X c #F3E1F5",
"6X c #FEFEFE",
/* pixels */
"A A A G A A A A G A A F A G A A G A A G F A A F A G A A F A A A G A F F F A F A D A G A A A G A A A A G A A A G A F A A F G A A A ",
"A A F A G A A F A A A G A A A F A A A A A A G A A A F A G A A A J K E S A A A A A A A A A J A A F A A A F G A A A A G A A A A A A ",
"A A A A F A A A A F A A F A A A A F A A A A F A A A A A A A J J ( #.) / p C A A A G G D A A G A A A A F A A A A A A F A A A F A A ",
"F G A A A A G A A G A A A A A G A A G A A G A A F A A G F F F ~ %.%./ r 0 6 p F A A A A A A F A A G A A A A G F A G A A A A A G J ",
"A A F A G A A F G A F A G A A A A A G F A G A A A G A F A A K ) %.) Y L w 0 , 9 D D A A A G A A F A A G A F A A G A A A G A A A A ",
"A G A A A A A G A A A A A A F G A F A A A A F A A A G A A F ( %./ P L L 0 q p 8 C J A A A A F A A G A A A A A G A F A G F A A G A ",
"A A A A A F A A A A A G F G A A G A A A A A A G A F A A A ^ ) / L r w L L 0 C C C J G A A A A A A A G A A A A A A A A A A G F A A ",
"A F G A G A A A A F A A A A A A A A A F G A A A A G A A K ( / L w , , w L w 8 A D n W A G A A F A A F A G A F A A A A F A A A A A ",
"J A A A G D A A A G F A F A A A A A A G D A A F F F F J ~ Y r w , : $ , w r 0 C J G G G F A A A A G A A A A A G G F A A F A G A G ",
"A A A G A A A G A A G ` K F A F G A A A A A A G D F F K / P L , : : : : : e e i A D F F A A A A A A F A G F A A A A G A A A A A A ",
"A A D A A A G G A F K 7.o.K A A A D G A A A F A D G D K / e w : $ : $ : : 0 h h F G A A A A A A A A G A A A A A A G F A A A F A A ",
"G A A A G A G J A G G ! 5.o.G A A A A A G A A A A F F ^ P 0 > : : : : : : > h 0 p G H W A A F A A G A A F A A F A A A A A A G A D ",
"A A G A J D K K D D D { v.s.o.S S J K A A A A A A A G ^ L , > s > : > l - 4 v w q G H _ A A A A F A A G A A A A A A A A G A A A A ",
"D A A F J Q d.{ D D D =.XX(.s.o.G G A A F G A F A A K / w : > b > : * >.v - 1 0 p G A A A A A F A A A A A F A G G F A G F A G A G ",
"A A A A K x.XXx.K D Z =.XXXXc.a.o.Q F A A A F F J K ^ Y 0 : > d : : * s $ @ X y m a A G G D D D A A F A A G G A A A A A G A F A A ",
"A A A Q x.XXOXOX7.J S =.XXA.l.f.p.a.[ A A G F F K ( Y q : : : : $ $ : $ @ O   $ B m C G H b D D F G A A A A A A F A A F A A A A A ",
"A A A ` |.OXXXXX{.v.v.{.D.f.3.} Q [ a.[ G F F A ~ / w > $ @ @ + X X f *       X i ,.l G K T A F A A A A G A F A G A G A A G F A A ",
"A A A { |.XXZ. XOX+XOXOXZ._ G J G J [ a.` F A A ~ / L 0 $   X o %   & o & & @ , h <.>.H b b A F A G F A A A A A A A A A A A A A G ",
"A A J x.XX XV. X.XH..XXXZ.4.K H G G F [ a.[ G E U ) / L < X   . o       g = 4 L M 1.,.a N _ F F A A A G A A A A F G A F A A A A G ",
"A A J v.+X Xl.Z.V.V.Z.XXD.k.4.H A A A F [ a.[ Y w w ( / r w @           g B h > c 2.l 8 C J G G G A A A A F G A A A A A A F A G G ",
"G G K v.XXZ.j.j.j.j.l.D.H.V.f.W A D A D K ( Y > , r P P P P w , . . % , v w.,.g q.t.x < : 6 C G F A A A G A A A G A A G A A F A G ",
"G G H v.+XC.j.j.j.j.j.l.V.V.f.W A A A ~ Y 6 * , r r L r P ) Y P 0 f k w 4 B t.n.b.,.M l < > y G A A A F A A G A A A A A G A G A A ",
"A G K v.+XF.l.j.j.j.j.B.B.h...G A A U Y < : : : e w w L L P Y Y I n h j = = q.N.r.k x B I < , 8 A G G A F G A F F A A F G A A A A ",
"A A J v.+X.XS.V.j.j.g.4.h.h.} G D E w : , 0 : , w < > w L r P r I L M B * t q.r.<.k V r.z w > : p G F A A A A A A A A A A A F A G ",
"A A J v.OXOXS.V.u.g.} H i.i.Q G A ^ 0 0 e L w w L , : , 0 r r P L x q.I 0 v 0.y.y.w.y.w.z L 0 > C G A G A A A A A G G A A F A G G ",
"A A | |.XX.XC.j.V.i.H G } 3.G G A ~ L e L L L L L , $ : : , w 0 r n r.m j <.t.n.q.e.M.q.x L w > C G A A F G A A F A A A A A A A G ",
"D D 6.+XXX Xj.j.h.' G G G H A A D ~ Y L L L r > < , : : : : : , r x n.b.1.0.u.N.e.e.t.e.,.h P < C G F A A A A F A A G F A A A A J ",
"A D 6.OXXXZ.j.h.h._ A G A A A A A ^ Y L r L w X @ , : : : : $ , r x r.u.0.e.N.B.u.m.m.y.,.I L 0 C G A A G A G A A A A A A F G A J ",
"A A 6.oXXXC.h.B.h._ A A A A A A A ^ Y r L L w X X 0 : : : : : : r z <.u.M.A.K.-XJ.K.B.h...h L 0 C G G G G F A A A J A A A F A C C ",
"A D 6.XXXXC.h.B.h._ A A A A A A J ~ Y L L L w X   > , > : $ : , r h B k.L.2X&X1X&X1XF.%X&.r L 3 p J A G A A A A A A A A G A G u u ",
"A D 6.XX XV.j.j.h._ D A D A G A A ^ Y L L L w X   @ $ , : , < w L r w s.-X1X*X1X*X1X#X3X&.L w , A A A G A A F D A A A J G A G u u ",
"C A 6.XXS.j.j.j.C.8.$.-.$.J A A K $.Y r L L w X       X $ < P P Y P Y :.>X>X>X4X>X>X:X`./ L w 8 A A D A G A A A G A A A A J G p u ",
"p C 6.+XA.V.V..XoX^.Q.Q.Q.Q.$.J #.:.Y L L L w : X   . . $ Y / Y / / Y / &.[.:X:X:X:X:.Y r P w 6 D D D J A A A F A A F A A A A p p ",
"p C 6.XXS.H.XXF.z._ A A J $.T.E.W.( P r e w e e L P L L L Y L r r r P P @ :.Y.Y.Y.%.@ w r r w q D D A A G A A G A A A G A G C u p ",
"u u 6.+XH.XXH.V.g._ J K J C $.;X-.~ Y r < > w L L L L L P L L L L L L Y , @ X . X @ , L P P w 8 J D A A F A G A A F A A G J p u u ",
"u u | {.=XH.S.D.h.{ P.P.K 8.T.-._.#.L < : : e r L L L L L L L L L L L L L < + X : w Z L r r 0 6 J A G A A A A A G A A A G C u u u ",
"u u p !.<XZ.l..X$X9.Q.I.}.:X#.G I.U.0 : : , e e L L L L L L L L L L L L < < 0 , , , w w r r 6 p A A G F A A F A A G G G C u u u u ",
"u u u *.,XA.Z.S.5X4X3X4X6X~.G G $._.P : : , < e L L L L L P L L L L L L , X +   .   @ , 6 6 p A A G A A A A A A A A A A u u u u u ",
"u u u { ,X XG..X*X6X6X6X'.8.*.C $._.K 0 : : , r L P L e w w , , , Y L w :           . 2 F F A A A G F A A F A G A A G C u u u u u ",
"u u u #.=XXX#X X<X6X6X6X'.;.*.A $.~.F p 3 > > w 0 0 0 : $ @ X   X 0 L w X           . 0 S A A F A D A A G A A A G A A p u u u u u ",
"u u u ] ^.{.XXXX6X6X1X4X4X#.G G -.E.A A A p u 9 Z : X             @ Y w @ @ X         k o.K H D A A A G A G G J A C u u u u u u u ",
"u p u u I.9./.5X2X@Xx.8.].8.J K _.] A A A A A F ~ >               , L 0 , , : + .   . w 7.o.S D G A A G A G G J D u u u u u u u u ",
"u u u u ] _.:X1X+XV.C.4.H P.#.I.I.K J A A F A F E $             . L 0 L L w 0 > @   . 5 ^ 5.' F A D G G A J C C u u u u u u u p 8 ",
"8 7 u u C W._.!.v. XA.C.4.4.!.].] C D A A A A K w         . X     L L L r P r e < :   3 F E +.' A A A A C C u u u u u u u u u u 8 ",
"7 7 7 7 $.'.#.~.R.oX*X*X+X}.).9.] u p p p A A J Z X @ : : < , .   > L L L r L r P >   @ C J T X.` Z A u u u u u u u u u u u u 5 7 ",
"7 7 8 #.A C u C $.R.Q.~.R.Q p C p u p u u p C F / < w r e r < , X < L L L L L L r ,   + u C C S X.' Z u u u u u u u u u u u 8 5 7 ",
"7 7 8 K 8 5 5 7 u u 2 u u u u u u u u p u u u C / L L L r L r , X w r L L L L L P ,   + 8 u u u A X. .T u u u u u u u u u u 5 5 7 ",
"7 7 5 5 7 7 7 7 7 7 2 u u u u u u u u u u p u C ^ L L L L L e @ < L L L L L L L r >   + 8 u p u u C X.@.W u u u u u u u 5 5 5 5 7 ",
"7 7 7 7 7 7 7 7 7 7 7 7 7 8 u u u u u u u u u p ^ L L L r r r , w L L L L L L L r >   + 8 u u u u u u ! @.T p u u 9 8 7 7 7 7 7 7 ",
"7 7 7 7 7 7 7 7 7 7 7 7 7 7 7 8 u u u u u u u U Y L L L h r P r L L L L L L L L P >   @ 8 u u u u u u u ! @.T u 7 5 7 7 7 7 7 7 7 ",
"7 7 7 7 7 7 7 7 7 7 5 7 7 7 7 7 7 7 7 u u u u ^ P L L r < , w L L L L L L L L L r ,   X 8 p u u u u u u u R X.a 5 7 7 7 7 7 7 7 7 ",
"7 7 7 7 7 7 7 7 7 7 7 7 7 7 7 7 7 7 7 7 7 7 7 E P L L w : : < L L L L L L r L r e ,   X 8 8 8 8 8 8 7 2 7 7 R X.a 5 7 7 5 7 7 7 7 ",
"7 7 7 7 7 7 7 7 7 7 7 7 7 7 7 7 7 7 7 7 7 7 7 U P L L w : : 0 L L L L L P r L L r ,   + 2 5 7 7 7 7 7 7 7 7 7 k +.a 5 7 7 7 7 7 7 ",
"7 7 7 7 7 7 7 7 7 7 7 7 7 7 7 7 7 7 7 7 7 7 7 U P L I w : : < L L L L L r r L L L >   + 2 5 7 7 7 7 7 7 7 7 7 7 R +.a 7 7 7 7 7 7 ",
"7 7 7 7 7 7 7 7 7 7 7 7 7 7 7 7 7 7 7 7 7 7 2 U P L L , : $ < L L L w 0 r P P L L @   X 2 5 7 7 7 7 7 7 7 7 7 7 5 R X.a 5 7 7 7 7 ",
"7 5 7 7 7 7 7 7 7 7 7 7 7 7 7 7 7 7 7 7 7 7 8 Y L L L , : : < L L w : , Z L L L 0 .   + 5 7 7 7 7 7 7 7 7 7 7 7 7 5 k +.a 5 7 7 7 ",
"7 7 7 7 7 7 7 7 7 7 7 7 7 7 7 7 7 7 7 7 7 2 p / L L r < : : < r e , : , r P r L w     + 5 5 7 7 7 7 7 7 7 7 7 7 7 7 7 R +.a 5 5 7 ",
"7 7 2 7 7 7 7 7 7 7 7 7 7 7 7 7 7 7 7 7 7 7 Z Y r r w : : : < P r > $ , r r L L w .   + 2 5 7 7 7 7 7 7 7 7 7 7 7 7 7 7 R ..l h i ",
"7 7 7 7 7 7 7 7 7 7 7 7 7 7 7 7 7 7 7 5 7 7 p ^ L r < : $ : < r e , $ , r L L P w     . ; 5 5 7 7 7 7 7 7 7 7 7 7 7 7 7 5 n g.z...",
"7 7 7 7 7 7 7 7 7 7 7 7 7 7 7 7 7 7 7 7 7 7 Z Y L r : $ : : : w 0 : : , r w e r 0 .     $ 5 5 7 7 7 7 7 7 7 7 7 7 7 7 7 5 l z. Xo.",
"7 7 7 7 7 7 7 7 7 7 7 7 7 7 7 7 7 7 7 7 7 5 p / L w > : : : : w < : $ , w > 0 P w .     # 7 7 7 7 7 7 7 7 7 7 7 7 7 7 7 5 i ..5.T ",
"7 7 7 7 7 7 7 7 7 7 7 7 7 7 7 7 7 7 7 7 7 5 Z Y L w : : : : : 0 < : : , w , > e 0 .     $ 7 7 7 7 7 7 7 7 7 7 7 7 5 7 7 5 5 5 5 5 ",
"7 7 7 7 7 7 7 7 7 7 7 7 7 7 7 7 7 7 7 7 7 8 P P r < : : : $ $ , , : : , w : : r 0 X     $ 5 7 7 7 7 7 7 7 7 7 7 7 7 7 7 5 5 5 5 7 ",
"7 7 7 7 7 7 7 7 7 7 7 7 7 7 7 7 7 7 7 7 5 8 / L r < : $ : : : : : : $ : , : : w q .     $ 5 7 7 7 7 7 7 7 7 7 7 7 7 u 5 5 5 5 5 7 ",
"7 7 7 7 7 7 7 7 7 7 7 7 7 7 7 7 7 7 7 7 7 8 ^ L L , * : : $ : : : : $ : : : $ < w       $ 5 5 8 5 5 5 7 7 7 7 7 7 7 7 7 7 7 7 7 7 "
};
