/* XPM */
static char *download1680228888[] = {
/* columns rows colors chars-per-pixel */
"40 40 39 1 ",
"  c white",
". c gainsboro",
"X c #A1A2A1",
"o c #A2A4A1",
"O c #A2A3A1",
"+ c #A5A6A5",
"@ c #EAEAEA",
"# c #A3A4A3",
"$ c #104124",
"% c #0C572E",
"& c #0C562D",
"* c #0C572D",
"= c #1D3F2E",
"- c #C8C7C7",
"; c #A4A6A3",
": c #0E582F",
"> c #04743F",
", c #04733E",
"< c #04743E",
"1 c #1E4F39",
"2 c #C9C7C8",
"3 c #0E562E",
"4 c #04713D",
"5 c #04723E",
"6 c #1E4E39",
"7 c #A4A5A3",
"8 c #0E572E",
"9 c #04723D",
"0 c #C8C6C7",
"q c #A8A9A8",
"w c #1E402E",
"e c #1F5039",
"r c #1F4F38",
"t c #2A4037",
"y c #CACACA",
"u c gray92",
"i c #C8C7C8",
"p c #CBCACB",
"a c #F3F3F3",
/* pixels */
"                                        ",
" .XoOOOOOOOOOOOOOOOOOOOOOOOOOOOOOOOOO+@ ",
" #$%&&&&&&&&&&&&&&&&&&&&&&&&&&&&&&&&*=- ",
" ;:>,,,,,,,,,,,,,,,,,,,,,,,,,,,,,,,,<12 ",
" ;3,44444444444444444444444444444444562 ",
" ;3,44444444444444444444444444444444562 ",
" ;3,44444444444444444444444444444444562 ",
" ;3,44444444444444444444444444444444562 ",
" ;3,44444444444444444444444444444444562 ",
" ;3,44444444444444444444444444444444562 ",
" ;3,44444444444444444444444444444444562 ",
" ;3,44444444444444444444444444444444562 ",
" ;3,44444444444444444444444444444444562 ",
" ;3,44444444444444444444444444444444562 ",
" ;3,44444444444444444444444444444444562 ",
" ;3,44444444444444444444444444444444562 ",
" ;3,44444444444444444444444444444444562 ",
" ;3,44444444444444444444444444444444562 ",
" ;3,44444444444444444444444444444444562 ",
" ;3,44444444444444444444444444444444562 ",
" ;3,44444444444444444444444444444444562 ",
" ;3,44444444444444444444444444444444562 ",
" ;3,44444444444444444444444444444444562 ",
" ;3,44444444444444444444444444444444562 ",
" ;3,44444444444444444444444444444444562 ",
" ;3,44444444444444444444444444444444562 ",
" ;3,44444444444444444444444444444444562 ",
" ;3,44444444444444444444444444444444562 ",
" ;3,44444444444444444444444444444444562 ",
" ;3,44444444444444444444444444444444562 ",
" ;3,44444444444444444444444444444444562 ",
" ;3,44444444444444444444444444444444562 ",
" ;3,44444444444444444444444444444444562 ",
" ;3,44444444444444444444444444444444562 ",
" ;3,44444444444444444444444444444444562 ",
" ;3,44444444444444444444444444444444562 ",
" 78<99999999999999999999999999999999,10 ",
" qwerrrrrrrrrrrrrrrrrrrrrrrrrrrrrrrrrty ",
" ui2222222222222222222222222222222222pa ",
"                                        "
};
