/* XPM */
static char *_84e804095854287af825827a40b5fd1ZB9ztcmaqFdd4GRA[] = {
/* columns rows colors chars-per-pixel */
"65 65 154 2 ",
"   c black",
".  c gray1",
"X  c gray6",
"o  c #101010",
"O  c #0B0B0B",
"+  c gray10",
"@  c gray22",
"#  c gray23",
"$  c #3A3A3A",
"%  c gray18",
"&  c gray8",
"*  c #0C0C0C",
"=  c #1E1E1E",
"-  c #373737",
";  c gray15",
":  c #252525",
">  c #2C2C2C",
",  c #3C3C3C",
"<  c #2F2F2F",
"1  c #0E0E0E",
"2  c #1D1D1D",
"3  c #393939",
"4  c gray21",
"5  c gray14",
"6  c #020202",
"7  c gray4",
"8  c gray13",
"9  c #2A2A2A",
"0  c gray19",
"q  c #040404",
"w  c gray12",
"e  c #010101",
"r  c #090909",
"t  c #282828",
"y  c #313131",
"u  c gray7",
"i  c gray2",
"p  c gray3",
"a  c #353535",
"s  c #161616",
"d  c #070707",
"f  c #120100",
"g  c #4D0500",
"h  c #3C0400",
"j  c #020000",
"k  c #150100",
"l  c #4E0500",
"z  c #380400",
"x  c #0A0100",
"c  c #2C0300",
"v  c #220200",
"b  c #010000",
"n  c #0C0100",
"m  c #2D0300",
"M  c #200200",
"N  c #191919",
"B  c gray20",
"V  c #181818",
"C  c gray16",
"Z  c #060606",
"A  c gray17",
"S  c #202020",
"D  c #0F0A04",
"F  c #1C1207",
"G  c #0A0602",
"H  c gray5",
"J  c #5F3E18",
"K  c #AB6F2B",
"L  c #50381D",
"P  c #111213",
"I  c #141313",
"U  c #343434",
"Y  c #323232",
"T  c #6A451B",
"R  c #BF7C30",
"E  c #876C4E",
"W  c #5F5F60",
"Q  c #5F5E5E",
"!  c #272727",
"~  c #69451B",
"^  c #BD7B30",
"/  c #8B7052",
"(  c #626263",
")  c #5D5C5C",
"_  c #5E5D5D",
"`  c #646363",
"'  c #626161",
"]  c #8C7153",
"[  c #6B6B6C",
"{  c #6C6B6B",
"}  c #6B6A6A",
"|  c #616060",
" . c #636262",
".. c #BE7B30",
"X. c #755A3C",
"o. c #434445",
"O. c #454444",
"+. c #474646",
"@. c #BE7C30",
"#. c #4C3113",
"$. c #343333",
"%. c #656464",
"&. c #333232",
"*. c #2D2D2D",
"=. c #313030",
"-. c #111111",
";. c #684319",
":. c #BD7A2E",
">. c #4B3112",
",. c #605F5F",
"<. c gray30",
"1. c #909090",
"2. c #BDAD9A",
"3. c #E3C6A4",
"4. c #5B5042",
"5. c #121111",
"6. c #6D6D6D",
"7. c #9B9B9B",
"8. c LightGray",
"9. c white",
"0. c #686969",
"q. c #575656",
"w. c #232323",
"e. c #A2A2A2",
"r. c #686868",
"t. c #1B1B1B",
"y. c #222222",
"u. c #F9F9F9",
"i. c #FBFBFB",
"p. c #3E3E3E",
"a. c #A0A0A0",
"s. c #F4F4F4",
"d. c #F7F5F2",
"f. c #FDF9F5",
"g. c #666563",
"h. c #353636",
"j. c #896C4B",
"k. c #CC975C",
"l. c #513D25",
"z. c #684218",
"x. c #BD7A2D",
"c. c #4B3012",
"v. c #151515",
"b. c gray11",
"n. c #6B461B",
"m. c #C17E31",
"M. c #4D3213",
"N. c #472E12",
"B. c #7F5320",
"V. c #33210D",
"C. c #010100",
"Z. c #020100",
"A. c #131313",
"S. c gray9",
/* pixels */
"                                                                                                                                  ",
"                                                                                                                                  ",
"                                                                                                                                  ",
"                    . X o o o o o O                                                                                               ",
"                  . + @ # $ $ $ $ % & *                                                                                           ",
"              . & = $ - ; : : > , , # < 1                                                                                         ",
"            . 2 3 4 5 + 6     7 8 9 # , 0 o                                                                                       ",
"          q w $ 4 + e             r t # , y u                                                                                     ",
"        i 8 3 , < .                 p ; # , ;                                                                                     ",
"        7 - , a s e                   d : , :                                                                                     ",
"        7 - a & e   f g h j k l z j     & , ;                                                                                     ",
"        7 - 0 .     x c v b n m M b     & # a N                                                                                   ",
"        7 - 0 q                         & # , :                                                                                   ",
"        7 - 0 q                         s # , :                                                                                   ",
"        7 - y p                       X B # $ 8                                                                                   ",
"        7 - $ 9 p                   e V # , C Z                                                                                   ",
"        p 0 # # A O Z 6 Z           o a # 3 S                             D F G                                                   ",
"          * % # $ 4 A V C H O O O 7 + # @ 8 q                             J K L P I I I I I I I I I I I I I u .                   ",
"          6 V - - - 4 U a Y Y Y Y Y a , t 6                               T R E W Q Q Q Q Q Q Q Q Q Q Q Q Q Q ; .                 ",
"          7 U @ % A ! ! ! ! ! ! ! C y , > o r                             ~ ^ / ( ) _ _ _ _ _ _ _ _ _ _ _ _ ` ' C .               ",
"          7 - # # - > ; ! > > > > y $ # $ $ A O                           ~ ^ ] [ { { { { { { { { { { { { } | `  .> q             ",
"        . + @ # # # @ % y $ # # # # # # # $ $ > *                         ~ ..X.o.O.O.O.O.O.O.O.O.O.O.O.O.+. .'  .` < q           ",
"        r 4 # # # # # # $ $ # $ $ # # # # 3 - 3 > 1                       ~ @.#.                          . $. . . .%.&.Z         ",
"      q = 3 # # # # # # $ - # $ @ # # # # $ @ - @ *.X                     ~ @.#.                            . =.'  . .| u         ",
"      r U 3 3 # # $ 3 # $ @ $ @ - # # # # # # $ - @ % -.                  ;.:.>.                              6 *.| %.,.u         ",
"      p Y 3 3 # # $ - # $ @ 3 - 3 # # # # # # # $ @ @ < 8 8 8 8 8 o   <.1.2.3.4.                                6 9 '  .5.        ",
"      r U # # # # $ - # $ @ 3 @ # # # # # # # # # $ @ - 3 $ , , # 6.7.8.9.9.9.0.                                  e ! q.u         ",
"      r 4 # # # # $ - # $ @ 3 @ # # # # # # # , A w.$ 3 3 $ # # @ e.9.9.9.9.9.r.                                    6 t.Z         ",
"      r 4 # $ @ # $ @ # $ @ 3 @ $ 3 # # # # # , w.Z y.$ # # # # 3 7.u.i.9.9.9.r.                                                  ",
"      r a 3 3 - $ @ $ $ @ $ $ - - @ # $ - 3 # # y.  i 8 @ @ @ @ @ , p.a.s.d.f.g.                                                  ",
"      p y - - - $ @ # $ - # $ @ 3 @ # 3 - $ , C d     i * * * * H q   t.h.j.k.l.                                                  ",
"      e -.a 4 - $ $ # $ - # # # 3 @ # 3 @ # , ! .                         z.x.c.                                                  ",
"    e d o 4 - - # # # 3 - # # # 3 @ 3 @ # # # 3 w                         ~ @.#.                                                  ",
"    Z t a $ - - # # $ 4 - # # # 3 @ 3 @ # # # , 5                         ~ @.#.                                                  ",
"      H 4 # $ - $ # $ - - # # # 3 @ 3 @ # # # , 5                         ~ @.#.                                                  ",
"      p a $ $ 4 - # # $ - # # # 3 @ 3 - $ # # , 5                         ~ @.#.                                                  ",
"    6 s 4 @ $ - - # # $ - # # # 3 @ $ - @ # # , 5                         ~ @.#.                                                  ",
"    p U # @ $ $ - # # $ - # # # 3 @ # 3 @ # # , 5                         ~ @.#.                                                  ",
"    r a # $ - $ - 3 # $ - # # # 3 @ # 3 - $ # B s                         ~ @.#.                                                  ",
"    r 4 , $ - $ @ - # $ - # # # 3 @ # $ - @ , :                           ~ @.#.                                                  ",
"    q w 3 $ - 3 $ - # $ - # # # 3 @ # # 3 @ , :                           ~ @.#.                                                  ",
"    q 8 3 # @ - $ - 3 $ - # # # $ 3 # # 3 @ , 5                           ~ @.#.                                                  ",
"  i w.$ # # $ - $ @ - 3 - # # # $ 3 # # 3 @ # B v.                        ~ @.#.                                                  ",
"  . N @ # # $ - @ $ - $ - # # # 3 @ # $ - @ # , 5                         ~ @.#.                                                  ",
"    p U # # $ 4 4 - - 3 - # # # 3 @ # 3 - $ , > O                         ~ @.#.                                                  ",
"    6 v.- # $ - 4 4 - - - # # # $ @ # 3 @ # , : e                         ~ @.#.                                                  ",
"      p 4 # # 3 4 - 3 $ $ # # # # $ $ - - @ # - b.                        ~ @.#.                                                  ",
"      r 4 # # $ 4 4 @ # # # # # # # 3 - 3 @ # , 5                         ~ @.#.                                                  ",
"      r 4 # # $ - 3 @ # # # # # # # 3 @ 3 @ # , 5                         ~ @.#.                                                  ",
"    e o 4 @ $ $ - $ # # # # # $ @ $ - @ 3 @ # , 5                         ~ @.#.                                                  ",
"    p Y $ - - $ - - $ # # # # $ @ 3 @ # 3 @ # , 5                         ~ @.#.                                                  ",
"    r a # $ - $ $ - - # # # # $ @ 3 @ # $ 3 # , 5                         ~ @.#.                                                  ",
"    r a # $ 4 - # $ @ # # $ # 3 3 $ 3 # # # # , 5                         n.m.M.                                                  ",
"    r 4 , $ - @ # # # # $ @ $ 3 # # # # # # # U V                         N.B.V.                                                  ",
"    i : 3 $ - # # # # # $ - # # # # # , # # , :                           C.Z.b                                                   ",
"      r 4 # 3 # # # , # $ - # # # , B A , , B v.                                                                                  ",
"      r 4 # # # , a ! $ $ - 3 # , B v.7 = w A.                                                                                    ",
"      q = 3 # # a S.1 @ # 3 3 # Y &                                                                                               ",
"        r 4 , a s   i S.8 $ # , C e                                                                                               ",
"        7 a # < .       q = $ 0 o                                                                                                 ",
"        . -.A.X e         q u H                                                                                                   ",
"                                                                                                                                  ",
"                                                                                                                                  ",
"                                                                                                                                  ",
"                                                                                                                                  "
};
