/* XPM */
static char *_026ea8fbcb443b992e648b0e04d0d91L7ek3er7scxFZ4Er[] = {
/* columns rows colors chars-per-pixel */
"65 65 256 2 ",
"   c black",
".  c #010101",
"X  c #020202",
"o  c gray1",
"O  c #040404",
"+  c gray2",
"@  c #060606",
"#  c #070707",
"$  c gray3",
"%  c #090909",
"&  c gray4",
"*  c #0B0B0B",
"=  c #0C0C0C",
"-  c gray5",
";  c #0E0E0E",
":  c gray6",
">  c #101010",
",  c #111111",
"<  c gray7",
"1  c #131313",
"2  c gray8",
"3  c #151515",
"4  c #161616",
"5  c gray9",
"6  c #181818",
"7  c #191919",
"8  c gray10",
"9  c #1B1B1B",
"0  c gray11",
"q  c #1D1D1D",
"w  c #1E1E1E",
"e  c gray12",
"r  c #202020",
"t  c gray13",
"y  c #222222",
"u  c #232323",
"i  c gray14",
"p  c #252525",
"a  c gray15",
"s  c #272727",
"d  c #282828",
"f  c gray16",
"g  c #2A2A2A",
"h  c gray17",
"j  c #2C2C2C",
"k  c #2D2D2D",
"l  c gray18",
"z  c #2F2F2F",
"x  c gray19",
"c  c #313131",
"v  c #323232",
"b  c gray20",
"n  c #343434",
"m  c #353535",
"M  c gray21",
"N  c #373737",
"B  c gray22",
"V  c #393939",
"C  c #3A3A3A",
"Z  c gray23",
"A  c #3C3C3C",
"S  c gray24",
"D  c #3E3E3E",
"F  c #3F3F3F",
"G  c gray25",
"H  c #414141",
"J  c gray26",
"K  c #434343",
"L  c #444444",
"P  c gray27",
"I  c #464646",
"U  c gray28",
"Y  c #484848",
"T  c #494949",
"R  c gray29",
"E  c #4B4B4B",
"W  c #4C4C4C",
"Q  c gray30",
"!  c #4E4E4E",
"~  c gray31",
"^  c #505050",
"/  c #515151",
"(  c gray32",
")  c #535353",
"_  c gray33",
"`  c #555555",
"'  c #565656",
"]  c gray34",
"[  c #585858",
"{  c gray35",
"}  c #5A5A5A",
"|  c #5B5B5B",
" . c gray36",
".. c #5D5D5D",
"X. c gray37",
"o. c #5F5F5F",
"O. c #606060",
"+. c gray38",
"@. c #626262",
"#. c gray39",
"$. c #646464",
"%. c #656565",
"&. c gray40",
"*. c #676767",
"=. c #686868",
"-. c DimGray",
";. c #6A6A6A",
":. c gray42",
">. c #6C6C6C",
",. c #6D6D6D",
"<. c gray43",
"1. c #6F6F6F",
"2. c gray44",
"3. c #717171",
"4. c #727272",
"5. c gray45",
"6. c #747474",
"7. c gray46",
"8. c #767676",
"9. c #777777",
"0. c gray47",
"q. c #797979",
"w. c gray48",
"e. c #7B7B7B",
"r. c #7C7C7C",
"t. c gray49",
"y. c #7E7E7E",
"u. c gray50",
"i. c #808080",
"p. c #818181",
"a. c gray51",
"s. c #838383",
"d. c #848484",
"f. c gray52",
"g. c #868686",
"h. c gray53",
"j. c #888888",
"k. c #898989",
"l. c gray54",
"z. c #8B8B8B",
"x. c gray55",
"c. c #8D8D8D",
"v. c #8E8E8E",
"b. c gray56",
"n. c #909090",
"m. c gray57",
"M. c #929292",
"N. c #939393",
"B. c gray58",
"V. c #959595",
"C. c gray59",
"Z. c #979797",
"A. c #989898",
"S. c gray60",
"D. c #9A9A9A",
"F. c #9B9B9B",
"G. c gray61",
"H. c #9D9D9D",
"J. c gray62",
"K. c #9F9F9F",
"L. c #A0A0A0",
"P. c gray63",
"I. c #A2A2A2",
"U. c gray64",
"Y. c #A4A4A4",
"T. c #A5A5A5",
"R. c gray65",
"E. c #A7A7A7",
"W. c gray66",
"Q. c #A9A9A9",
"!. c #AAAAAA",
"~. c gray67",
"^. c #ACACAC",
"/. c gray68",
"(. c #AEAEAE",
"). c #AFAFAF",
"_. c gray69",
"`. c #B1B1B1",
"'. c #B2B2B2",
"]. c gray70",
"[. c #B4B4B4",
"{. c gray71",
"}. c #B6B6B6",
"|. c #B7B7B7",
" X c gray72",
".X c #B9B9B9",
"XX c gray73",
"oX c #BBBBBB",
"OX c #BCBCBC",
"+X c gray74",
"@X c gray",
"#X c gray75",
"$X c #C0C0C0",
"%X c #C1C1C1",
"&X c gray76",
"*X c #C3C3C3",
"=X c gray77",
"-X c #C5C5C5",
";X c #C6C6C6",
":X c gray78",
">X c #C8C8C8",
",X c gray79",
"<X c #CACACA",
"1X c #CBCBCB",
"2X c gray80",
"3X c #CDCDCD",
"4X c #CECECE",
"5X c gray81",
"6X c #D0D0D0",
"7X c gray82",
"8X c #D2D2D2",
"9X c LightGray",
"0X c gray83",
"qX c #D5D5D5",
"wX c gray84",
"eX c #D7D7D7",
"rX c #D8D8D8",
"tX c gray85",
"yX c #DADADA",
"uX c gray86",
"iX c gainsboro",
"pX c #DDDDDD",
"aX c gray87",
"sX c #DFDFDF",
"dX c gray88",
"fX c #E1E1E1",
"gX c #E2E2E2",
"hX c gray89",
"jX c #E4E4E4",
"kX c gray90",
"lX c #E6E6E6",
"zX c #E7E7E7",
"xX c gray91",
"cX c #E9E9E9",
"vX c #EAEAEA",
"bX c gray92",
"nX c #ECECEC",
"mX c gray93",
"MX c #EEEEEE",
"NX c #EFEFEF",
"BX c gray94",
"VX c #F1F1F1",
"CX c gray95",
"ZX c #F3F3F3",
"AX c #F4F4F4",
"SX c gray96",
"DX c #F6F6F6",
"FX c gray97",
"GX c #F8F8F8",
"HX c #F9F9F9",
"JX c gray98",
"KX c #FBFBFB",
"LX c gray99",
"PX c #FDFDFD",
"IX c #FEFEFE",
"UX c white",
/* pixels */
"    .   . X         o   $ =     2   > @ & o # A C / cXUXSXUXJXUXUXUXyX/ A J [ a . .   % o   # # o     O   O @         ,   . . X   ",
"; .   O @ O X *   . %         O   1 &   o y 3.UXUXjXUXUXbXUXJXUXHXUXUXDXUXGXHXaXn B %   $ - o   O $   O     X   & &     *     X   ",
"        X .     $   & .   $ .   8     X / NXCXUXUXHXUXUXUXUXPXSXUXDXSXIXUXUXUXUXHXAXY.@.D @   <   >   $       +   X     $     %   ",
"  $     6 Y <.,.o.T { #. .} ' X.  $ j E.vXDXLXUXDXPXHXKXUXPXUXUXUXUXHXUXFXUXFXKXPXUXAXUXDXL.V   u #.) &.X. .{ |  . . .&.o O       ",
"  o o 0 f r y , i 0 j f r y p V = o ~.UXUXUXUXGXUXUXUXUXUXZXPXUXZXUXKXUXFXUXPXUXUXUXHXIXUXJXT.8   u e h y p a e a e 0 c   # O o   ",
"&     z n . . # o # $   + =     4 %XUXBXUXBXUXUXBXIXLXUXUXUXJXGXUXUXKXUXFXIXKXUXAXFXUXUXSXUXUX{.u .   X     $   # O     G f O     ",
"    % ~ / - X   + +     ; +   1 .XvXUXIXUXUXNXUXUXUXPXGXKXUXUXUXAXAXFXUXUXUXDXPXUXLXCXUXHXHXUXKXS.% $ & X   > O + * #   -.D ,     ",
"  $   y y   #   - * # * >   , V.PXUXnXLXKXUXUXHXUXSXUXUXJXUXIXUXUXUXUXHXLXUXUXPXBXUXJXPXUXPXUXLXdXX o - %   *   X X O   i : X     ",
". . o S L #   % # . @ .   > L.UXHXUXKXLXGXUXUXUXKXLXUXUXmXUXUXIXGXUXVXKXKXAXUXIXUXUXMXFXUXUXUXHXUX1X9   - %   $ X     % ! S % .   ",
"  X $ U ! =   #   # %   2 ,.FXIXUXLXGXUXUXVXPXUXUXIXUXUXUXUXUXJXUXlXUXUXUXUXJXAXPXbXUXUXFXPXUXPXLXUXX.X =     @ = # # = R N X     ",
"o $   1 8   + * %   X < k.UXUXBXBXUXUXSXUXSXUXUXUXJXHXUXIXFXUXPXLXUXUXPXUXfXUXUXIXUXUXIXSXKXUXZXHXSX&X1 - : = o         f 5   %   ",
"    % | @.-   # X o O 5.bXUXmXUXUXUXMXUXUXJXUXFXUXUXHXUXLXLXUXPXGXUXmXUXLXUXGXDXIXUXDXAXLXUXUXfX=.UXUX-Xo O   O = + + , [ U -     ",
"  X   r s     + , %   OXUXAXLXFXUX.Xb.UXpXUXUXGXLXUXHXUXZXUXKXSXUXVXDXIX`.v qXUXHXMXUXUXUXT.e q.E.q @XUXr   % + .       N p       ",
"  > , x M 3 =     @ v.UXvXSXUXKX%X5.h.g.UXSXUXAXUXGXKXUXCXUXUXUXlXDXtXLX8XcX:.rXF.L.hXUXk.b.PX).BXIXDXNX+   @ . # $ % X n i @ 3   ",
"*     Q _     1 % z HXUXFXUXUX,X$.c.4.] a.KXVXUXDX4XUXPXUXZXiXMX/ -.0.s.@.IX*X| 2.t.UX/.;.JXyX} 5XhXUXlX7 3   o @     * } R @     ",
"  *   3 9 . # o o v.UXNXUX~.GXQ.u.6.Z.b   c.JXUX`.i.MXmXUX).4.5.% P v.i.f.a.v.=XoX>.J V.LX2X2.a.g.{ Q ZXu D % & O # #   i ,   ;   ",
"X     { | O   X 1 UX).oXv.+.Z.IX`.5.V.u X 6.s.UX&X:.UXUXR.s.+.    W b.u.p.w.t.UXUX-Xs.s.9X;.e.c.U   @ S _.N   O   & . + ..U . o   ",
"  & . z c + =   8 UXoXX.G.BXe.+X[.+.f.^ [ M.;. X/.7.u.tX% ( #.D / Q 7.-.V.9.0.i.JXCXUXc.=.a.j.x.~ P H @.z.` r   %   # = N j #     ",
". O   g j   @ . + >./.V.q.].y.6.e.t.y.z.;.* q.3.M.KXXXu $ d.t.M.p.6.J nX6XsXj.e.v.UXDXUXG.i c c.z.M.B.o.< M       & O   l q   <   ",
"  X =  .X.> O   s v.e.6.c.7.s.i.7.C.d.j.O     =.VXUXKX0.0.3.p.5.M.4.UXY.,.KX1X| xXUXUXbXUX2.c.$.5XUX2.m...C.. 5 o >   # <.'       ",
"O O   5 7   # O   d.8.a.-.eXUXHXBXUXw.r.8.. % w 5 $XM + & 4 > % r.t.G.r.q.T.` y.s.mX=X[ q.} x.y. .g.u.X.3XR.  +     #   5 =   *   ",
"  X O T E $ O   2.:.v.=.MXnX XVXPXK.>.j.r.<.    c x.V O     > m F.-.h.y.V.m   s.W.5.e.* >   w.-.9 :.g.aXf.q.D   + X o - ] I +     ",
"X     K P     X s.M.5.1XBXgX} zXQ.( N.r.i.U.Y l 6XP.kXP a     . I m.e.5.n.# ..UXUXF.g.o r N O y.c.q.x.SXt.@Xt.X   <     Q M   >   ",
"  *   8 0   ;   $ 4.w.>XUXUXaX*.g.UX7.a.p.f.| u iX`.7XF     @ o P i.v.r.9.M.VXIXPX~.6.u G.m X 5.e.x.4 E.@XGX1.. @ o +   d 9   .   ",
"+   . { } o   X 5 S.>.JXxX7.Q.0.UXdX-.k.n.( o X 8 m.*.3..   # T h.u.0.f.=.JX$.fXUXlX$.H.u.o.o { M.0.6XUXGX[.;   .   + 6 +.W &     ",
"  @   s d   @   1 #.<.oXp.c.6.r.[.u.f.a.#.@     <.6.Z.u.2X#XyXN.z.b.Q.xXuXLXU.s.FXj.# R , k # 8.t.s.V 4XPXpX XP         f 9   >   ",
"  O   v n   O   y d.x.;.p.6.9.d.3.l.7.2.K.&.: 9.g.k.u.r.S.UX,XUXDXDXVXUXUXKXUXcXwX< @ 7.  2 8 y B.j   n.UXi.q.6.    X $ P x       ",
". o + ~ / % +     E m.c.4.G.p.8.F.o.B.P.M y.9.s.h.>.C.$.>.c.2.yXFXhXNXAXaXUXUXDXZXH   f 2 1.y.X %.f.  K y.C.L.A.t *   O ( Y -     ",
"X o   5 7   @ X q S.u.0.s.2.g.j.r.w.G.Y O 2.u.t.l.w.d.qXe.5.f.8.y.0.8.4.M F.7XUX=Xj % <.& f f.g g.z k wX&.>X=X3     +   i :   =   ",
"  O - [ } < $     + V.1.s.p.y.e.6.F.V + 2.MXm.d.p.q.UXPX*Xy.u.g.i.k.i.  X.n *XHXIX:Xe W v y.c.0 g.3.FXUXHXg.q.M 4     & O.) *     ",
";     v n   O >   j q.a.i.j.5.h.j.3.  ) zXUXs.8.e.MXKXUX#X1 :.f.5.s.o . f N.8XUXIXUX;XvXn.j.2XXXw.r.%XJXAXH I p   . # O m r   %   ",
"  &   y p O :   # ; j.r.j.7.g.6.-.  A dXUX,.e.d.IXMXs.L.&   + r.V.<.` b.+ ^.UXUX^.V.N.6XIX>XLXUXY.*.CXvXl   X + O X X   m u   @   ",
"+   O ) | %   #   F H.8.4.C.@ 8   ; X k.y.l. .bXUXGX_.O * O z BXUX+.:XLXvXxXK 7XUX:.x.:.FX0.).JXUXr.M.'   . 1   @ O   & ..W #     ",
"  - . < 8 # %   + + o.v.B.! # } g.p.e.l.9.<.I.B.g.F.y.n.g.n g.o.2.| [ d.R.L.. -.HXSXUXoXLX0.m.3X[ U.  O   @ 4     - &   y :   ;   ",
"+     E ) o   =   5   #.j.e...- =.z X.S M.6.m A J U } S L %   $ O   0 ,.-XCXm.GXmXwX).1.8.*.c.z.g.p.p   o +   *       + _ P #     ",
"o .   C K # . = &   * 0 1.k.X.    .   h Z.o.  $ >   o #   O 4 S k y - p.>.AXUXAXC A 2.2XS.<X3.>.d.0.I %   O q = O % + o L c       ",
"  * X w s * * X @ X     @ g.}     ; # I f.lXk.@ +         O 8 a.x.D.e w.~ 5 wXc.~ H UXUXUXE.r.VXp.n.u & >         & #   c e   &   ",
"    . I ! $   @   @   o +   p.1.@ . %   a UXCX*.o = & &.@.  *   k.0.I.d.,.  s 4XSXe.OXJXUXvX7.;X3.CXUXi   =   *       # [ T %     ",
"  + X l M $ . . ; > :     Z k.j.~ <.,     ! vXUXW     1 D.D   O 9 f.*.g.a * o 5.*X4...T.l.D.&.*.>.I.l.  -   2   # ; % . A d       ",
"  @ X z N #     o     o o   | O.j.X.: w @   o.MXKX:.p.3.J.; k 9 w * + 5     p   ;.C., v < a 3   =.k.1   @     @   o X   B d   &   ",
". . % W ) -   %   + @     @ +   * C.y.I.o R C.-.AXBX=.JXUXQ C.d.-.;     o f R.a.0.| [ m.p.8.  ...Xk.7.  $ &   1 X &   X _ D   @   ",
"X %   , 6   @ &     .     .       z [ Z j.h.g.u.M.bXUX<X1XE $ 1.    5 P d f.K =.X * $ 2 @.  +.M.DXUX&.  7 $     $   o X e 1       ",
"X   + _ | %   & + X . O O . X + o     + W 0 X.n.%.a.7X#.a.t   + # $ t.g.I.w   $     + X + X N D.A.;X6   &         :     =.!   %   ",
"  o   j b o   + & X . @ @ . X &   >   #   - e.e.j.r.7.k.b   =       ^ c Y   3 O   +       & ) r.p.D   ;   $ ; 3 $ X O O B s   .   ",
"  .   g x     X @     o o     @ X   ,     : 5.h.a.5.l.5.&.    ; #   =     %     @ @   , . ] d.I.UXE - 4         O   . . n i       ",
"o   + `  .%   * O .   o o   . O 1   o     x H.s.8.f.r.g.M.T           . 0 O   &         O y b.3.D.7     # O 4 %   ;     =.Q   $   ",
"+ =   2 9   $ - X + + o o + + X X 3   % m pXMX4.i.0.s.9.@.X : b K B   .     &   +   < <   [ u.k.T O   O =       =   $ @ u 5 .     ",
"    X I W @   o   X O     O X   .   +   4.AXz.|.Q.p.u.g.e @ a UX4Xo & X   + +     &   + @ k 9XZ.:.  o O   %   %   $     ( A   O   ",
".     H L . O o 2     = =     2 + O   . U u.#.dX:X>.g.Z.1X  ; &X).T * .   > X   * .   O w g.SXGXX   -   o . =   o < $ . T b   #   ",
"  %   w r   -   o     o o     o   X o   X.Z.1.w.d.w.h.!.PX+X6 1.&XUXZ.      #       >   e z.w.@X0   , X + O   % o   @ X q 2 o     ",
"X   . ] { # . o   + #     # +       O 1 <.g.r.j.6.j.X.eXLX9.B.=.xXmXHXl.&.5.  4 o = & 1 G c.4.UXs.= o     ;   .   :     -./   +   ",
"# %   i a   - %   # % X X % #   * 3   o x t.f.8.j.,.4 K.J.d.UXuXSXGXUXMX2.s.q           u 7 V jX)   , - : %   1 $ + $ O N d       ",
"  #   v n o *   o X X o o X X o X ;     O J 8.j.x.e.^ OXUXs.).UXu.J.lX5XK.P./ l r @ J J z.j.L.LX7.>         O   . . + X b p o +   ",
"    o | ..$     * .   # #   . *     : < #   G q.$.] H.1.UX1X..w.i.*.W.UX=XcXxX3XC.W.H.cXdXUXHXoXh   # 3 &   < +   >     O.Y   %   ",
". &   , 1   ; o & .   # #   . & + @ ,       &     > 4 6.u.8.y.c.t.n.z.L s 1XU ;X;X:X+.f.o. XHXC.>.+       o %   &   $ o e 1       ",
"  X # ( ` = @                   .     &   :   X &   e b.4.9.x.<.i.6.k.@.#.UXT.*.a.7.cX{.vX;XUXa.>.  $ X   @   o   +   X | T @ O   ",
"X   * h l ,   O   X # @ .     o + + + + + + + +   O 5 :.CXY.q.r.z.w.<.B.y.*XR.0.3.tXH.UX5X-XL.0. .>   o .   % X $ X   & z g %     ",
"# o @ , 8 q y d > < 3 7 9 8 5 3 1 1 1 1 1 1 1 1 w 3 1 q B =Xn 2.=.n.c.:.9.O.B.UXb.oX/ .XcX8.p.O.-   $ f r , > $ 1 6 9 w w : . X   ",
"  . X o 8 J X.%.r.,. ._ [ X.O.o.o.o.o.o.o.o.o.o.| T +.P %   pXT.h.X.c.m $ L.O.3XzX{ P.w.OX>.x.N.@ % b } |  .=.*.} }  .R u +       ",
"  O .   # u b v b r &     O # $                 O 4     . @ # Y n.N.k.K.^ ;.Z.Z h C.N |.KXr.i.C *   o +         .   + &     $ .   ",
"O O .           o .             o o o o o o o o   @ @ - @ X .   T T 4.IXsX=X(.2X3.6.@.UX2XO.f.-           + @   #         . @     ",
".     + $ + o +     O @ @ + + +                 *           :         B.U.lXoXUX X/.UXMXGX&XD.8   o + .         X   X .   O % O   ",
"X               O X           X . . . . . . . .     o & -   $ + $ @ O   : G w.j.UXFXFXBXUX%X  & o @ o         $   $ O             ",
"  . .     + o         o + O                     *   O     3           +   * I c.6.UXKXIX.Xa.A + O .     % O       $     @ #       ",
"                                                                    o   X   o n o ].k.>Xa u y                                     "
};
