/* XPM */
static char *ef9e0063733344fce04c0137c279d913TpQbl4X4H0nUe7Tk[] = {
/* columns rows colors chars-per-pixel */
"65 65 199 2 ",
"   c #2C373A",
".  c #35393A",
"X  c #35403C",
"o  c #2D3C43",
"O  c #333E43",
"+  c #383F44",
"@  c #2F4047",
"#  c #354144",
"$  c #3B4345",
"%  c #35444B",
"&  c #3B464B",
"*  c #37484E",
"=  c #3C494E",
"-  c #3A4750",
";  c #374951",
":  c #3D4C54",
">  c #3D4E5A",
",  c #364653",
"<  c #3F5056",
"1  c #3F505A",
"2  c #3F5260",
"3  c #414547",
"4  c #414649",
"5  c #424A4D",
"6  c #404F56",
"7  c #494E52",
"8  c #414E59",
"9  c #425057",
"0  c #4A5355",
"q  c #43525A",
"w  c #4C565B",
"e  c #46585F",
"r  c #4C595D",
"t  c #51565A",
"y  c #535A5D",
"u  c #545854",
"i  c #425461",
"p  c #4A5760",
"a  c #4C5D63",
"s  c #445863",
"d  c #535E62",
"f  c #595E62",
"g  c #4F6268",
"h  c #546165",
"j  c #5B6365",
"k  c #55646B",
"l  c #5A656A",
"z  c #57696F",
"x  c #5C6A6D",
"c  c #5C6C73",
"v  c #5E7177",
"b  c #5F7078",
"n  c #606469",
"m  c #636A6D",
"M  c #686C6F",
"N  c #626D72",
"B  c #696D71",
"V  c #647175",
"C  c #6B7476",
"Z  c #63747B",
"A  c #69757B",
"S  c #66787F",
"D  c #6C7A7D",
"F  c #757975",
"G  c #71767B",
"H  c #737B7C",
"J  c #767A78",
"K  c #627681",
"L  c #697781",
"P  c #677980",
"I  c #6B7C82",
"U  c #737D82",
"Y  c #787E85",
"T  c #6E8087",
"R  c #6F8088",
"E  c #768186",
"W  c #7B8385",
"Q  c #758389",
"!  c #7B868B",
"~  c #7D898C",
"^  c #7B8B92",
"/  c #7F9097",
"(  c #7F9098",
")  c #878E87",
"_  c #828689",
"`  c #838B8D",
"'  c #8A8C8C",
"]  c #86908F",
"[  c #8D928E",
"{  c #838D93",
"}  c #888D92",
"|  c #878F9A",
" . c #859195",
".. c #8A9395",
"X. c #85949B",
"o. c #8B969A",
"O. c #8E999D",
"+. c #8F9895",
"@. c #929493",
"#. c #91959A",
"$. c #929B9D",
"%. c #9A9D9C",
"&. c #97A09D",
"*. c #9AA49D",
"=. c #A4A59D",
"-. c #A8A89C",
";. c #8C97A0",
":. c #8E9BA2",
">. c #939DA2",
",. c #999EA1",
"<. c #959AA4",
"1. c #95A1A4",
"2. c #9BA2A4",
"3. c #9BA6AB",
"4. c #9FA9AB",
"5. c #94A1A9",
"6. c #9DACB3",
"7. c #A2A5A5",
"8. c #A3A9A5",
"9. c #A3ABAC",
"0. c #A8A9AA",
"q. c #ABB2AD",
"w. c #A3ADB2",
"e. c #ACAFB4",
"r. c #ABB3B5",
"t. c #A6B5BC",
"y. c #ACB6B9",
"u. c #AEB8BB",
"i. c #A7B2B4",
"p. c #B2B4B5",
"a. c #BBBCB5",
"s. c #B0B6BB",
"d. c #B1BABC",
"f. c #B9B9B7",
"g. c #BEC1BC",
"h. c #BEC0B5",
"j. c #C7CDBF",
"k. c #ADBAC0",
"l. c #B5BEC2",
"z. c #BABEC1",
"x. c #B5C1C4",
"c. c #BBC3C4",
"v. c #B6C4C8",
"b. c #BBC5CA",
"n. c #BCC8C6",
"m. c #BEC9D2",
"M. c #C3C6C3",
"N. c #C6CBC6",
"B. c #CACCC5",
"V. c #C3CBCD",
"C. c #CBCECA",
"Z. c #C4C5C9",
"A. c #CCD2CB",
"S. c #CBD2C7",
"D. c #D6D8CE",
"F. c #C4CED2",
"G. c #C8CED3",
"H. c #C5D0D4",
"J. c #CCD4D5",
"K. c #CCD5DA",
"L. c #CFDADE",
"P. c #C7D2D8",
"I. c #D3DAD4",
"U. c #DBDDD4",
"Y. c #D4DCDC",
"T. c #D9DFDF",
"R. c #D3D5D4",
"E. c #DBE1DE",
"W. c #D5E1D7",
"Q. c #E2E4DE",
"!. c #EBEADD",
"~. c #CFD9E2",
"^. c #D3DCE2",
"/. c #D6E1E6",
"(. c #DBE3E4",
"). c #DFE8E7",
"_. c #DBE4E9",
"`. c #DCE8ED",
"'. c #E3E6E2",
"]. c #E5EAE4",
"[. c #EBECE4",
"{. c #E5EBEA",
"}. c #EBEFEA",
"|. c #F1EFE3",
" X c #EDF2EC",
".X c #EBF1E7",
"XX c #F3F3E5",
"oX c #F5F5EB",
"OX c #F9F6EB",
"+X c #F7F9EC",
"@X c #FDFCED",
"#X c #FBF5E5",
"$X c #EDEFF4",
"%X c #EDF4F4",
"&X c #F2F5F1",
"*X c #F5FAF3",
"=X c #FEFEF3",
"-X c #F5FDFB",
";X c #FDFFFA",
/* pixels */
"6 6 6 6 : 9 9 9 : < 9 9 6 : 6 9 < ; q 9 6 6 q 9 1 ; q : e - 8 e : 6 6 6 5 : 5 9 : 9 < : < q > ; 9 : 6 : : 9 6 9 6 6 > 9 6 6 6 6 9 ",
"6 6 > 6 6 6 : 9 : : : 6 9 9 9 : : : : > & & & 9 < * g q * a 9 - 8 8 > : > 9 9 < 9 6 9 9 > : = q 9 9 9 9 6 9 : 6 6 6 6 6 6 6 6 6 9 ",
"6 6 9 6 6 6 6 9 9 9 9 9 9 9 9 q > 9 k h l j j = ; % o   & o & * % # & < q q 1 ; 9 6 = = 9 q 9 6 : 9 6 6 6 6 6 : < 6 6 6 6 6 < 6 : ",
"6 6 6 6 6 6 6 > 9 6 > : : : - * : % Z x.K.%X-X{.V.S.*.*.&.A.W.q.o.W j = # % * ; * 9 w 6 & : 6 = 6 > : 6 6 > 9 6 6 6 6 6 6 6 6 6 9 ",
"6 < 6 6 6 6 6 6 q - : r Z ! ^ Q T x x r j H r.V.M.M.c.c.Y.R.R.(.=X;X&XE.n.2._ C z &   > w 8 8 8 9 6 > 6 6 : 9 6 6 6 9 : 6 9 9 : 9 ",
"6 6 9 > 6 6 6 6 : k Q X.! P S I T / Q X.~ W ] n.[.;X=X*XU.U.S.U.@X=X=X=X;X;X;X;X-XS.o.h # % 6 6 9 9 6 6 : 6 : 6 6 6 < 9 6 : 9 9 : ",
"6 6 6 6 6 6 6 6 9 p k c Z Z P I v S v v T Z c c Q w.u.b.-X;X;X-X=X=X=X=XOX@X@X=X=X=X;X Xq.m 5 & : 6 6 9 9 6 9 : 6 6 : 9 9 9 > 9 6 ",
"6 6 6 6 6 < 6 6 : > : 8 p a d a g e g e e g c c z z c x o.9.3.c.=X=X=X=X=X=X=X=X@X@X@X=X;X-XJ.W * : 6 9 q 9 9 6 6 6 9 9 : : 6 6 6 ",
"9 : 6 6 6 6 9 > 9 9 9 9 : > w h a g k c S P P P c c P b b b c I l.).(.Q.;X=X=X@X@XOX=X@XOX=X=X=XC.H % , s : : 7 q 6 6 q & 9 6 : 6 ",
"9 6 6 9 6 6 6 6 : 9 9 9 < 9 e a Z D I I b z a r k P Z z K P I K U X.W _ Y.;X*X;X=X=XXX@X=XOX=X=X=X+Xc.x % 8 8 6 & q 6 > q 6 q = 6 ",
": 9 9 > 6 6 6 6 > 6 9 9 6 : q q ; e k a e s z S I b z S :.X.;.<.;.( X. .X. .9.b. X=X@X@X@X@X=X=X@X=X=X;X$.q - 8 q > 6 6 9 9 9 6 6 ",
": 9 9 : 6 6 6 6 9 6 : 9 6 : : > : > < p z P I S P p c ^ t.:.( b.( v c ;.l.S N I %X*X=X=XOX@X=X=X@XOX=X=X=X].{ & > 1 - 9 : 9 : q 6 ",
"9 9 : 9 : 9 < 6 6 : 6 6 9 9 9 9 9 : : a V I S c g g b S ^ ^ <.^.t.X.:.b.`.>.:.X.w.T.[.OX@X@X=X@X=X=X=X=X=X=X*Xq.& q 9 - q - 9 9 9 ",
"9 > : 9 9 9 6 6 9 6 6 6 6 9 q 9 : 9 9 : > 6 9 q ; I I Z S Z Z U E ~ 2.l.k.k.u.3. .C ] -X=XXX=X@X=XOX=XOX@X=X=X=X..# q 6 < > 6 6 6 ",
"9 : 9 9 9 : 6 6 > 9 9 : : > > = 6 6 6 6 9 q 9 ; q b c Z P P c I l.L.F.K.L._.^._.Y.x...n.-X;XOX@X=X=X@X=X=X@X=XOX Xy 6 q ; w 6 6 6 ",
"< 9 9 : 6 6 6 6 : 9 9 6 6 q 9 9 6 6 6 6 6 6 9 < < ; 1 c P I K 6.^.~.v.^.K.l.F.b.^.L.v.O.&..X=X=X@X@X@X=X=X=X@X=X;X2.O 6 q q - 6 > ",
"6 6 6 6 6 9 : 9 9 9 : : 9 9 6 6 6 6 6 6 6 6 6 6 9 9 9 e c h ! b.0.G.x.3.V.w.9.9.y.Y.P.m.>.V.;X-X=X@X@X@X=X=X=X@X@X].r ; q : : q 6 ",
"6 6 6 6 : 9 > 9 : 6 9 9 9 > 6 < 6 6 6 6 < 6 6 6 = 9 = ; * V F.k.2.r.d.r.r.r.d.x.w.x.`.m.x.r.g.=X@X=X@X@XOX@X=X@X@X=X] # q < > > 6 ",
"6 > 9 6 : 9 9 6 6 6 > 9 : : 9 9 6 9 6 6 > 9 6 6 9 q ; 1 :._.H.u.s.s.x.n.x.V.n.c.9.r.H.H.l.d.>.-X;X@X#X@X@X=X=X=X@X;XV.& q > - 6 6 ",
"6 6 6 6 9 9 : 6 6 6 9 9 9 9 9 : 6 > 6 6 9 9 : 6 q < 9 3.H.l.G.b.s.b.d.9.r.u.d.V.y.n.H.b.v.x.i.x.*X=X@X@X=X=X@X@X=X=X*XN - 8 6 9 6 ",
"9 > 6 6 9 9 > 6 6 6 6 : 9 9 6 6 6 6 : 9 6 6 6 : * % l x.U K._.F.p.F.y.9.u.u.u.x.f.V.H.r.v.u.v.^ [ ].@X@X@X=X=X=X=X@X=X2.# e 6 - 9 ",
"6 6 6 6 : 9 9 6 6 6 6 6 : : 9 6 6 < 9 9 6 6 9 9 r : q x I K.^.l.w.c.9.u.d.x.u.4.x.V.d.d.n.v.k.^ @.*X=X@X=X=X=X=X=X+X=XS.& 8 q - 6 ",
"6 6 6 6 9 9 : 9 9 6 6 6 9 < 6 6 6 6 9 : > 9 : 9 & q > % k w.F./.r.d.i.l.r.d.x.c.b.F.n.P.x.6.X.I y.-X@XOX=X@X@X=X;X@X@X Xm - q : 6 ",
"6 6 < 9 : : 9 6 > 6 6 6 6 6 < 9 6 6 9 : 9 9 : 9 q - : 1 > d k u.b.u.u.y.x.u.y.l.b.H.b.H.~ Z Z v 2.;X=X=X=X=X=X=X=X=X@X=Xo.% 6 q 6 ",
"6 : 9 9 6 6 6 : < < < ; ; 9 9 : 6 6 : 9 9 9 > 6 6 w 6 6 6 : - S Z E v.u.y.u.x.0.k.:.:.^ v S S Z v t.{.=X@X@X@X=X=X@X@X;X#.% q : 6 ",
"6 6 9 : 6 6 6 6 : : 9 q q 9 9 9 6 > 6 6 : : 9 q q * & q q 9 * : * # N 2.y.y.%.2.X.H v Z I S Z S Z D $.oX=X=X@X=XOX=XOX;X3.O 6 6 > ",
"9 : 9 > 6 6 6 6 9 5 : 6 : : : 9 9 9 9 9 9 9 6 : = e > - * : q r y j U j #.$.2.@.o.` C V P Z Z S K T 9.=X=X=X=X=X@X@X=X*XW ; 9 6 6 ",
"9 6 6 9 < 6 6 6 : 6 9 6 9 q < > : : : 9 9 q 9 9 = 5 q y j E { j ` o.$.2.,.2.@.,.*.%. .E c Z I b T Q J.=X=X@X=X@X@X#X=X].0 : : = 6 ",
": 9 : 9 < 6 6 6 1 < 9 < < < q 1 9 9 q 9 : : : * l ]  ...2.2.2.#.$.$.2.{ $.$.,.%.%.$.%.` A A L b ! ~ -X@X@X@X@X@X=X=X=XI.r : q q 6 ",
": 9 9 9 6 6 6 6 q > ; 9 9 = = = = 6 9 = : d S Q O.&.2.$.$.o.$.o.,.o.O.>.,.$.$.$.*.$.1.$.! b b ^ Q E *X;XOX=X=X@X=XOX-X9.< ; q = 6 ",
"9 6 6 : 6 6 6 9 : * & & 0 j j f V E  ...o.$.1.2.O.O.O. .,.$.o.1.O.O.o.$.O.$.#.<.$.o.$.>.! V I ;.S x o.A.;X=XOX=X;XXX%XC % q q = 6 ",
"9 > 6 9 6 6 6 > d _ s.D.+X;X].p.$.2.1.$.o.$.$.o.1.O.1.O.>.5.:.O.X.5.:.:.>.:.X.:.O.$.O.,.! Y X.P b I x ..&X;X=X=X}.*XV.w 1 < * 9 6 ",
"= 9 : > q = # W oX=X=X=X=X.X;XM.>.$.$. .%.$.! z y V W h ~ C D $.$.o.O.$.O.>.>.o. .1.:.$. .:.P S S S A E.=X@X;X{.}.*XW # q 8 8 6 6 ",
": 9 : e = $ o.-X;XQ.].) u j y y j ,.%.$.$.o.$.$.Y c r l y 6 # Y 2...$.1.O.O.o.$.&.o.1.o.<.Q S b S Z T }.;X=X!.'.*X].t 6 q : 6 q 6 ",
"< ; q & r g.oX[.B.r.d.d % > : % %.8.$.o.>.O.>.o.>.1.o...~  .x r $.2...O.o.o.1.$.O.O.O.:.O.U K Z v D Z x.'.E.].;X-X} & q 9 6 8 6 6 ",
"< 9 & D H.p.=.-.=.8.l.+ 8 ; a , A.a.] >.:.:.O.$.o.O.5.o.>.2.E r t o.$.$.2.o.O.O.o.1.O.1.{ I L S I v v 5.$X;X=X&Xz.& 6 - q q 6 = 6 ",
"< < = Q ..8.a.-.D.0.j 6 q > q o @.].%.+.<.:.O.>.1.o.O.O.>.O. .O.w 7 ~ ,.{ >.1.O.>.O.o.O.{ Z Z Z V S S m.$X}.{.I.h q q - 6 9 : 9 6 ",
"= < : q $ 2.S.D.M.4 5 - w 6 % q t T.U.[ #.<.<. .o.>.O.O.O.O.o.1.$.~  .<.>.>.o.O.O.>.O.O.Q L S S P v X.~.^.).V.x & q : 9 9 - 9 9 6 ",
"9 q ; : w r s.{.U % q 6 * 9 q q % ~ @Xh.%.} 1.O.$.O.O.o.1.O.O.o. .&.$.,.>. .>.:.o.>.:. .Z T L Z S l 6./.{.9.7 , q % 9 9 q : > 6 6 ",
"9 ; < w % 5 w h , < < 9 9 > > 1 i X j.=Xf.<.O.:.>.o.O.1...O.1.O.$.O.#.$.>.>.O.O.1...:.^ E c b Z x T 3.L.H O > 1 > q q = 6 q - > 6 ",
"9 < 6 6 > 6 6 6 q : : 6 5 6 : 1 > ; M *X=Xg.[ %.o.1.X.;.O.#.O.:.$.O.<.$.O.$.O.:.$.O. .X.6.X.{ ^ 3.P.w.a : < ; q 9 : : 9 q 9 : 6 6 ",
"< 9 6 6 9 6 6 6 : 9 9 > 9 q < < q >   J =XoXa.@.1...>.5.$.O.>.O.O.O.O.O.O.O.$.>...1.` o...o.w.u.^ k & : 9 9 q 8 : : : : : : 9 q 6 ",
"9 < 6 6 9 : 6 6 = < < % q > = 5 O w W a.[.=X=Xf.+.+.:.O.O.1.o.:.>.O.O.O.1.$.$.X.:. . .+.c.r.f + % 1 9 ; 9 q : - 9 q q 9 9 9 : : 6 ",
": 9 6 6 9 9 9 : 9 q ; s : # 0 C d. X=X=XXX|.OX;Xn.` O.1.<.` 1.X.:.O.O.O.O.:.O.O.5.! F 8.;X Xp.' r % # q > : q q : : : 6 9 q 9 : 6 ",
"6 6 6 6 : > 9 : q : 9 % d  .Q.=X;X=X=X=X=X[.OX=X;X8.x  .>.<.,.;.O.$.<.O.o.O.$.1.X.H H D.*X;X-X].K.9.C 9 % q q ; 9 9 6 : : 9 q < 6 ",
"6 9 > 6 9 9 9 9 ; q & m E.;X=X=X=XoX=XOX=XXX=X@X=XoXW V ! ,...<.1.O.$.>.>.>.O.o.Y m G 7.f.q.7.%.q.Z.s...N : @ s 6 9 q q 9 : : 6 > ",
"6 6 6 6 6 < : 9 i % l ;X*X=XXX=X@X=X=X@XXX+X=X@X@X=XM.C C N } { o. .{  .o.X.! Y C _ _ #.e.,.0.%.' ' 7.p.e.,.D = : : * 9 9 : > 9 6 ",
"6 6 6 6 6 9 : 9 i * H =XOX=X=X=X@X@XOXXXoX@X=X=X#XB.` Y Y B n Y D Y Y H C C G Y ..0.e.,.#.e.r.r.p.7.@...7.p.e.7.V a 6 : 9 6 6 9 6 ",
"9 < 6 6 6 6 6 6 q * r Q.=X@X=X@X=X|.XX@X=X;X*X0.H x m m N V y f M M M m B f y H _ _ _ ' F B _ _ Y _ ' M n _ W ' } m 5 - q 1 6 6 6 ",
": 9 6 6 6 6 > 9 < = = x =X;X@X=X=X!.[.[.'.B.F . r 7 7 7 7 w 5 7 7 t 7 7 t 7 4 y t t t y 7 4 t t t t y 7 5 y 0 y y 7 6 6 q q 6 6 6 ",
"6 6 6 6 6 6 9 9 < r < = `  X*X=X@X@X=XM.u $ O 5 & 5 3 3 & 5 & 5 & 4 4 & 4 5 $ = & 4 & 6 = + 6 & = $ & 5 = 5 $ = + 5 6 6 > 6 6 6 6 ",
"6 9 > 6 < 9 : : = & < < % h C.=X@X=X=X;XF + 0 : 6 7 4 4 4 6 9 5 6 7 6 6 7 8 7 6 6 7 - 7 8 7 6 7 6 7 6 6 6 7 6 5 7 8 8 6 * > 7 6 6 ",
"6 6 > 9 : 9 6 9 q > 1 1 1 : 7 S.=X+X;X;XI.5 q , 7 w 3 3 5 7 q 5 8 8 6 8 6 6 q 6 6 8 6 6 9 6 : 6 5 8 6 - 6 6 q 6 9 9 5 6 9 9 6 : 6 ",
"6 6 9 9 : 9 6 6 - q ; q 1 ; 9 & 8.;X;X+X;X` % q 6 0 3 3 5 6 9 = : : 6 8 9 - 6 9 6 8 6 - 9 : 6 9 8 6 6 9 q - 9 9 : : < 9 9 : > 6 6 ",
"6 9 : : 9 9 9 6 & q 9 6 < 9 q < % O.;X=X=X].7 - 8 0 $ 4 5 q 8 > 7 q - q 9 : q q 6 6 8 6 9 9 : 9 6 : q 9 q - 9 9 9 6 6 6 : : 6 7 6 ",
": 9 9 9 9 : > 6 p % q 9 - q 1 1 i # F @XOX=X9.O q q 3 4 = 8 : > > q 6 6 q 6 9 - 6 6 9 6 : 9 9 9 q - q - q q 9 6 < > < 6 6 8 6 > 6 ",
"6 6 > 9 9 : 6 6 8 > 6 6 6 > 6 6 6 a o +.;X=X=X=.$ 7 5 3 9 = e = > 6 6 9 : : 9 9 9 : 9 9 9 > 6 6 6 6 6 < 6 6 9 : 6 6 6 6 6 9 > 6 6 ",
"6 6 9 9 < 9 6 6 6 6 6 6 6 9 6 6 6 - 9 d  X=X=X;XJ.n . $ 9 q < = 6 6 6 6 9 9 6 > 9 : 9 : : 9 6 > 6 6 6 9 6 > 9 9 6 6 6 > 6 6 6 6 6 ",
"6 : 6 : 6 6 6 6 6 6 6 6 6 < 6 6 q > q X N.=XOX;XV.y 3 3 = q : < 9 9 > 6 : 9 6 6 6 6 6 6 9 9 9 9 6 > 9 : 9 : : 9 6 6 6 9 9 : 6 6 6 ",
"9 9 6 6 6 6 6 9 6 6 6 6 6 9 : 9 > q < & M.=X;XU.w 7 3 5 5 6 9 9 : 9 6 6 9 6 6 6 6 6 6 6 9 : : 9 6 9 9 : 9 9 9 9 6 6 6 6 9 6 9 6 6 ",
": : 9 9 : 9 9 > 6 6 9 9 6 6 6 6 < ; q X U.=X@X[ @ w $ 3 w : q : : 9 9 > 9 : 9 9 6 6 6 9 > 9 9 9 6 6 6 6 9 > 9 : 6 6 6 6 : : 9 9 6 ",
"9 9 6 > 9 9 : 9 : 9 > : 6 6 > 6 < < 9 *.=X;X].y w w 3 3 - 7 > - 9 9 : 9 : 9 9 > 6 6 6 > 6 9 : : 6 6 : 6 9 : 6 6 > 6 6 6 9 9 6 > 6 ",
"9 : 9 : 9 : 9 : 9 9 9 9 6 6 9 6 1 @ ~ -X&XY.C - 6 0 5 3 & q 9 6 9 : : 9 9 9 6 6 6 6 : 9 6 6 9 9 9 > 9 9 9 9 6 6 9 6 9 < : 9 6 6 6 ",
"9 9 6 9 6 > 9 9 9 : : 6 6 6 6 6 q ; q j m 5 - q 8 r $ 4 7 6 : 6 9 9 9 9 : : 6 6 6 < 9 9 : 9 : 6 6 9 9 : : 6 6 6 6 6 : 9 9 6 6 6 6 ",
": 9 < 6 6 6 6 6 6 6 6 > 9 6 6 6 : 9 : : * 6 q 6 6 w 4 5 6 6 6 6 6 6 6 6 6 6 6 6 6 6 : 6 6 6 6 6 6 6 6 6 6 6 6 6 6 6 6 6 6 6 6 > 6 "
};
