/* XPM */
static char *f5ef150a0e324f17d8984b30098c0cc3vrQAmwjHQuc3tUoF[] = {
/* columns rows colors chars-per-pixel */
"65 65 247 2 ",
"   c #0C0D03",
".  c #060A06",
"X  c #110D00",
"o  c #140F0C",
"O  c #0D1106",
"+  c #0D130C",
"@  c #071106",
"#  c #131202",
"$  c #1A1501",
"%  c #1D1B03",
"&  c #13150C",
"*  c #14190D",
"=  c #1B1B0C",
"-  c #1A1707",
";  c #0D1413",
":  c #141612",
">  c #151A13",
",  c #1B1D14",
"<  c #161C1A",
"1  c #1C1D1A",
"2  c #161618",
"3  c #0B0F10",
"4  c #221D03",
"5  c #231E0B",
"6  c #221E12",
"7  c #261F19",
"8  c #1C2115",
"9  c #1D221B",
"0  c #1A251C",
"q  c #1E230A",
"w  c #232104",
"e  c #24220C",
"r  c #2B2A0D",
"t  c #2A250A",
"y  c #31290E",
"u  c #232314",
"i  c #292514",
"p  c #2C2A15",
"a  c #22241C",
"s  c #242A1D",
"d  c #2B2B1C",
"f  c #282719",
"g  c #312E1B",
"h  c #322C16",
"j  c #2B311B",
"k  c #343214",
"l  c #33321C",
"z  c #3A361A",
"x  c #3A320E",
"c  c #1B1E22",
"v  c #1D2422",
"b  c #1F2824",
"n  c #232522",
"m  c #252A24",
"M  c #2A2C24",
"N  c #232729",
"B  c #252B2B",
"V  c #2B2D2A",
"C  c #292628",
"Z  c #312D22",
"A  c #302F2B",
"S  c #2C3125",
"D  c #2D322B",
"F  c #29342B",
"G  c #333424",
"H  c #3A3623",
"J  c #3B3B25",
"K  c #33342C",
"L  c #34392D",
"P  c #3B3B2C",
"I  c #393728",
"U  c #2D2D32",
"Y  c #262634",
"T  c #2D3332",
"R  c #2F3935",
"E  c #333533",
"W  c #353A34",
"Q  c #3B3C34",
"!  c #363A3A",
"~  c #3A3D3B",
"^  c #343638",
"/  c #403A1E",
"(  c #413E2A",
")  c #423D34",
"_  c #3D4227",
"`  c #3D4234",
"'  c #3D423C",
"]  c #36413B",
"[  c #3D411C",
"{  c #43432C",
"}  c #4B452B",
"|  c #494626",
" . c #514A2D",
".. c #434334",
"X. c #4B4B34",
"o. c #42443C",
"O. c #454A3D",
"+. c #4B4C3D",
"@. c #494636",
"#. c #524D37",
"$. c #585439",
"%. c #625E3E",
"&. c #6A643D",
"*. c #3A3A44",
"=. c #403E53",
"-. c #3E4341",
";. c #3D4945",
":. c #434542",
">. c #454A44",
",. c #4A4C44",
"<. c #4A4D4A",
"1. c #464849",
"2. c #4D524C",
"3. c #4D5146",
"4. c #525344",
"5. c #52554C",
"6. c #5A5A48",
"7. c #4E5554",
"8. c #545652",
"9. c #545954",
"0. c #5A5B54",
"q. c #5B5E5B",
"w. c #575A58",
"e. c #4B4E4E",
"r. c #645E47",
"t. c #625E55",
"y. c #5C625C",
"u. c #5C6255",
"i. c #5D614B",
"p. c #676549",
"a. c #726C48",
"s. c #6C6C53",
"d. c #666858",
"f. c #746D52",
"g. c #726C58",
"h. c #6F7057",
"j. c #797559",
"k. c #73714D",
"l. c #5A6564",
"z. c #686B65",
"x. c #6C7266",
"c. c #787867",
"v. c #767974",
"b. c #677679",
"n. c #5E5F64",
"m. c #837D5A",
"M. c #847F48",
"N. c #857C66",
"B. c #827E72",
"V. c #7D8075",
"C. c #7D825A",
"Z. c #88835D",
"A. c #92885C",
"S. c #898568",
"D. c #948C6D",
"F. c #958C66",
"G. c #9A946C",
"H. c #999566",
"J. c #8A8A76",
"K. c #948D75",
"L. c #9B9475",
"P. c #989678",
"I. c #A19869",
"U. c #A39C74",
"Y. c #A39D7C",
"T. c #A69C78",
"R. c #ABA47D",
"E. c #A9A578",
"W. c #B3AA7C",
"Q. c #ACA671",
"!. c #9EA06F",
"~. c #7B898D",
"^. c #9A9883",
"/. c #8B8F8B",
"(. c #A29C84",
"). c #9FA287",
"_. c #9DA193",
"`. c #ABA583",
"'. c #A4A28C",
"]. c #ADAB8B",
"[. c #AAA686",
"{. c #B3AC85",
"}. c #B3AD8B",
"|. c #B8AC84",
" X c #BBB284",
".X c #BBB48B",
"XX c #B8B589",
"oX c #AAA993",
"OX c #B2AD92",
"+X c #B6AF96",
"@X c #B6B394",
"#X c #BAB494",
"$X c #BDB993",
"%X c #BBB69A",
"&X c #BAB89B",
"*X c #AFB48B",
"=X c #BEBAA5",
"-X c #AEB0A8",
";X c #C3BB8C",
":X c #C3BC94",
">X c #C3BC9B",
",X c #C4BA94",
"<X c #C2BCA4",
"1X c #BCC1AB",
"2X c #CAC394",
"3X c #C5C29C",
"4X c #CAC49B",
"5X c #C9C597",
"6X c #D3CB9C",
"7X c #D3C89A",
"8X c #D2CE97",
"9X c #C4C3A4",
"0X c #CCC5A3",
"qX c #CECBA2",
"wX c #CCCAAC",
"eX c #C8C6AA",
"rX c #D3CCA3",
"tX c #D2CDAB",
"yX c #D9CEA2",
"uX c #DBD4AB",
"iX c #D8D4A8",
"pX c #CACAB4",
"aX c #D2CCB3",
"sX c #D5D2B4",
"dX c #DAD5B3",
"fX c #DAD8B9",
"gX c #CDD1A6",
"hX c #E2DBAC",
"jX c #E1D9A9",
"kX c #E3DBB3",
"lX c #E2DDBA",
"zX c #E9DEB4",
"xX c #DFE5B8",
"cX c #EBE2B5",
"vX c #ECE4BC",
"bX c #E7E3BA",
"nX c #F1EABD",
"mX c #E6E2AD",
"MX c #D9D5C2",
"NX c #E4DEC4",
"BX c #E8E6C6",
"VX c #F3ECC5",
"CX c #EEECD4",
"ZX c #F3EDD5",
"AX c #F9F7D6",
"SX c #F8F2CA",
"DX c #FFFDF9",
/* pixels */
"N c < v b 0 0 F s 0 D s n 9 W V C A ^ A ^ ^ ^ W E <.] >.;.] 3.5.y.5.y.y.x.u.x.h.u.x.z.y.l.;.w.e.7.;.*.-.-.! W ! ! B ! ! T *.^ U Y ",
"v < ; ; ; + * * * . @ . , 9 7 . C o   2 1 1 1 1 + > : + m ` F 0 s * ` 8 8 ` s 0 . @ s @ @ F @ ; @ @ . : 3 2 2 v < 3 2 3 . ; ; 2 Y ",
"b b b v 0 8 8 8 8 0 L m V V ^ 1 ~ A ~ ) ) ,.o.6 8 * s F 5.5.s n j u.i.` _ ` $.` x.O.0 u.~.V.;.] ] E B m B V V V b n T B Y b 2 c ;.",
"B B R ] ] ` F m 0 L ` L m n ! :.:.E 7 & E 0.z.d.d.` G _ i.O.O.S.i._.C.` i.6.i.i.5.x._ >.5.>.>.] >.W -.F <.~ <.] v U ! ^ R Y 3 ; l.",
"b F R ] ` ` F s 5.:.K V V ^ ~ 1.K 5.+.Z M u ) c.J.c.c.P.pX(.<XZXCXBXaXp.oXoX` h...6.V.` E o.A :.2.5.9.:.E 0 9 v -.1.1.! *.T < b b.",
"v F ` L L L S * v.u.E V E W C A L s.6.h ( c.OXNXAXAXwX}.sX}.0XNXsXwX&XP.BXxX].sXK.d.$.S ) E ) Q ' q.w.v.~ ' R 9.! *.;.! R T c c ~.",
"b F ` F F L F 0 x.V.d.e.1.8.) Q ..#.#.6.'.ZXNXY.aXBXBX0XSXrXrXkXdXBX].BXxX&XxXxXNXfXK.+.i I B.6.2.5.2.z.>.W m ! D F -.;.-.-.Y c ~.",
"0 b F 0 m ` W m V 9.1.) ) 0.~ m J r s.0XdXsXdX>X<XiXnX,XvX,X XvXBX4XR.AX.X3XCXBXlX<XaX=Xr.#.) ,.8.F W W d.! ! m B > B Y B R U v b.",
"0 S L 0 a M K 8.u.K W :.o.Q 8.) $ L.BXsXsXlXdXuXW.zX;XW.;X7X;XzXU.R.E.R.Y.rXbXbXbXBX>X(.CXK.) g >.' m 5.z.<.>.W v.y.v.y.1.! ^ v b.",
"8 ' O., * K V K <.W ) :.,.,.C H p.T.4XSXlX4XBXhXI.T.W.mX XyX7XyX XiXuXjX XR. X3XAX0XG.wXtXwX} g ` 3.' ' D 0 y.-Xx.w.y.2.! F ! < b.",
"s 9 9 8 m 9 : K s m K Q o.4.i s.kX0X;XjXVXuX2X XzXcXcXcX XyXnXcX;XAXSXzXyXyX6XXXXXG.4XdXdXAXD.j 5.` n 9 n 0 O.-X7.o.] -.<.1.w.b 7.",
"9 ' >.n a K A :.K A P I G I ,.<X,XvX;X&.,X2X&.7XcXzXnXjXyX;X7X7XU.vXuX>XhXVXVX7X;XT.VXdX3XP.].P.G m ' >.5.>.F v.<.1.:.<.2.;.q.< ;.",
", :.5.9 . o 1 1.1.M L ` G l K.CXzX;XyXI.A.2XW.U.nX,XjXzXjX:XnXAX|.,X|.>XVXzXcXnXnX5X!.$XqXgXdXwXL L u.u.z.w.V 9.W ' ' >.-.E w.0 ;.",
"9 9 a > 1 1 1 1.:.a Z _ H ( oXaXyX7X,XyXyXnXcXH.;X7X4XuX4XuX$X:X0X,X,X,XvXzXuXuX`.mX;XiXiXkXVXBXc.O.O.] 2.u.W ] >.E D E -.;.y.B -.",
"n E V 1 1.x.w.o.O.A ..I p i.^.`.Q.W. XjXyX8XjXW.|.VX,X`.`.dX`.}.>X.X<X|.4XuX4X.XuXbX8XuXVX5X5XxXJ.3.;.` ` 3.>.u.z.] W T ~ ] :.2 ;.",
"1 c m C o.:.m C a Z 3.I l ).9XdXyX;XQ.I.Q.I.H.I.H.A.R.uXuXlXiX,XrX|.zX>X;X.X.XjXmXnXhX5XuXbXqX&X^.3.o.,.' ! D V :.S >.W a < m 0 R ",
"n 1 a W o.I s > a , m I ( S.aXwXjXhX,X;X;X8X X;X8X2XXX;XW.;X6XW.7XrX4X4XiX5XG.mXmX8XhX7X|.`.L.OX-X5.` ` 5.o.C A 1 V ~ 7.^ v D 0 R ",
"A m a u s s 9 8 9 m V m a 4.eXfXuX7X;X|.yXyXW. X8X2XmXjX2X7X;XA.7X7X7XhXuX8XW.8XjX;XW.I.|.zXNXZXsX5.S s W Q W o.w.^ E W ^ ~ F 2 R ",
": :   . * j s * 9 V m a 6 l (.%XG.I.I.T.6XiX X2XvX2XrX2X2XcXcXcXI.U.Q.6X5X|.W.5XW.Q.;XI.;X|..X<X^.I I S f A q./.v.! ^ U ;.w.^ 0 R ",
"7 <.z.c.z.u.] * 9 E A G K l (.<X0XhXuX|.$X4XE.W.fXqX$X$XyXhXyX8XI.;XW.iXuX:X5XfX8X2X,XF.yXNXuX#X=XL d s m C E V 1.E ! ~ e.w.W v F ",
"& O.x.u.O.` ` F > W Q Q Q H [.ZXtX#X}.D.D.@XoXwXNXCX[.}.bXiXqX8X;XjXH.XXBXqX9XBXgXY.$X*XfX6XrXBX^.s S G K K E V n ^ T ~ 1.! R < B ",
"1 a 9 * * j ' 3.n W E o.P l g.<XY.| z k H P M +.x.^.j.(.xXgXiX:XW.mXL.5XAXeXj.h.h.% { S.sXtX5XgX).Q G M K W K n U :.V T ! V B : B ",
"m 2 * 8 m j S F D D n Q I Z h S.#Xk h { ( W 6 D L Q j {  .k.$XW.iXxXj.&.j.$.u I <...i...$.[.3X[.d.` 3.M & : n ^ U ' ^ R -.! B 8 U ",
"7 : 8 8 8 * j O.m n 7 K d J g ].9Xk h J M W C ^ ' V ..{ % $.*XE.@X&Xk.X.{ L Q z.w.A >.Q j j.E.*Xh...+.M L Q C a < C 1.~ <.7.b m B ",
"n , s d 8 8 F S @ 8 n W @.u { wXsX$.i P M W V c ^ ~ C 6.l S.fXfXwXh.#.P 4.>.~ ! Y Y *.Y 7 r.&XAXs.d f G O.E ^ :.w.~ T E ! ! T 0 B ",
"2 2 , , * q s s 9.0 : & 6 I s.+XaXs.p _ u 9.1.^ U ~ :.G ( oXxXBX1X@.g u d.:.:.^ *.Y *.Y ) 6 P.BXi.M L K Q E :.1.1.n B B . 1 E ; B ",
"C V s 8 8 8 8 s v.W K a C K.fXaXwXP.l j d 0.0 0 E :.d +.^.'.@Xj.B.d d ) P 5.w.U *.=.=.Y 1.) wXZXh.K ) L I Q ) m V ^ T C R ! E V B ",
"n V a = 0 q * 0 a n A M f J.ZX<X&X].J e +.u.@ F 8 , & '.CX^.S.@.t.DX-Xi = ) o *.c *.*.1.I c.{.L.s.s K E Q ) <.V m :.^ T w.w.R m V ",
"n M a , s s 8 m a >.E ) G 6.fXpX&X&Xk.r _ _ q _ G f h.pX_.+.6 h P v.1XP._ O _ ] ~ Y C :.s &XxXgX).` ` ` W Q 1.Q ! ^ ~ *.~ <.-.2 U ",
"C V s s s s 8 0 3.2.: Z Z p ^.tX&X*X@Xi.r q _ _ G s.'._.+.p i g ) & x.CXBXk.X.p ` V 1.~ ..9XgX*XZXz.Q L ~ I E A n F ~ ~ ! ! D < E ",
"a , 1 u 8 8 0 8 8.] : s K p r.K.wXdXSX9Xi.q r [ P.fX1Xj.J i ..7 7 I q h.xXxXZ.[ X.` W S S.sXiXgXsX6.d d ' W ~ :.3 m m m T B 0 > T ",
"7 > d K L ` O.` W m m n d g u r #.j.*XMX9Xk.[ !.gXeX1Xj j ..) d.7 ) [ k 3XgX3XC.s.4.d d.MXsXH.).J.o.Q S M > E q.<.n m V > s R : E ",
"# 3.c., > <.z.9.T n > ' K 6 = I q 8 r i.).xX$X}.#X}.D.h ( ( o :.8.) @.r S.XXG.dXlX9Xp.=XCXJ.p d O.j F ] R F F R u.z.9.o.+.4...8 E ",
"# s @.O.' 1.T m T + + ' P f 6 - ~ ' 0 f P.BXfXY.4X,XD.$ 7 - 8.MX<X4 $ $.m.}.3X{.VXNXlX9X6.P +.8 @ j F s ;.] F R @ 0 >.W ..6.p f K ",
"M = * ` >.z.w.z.2 8 d u = { j.#.> < 9 ` J.s.L.SXrXkXm.N.a.) '.=X%Xr.x #X0XG.U.a.[.fXZXK.L L o.9 j ] ` ] 0 0 ] ! R B ;.F W ..O O K ",
"O O & * + 9 > 9 V M f # $.'.aXD.S m W m X.# 4 m.tXY.uXzX`.,X@X:X,XwXF.rXiX3XP.qXm.J.K.f Q :.C ! 0 _ ` ` 0 < T N ! T 0 T ,.E f * V ",
"8 I 5.a + : s V L d q } ,XaXyX+XO.C M O A ) y f.>Xm.tXA.E.5X4XgXmX8XW.W.A.6XG.BXc.h 6.7 F V 0 F O.J.5.= ^ W 1 U Y ! N n A A U 7 K ",
"a >.J.d.O., & X f k 5 | W.,X,X<XJ.~ o.G f H $.<XT.Y.Z.&.E.!.5XQ.8XjXQ.2XXX`.`.<Xg.# 4.^ D b B ` oXCX=X) m ) U ! T *.e.N ^ z.A . V ",
"> 9 ! ! K m M O.l k % | N.W.W.;XS.P J - 5 H K.oXL.(.$X{.W.8XQ.Q.Q.8XM.W.kXa.%X=Xt.h ) , V S ] _.9XfXZXc.5 Q ~ E v c *.<.v._.:.: D ",
"1 : : a , S u d q r  .T.U.M.m.T.j.k r % z ( +XN.<XD.`.#XXXyXmXH.;XH.W.D.kXf.+X<XI = ..d S 9 ] 1XxX0XaXf.i ( f Q v.<.C *.7.! C 7 V ",
"1 C : a m 9 d d p ^.qXBXzXH.|.;XXXP.| r w | s.S.aX$.,Xm.<XaX0X%.8XgXgXk.[.N.6.<Xt.X H ( _ j _ ).XX|.H.k z u f G 1.m E M : a V , M ",
"a v.z.K # , S # _ 9XfXtX>XU.yXrXgXH.S.k.$.% t N.N.m.NXm.N.NXaXh iXZ.P.S.N.%X( (.K.$ 4.( [ q [ ).G.H.R.a./ % p ` a   : , , a > 8 V ",
"> 0.z.<.o.` G # c.pXaX&X>X|.0X|.!.!.gX$X,XN.y x ) ) }.r.N.NX<X/ +XOXS.=XN.N.h s.$.z $.4 [ P.wXXX5X XkXuX`.S.p.q = = 9 0 S 9   M M ",
"c 1 o 1 L D S j j c.oX@X#XL.>XtX!.5X3XE..XuXf.} $ y y t T.aXN./ /.^.6.'.) 4 ( $ 4 4 $ }.BXNXBX<X5XW.$XqX=XsXc.. , , a 9 a 1 O , V ",
"m 9 : @ > 8 8 s = j 6.p.4.7 / ) m.yXuX<X}.}.`.<XD. .t 4 | S.^.e @.5.S p j z k %.m.<X(.sXkX9XsXpX$X:X9XwX9XsXx., D : n 9 a ' Q : V ",
"1 7 m a s a 0 G S * q 8 ( / h 7 7 / ) N.<X#X,X,X>XtXD. .| w | J M q _ j l D.[.tX.X#X(.L.ZXMX(.L.p.Z.D.P.J.c.m > 8.B T E *.x.n.c V ",
"2 o , , , 8 S u.P 8 m o 7 7 Z ) 7 o 7 5 #.m.}.NX`..X:X[.S.z 4 t j X.X.p.P.*XiXxXG.Z.L.$.N.4.7 ) t % e j S K n R 1.^ *.*.1.n.1.7 C ",
"& s >.P 9 0 F d.u.a V 7 Z A C ) ) Z 7 7 5 r.r.L.0XG.U.[..X0XZ.#.p i.@X9X*XC.iX9XY.f.| 5 Z 6 2 ) - O p s , D D Y b T *.! -.*.c c m ",
"X G ' M o...` 8 V S 1 8.v.~ U C <.A , , f I { e f.F.D.VX3X0XkXF.| E.*X:XE.H.3XS.| { u L *.^ c U V < v ; 1 ~ v , m m m V m s 7 > m ",
"M 8 , q d & s a * , a V E 8.C ~ Q n 1 V o.@.I e   r S.K.,X}.vXE.W.F.A.E.Z.| x w % = = 1 B Y 2 N ;.b T ] . 9 m E , > a s a 6 6 : V ",
"& a s , 9 a S   K o.O M a Z a K K d s u u % e k k  .T.T.G.U.A.Z.:X3XR.C.S.&.# # e % d   1 ^ *.<.] V 2.v.s m n * , a S S , > a 1 m ",
"* W D = = Q 4.u d +.X Z f 6 Z Z p j k w w t z p.L.`.}.4XG.Q.&.F.{.$X$XH.[.gXS.[ w O g X = M E ) @...K 8 * c.v.* +   O > , a a > N ",
"> S 8 D K S ..M . ( ) $ X 5 $ 4 w y y t  .m.S.Y.>X}.G.E.&XL.a.%.&.P.Z.Z.3X0X].=Xp.X.#.r 5 - 6 i f 5 H p d = ..d.d.Q M W 2.w.' , n ",
"+ S > ] ..8 , # g N.K.6./ 4 y x w | Z.G.#XtXY.F.*XtX].k.%.w x z O %  .].<X@XqX%X$X].P.p.} 5 4 $ $ r #.4 ( p 5 I d.O.W Q ~ ` m + B ",
"0 2.* > 8 , f - t.<X}.,XD.a.D.T.T.L.,X{.`.$XT.U.&X[.z $ % e r % k q . k j.'.sX%XF.<X@XOXD.r.} y 4 x F.L.OXg.  e d f S K m m m v N ",
"+ 7.* + 9 a u - g.+XOXT.m.;XR.,X{.F.`.`.Y.P.r.( ( | i h ( l p f d r G z e s.&XK.m.sX>X<X#X,X0X>X|.F.rX0XfX#Xp i ..D S R ` R B ; v ",
"> >.8 : n 8 C 5 t.g.m.N.T.I.|.|.,X(.N.m.$.#.g 5 H i ) ) Z K E >.J...P d % e H S.j.L.>X<XT.T.lXuXyXW.T.T.wXOXh 5.@.M 9 9 0 v 0 ; v ",
"+ ! < : m 7 Z d 7 X t K.>X,X;XN.L.m.$.z h Z ( Z 6 7 +.A 7 , a K 0.4.@.+.P u d p X.} $.OX(.>X0XrXyXm.N.`.L.#.5 I m , < 8 < v b 0 v ",
"@ n + : , & a m ) - z +X>XtX,Xm.i i g 4 7 6 h 7 , A <.n n 2 1 n * 8 = d.d.f L p i - $ r.#.%.f.U.>XW.m.f.( 4 5   6 , 9 n < 0 0 0 c ",
"> n > a m , n C 7 #.c.(.(.#XI.y 5 5 6 # 7 7 A Z 1 ) ) 3 V N c 1 > * O 5.5., K Z 6 = 5 i 4 4 #.K.`.tXr.X 4 6 M 7 n n V B < > 0 0 v ",
"0 8 * a V 1 1 7 E = Q K.oXr.k % p d * & O d s 0 : ) K . v v < 1 a K m m 1 > C : a a d Z j u @.K.,XsXd.X Z Z 7 1.n b b b < 0 b > 0 ",
"* @   9 v 1 2 2 n 1 : f 4.i $ # O 8 & a 9 W 8 @ a 2.T 1 0 8 1 F , & a n , 7 7 c 7 1 1 o.u u j J.K.^.g.Z Z m : U N v v b 0 0 0 + 0 ",
"u * 8 m C C C C ^ E m W +.8 = j 0 s 0 S L O.' ` ` i.K L j m s ..K & 1 o.! 2 : N 1 a K <., s S c.p K I n , n B c B B B B 0 s b @ , ",
"d , f m a m C B C A 8 K S L d 8 s j L 0 ` ' >.L >.9.0 ` S F S o.W m m ,.1.C C N ^ W n.<.V F F o.a G 7 m ^ U ^ T B Y F R F ] F 0 > ",
"u 6 , u 1 , 7 1 , 1 , , = : , , , > * , 1 > > > 1 > 1 n , 8 n a a n V V m V ^ D ! Q E U E E U K K V ' E E V ^ V N N v U B B T 0 > "
};
