/* XPM */
static char *_f1751160e3442a2b14731dcfc932780D5EgnqQFyU1Sd592[] = {
/* columns rows colors chars-per-pixel */
"40 40 136 2 ",
"   c #BB0A63",
".  c #C3065E",
"X  c #C60764",
"o  c #CD0665",
"O  c #C50965",
"+  c #CC0965",
"@  c #CD076A",
"#  c #C70A68",
"$  c #CC096C",
"%  c #D20565",
"&  c #D10967",
"*  c #D4066A",
"=  c #DA066D",
"-  c #D40A6C",
";  c #DA096E",
":  c #CB126C",
">  c #D1126F",
",  c #CE0971",
"<  c #D40771",
"1  c #DD0673",
"2  c #D60B71",
"3  c #DC0A73",
"4  c #DD0779",
"5  c #DD0A79",
"6  c #CC1271",
"7  c #D51171",
"8  c #D71F75",
"9  c #DB1F76",
"0  c #DA1178",
"q  c #DA1B7A",
"w  c #E1056F",
"e  c #E10573",
"r  c #E00772",
"t  c #E20672",
"y  c #E10671",
"u  c #E10475",
"i  c #E00674",
"p  c #E10775",
"a  c #E20674",
"s  c #E30775",
"d  c #E20576",
"f  c #E20577",
"g  c #E00676",
"h  c #E00677",
"j  c #E10777",
"k  c #E30677",
"l  c #E00675",
"z  c #E00971",
"x  c #E00873",
"c  c #E00877",
"v  c #E00B77",
"b  c #E00877",
"n  c #E00778",
"m  c #E10778",
"M  c #E30678",
"N  c #E1067A",
"B  c #E0077A",
"V  c #E2077B",
"C  c #E40778",
"Z  c #E40779",
"A  c #E10778",
"S  c #E10879",
"D  c #E20878",
"F  c #E20879",
"G  c #E1087B",
"H  c #E00E79",
"J  c #E00E7B",
"K  c #E3087C",
"L  c #E10879",
"P  c #E31D7E",
"I  c #E51E7D",
"U  c #E91B7F",
"Y  c #E81E7D",
"T  c #D0247A",
"R  c #DE237A",
"E  c #E3217E",
"W  c #EC1B80",
"Q  c #EA1E81",
"!  c #E91F83",
"~  c #EB1E83",
"^  c #EC1E83",
"/  c #EC1F84",
"(  c #EB1F82",
")  c #EE1F8B",
"_  c #DE2A83",
"`  c #E22382",
"'  c #E62284",
"]  c #EC2083",
"[  c #E92185",
"{  c #EB2089",
"}  c #F0388E",
"|  c #E73691",
" . c #E63993",
".. c #E63F91",
"X. c #ED3D93",
"o. c #F33A95",
"O. c #F43C96",
"+. c #FD369D",
"@. c #F63A98",
"#. c #F63F9C",
"$. c #FA3898",
"%. c #F83B99",
"&. c #FA3B9B",
"*. c #FD399B",
"=. c #FC3A9B",
"-. c #FD3B9B",
";. c #F83C9A",
":. c #FA3D9B",
">. c #F93B9D",
",. c #FA3A9D",
"<. c #FB3B9E",
"1. c #FA3A9F",
"2. c #FC3A9D",
"3. c #FD399F",
"4. c #FD3B9E",
"5. c #FA3C9C",
"6. c #FB3C9C",
"7. c #FA3C9E",
"8. c #FB3D9F",
"9. c #FC3C9F",
"0. c #FE3C9F",
"q. c #F83C9A",
"w. c #FB38A0",
"e. c #FB3BA0",
"r. c #FC39A1",
"t. c #F93CA0",
"y. c #FA3CA0",
"u. c #FB3DA1",
"i. c #F93FA0",
"p. c #FC3CA1",
"a. c #EC4195",
"s. c #F04095",
"d. c #F744A0",
"f. c #FF4FAA",
"g. c #FD57A9",
"h. c #FF66BF",
/* pixels */
"f.o.@.@.:.:.$.-.-.-.-.-.-.-.r.3.&.&.&.&.:.&.,.7.,.,.t.t.t.t.t.t.w.w.+.w.w.i. .h.",
"8 O O # # $ X $ $ + @ o @ @ $ $ @ $ $ $ $ $ $ $ $ $ $ , $ , , , , , @ , , ,    .",
"` $ - 7 > 7 - 7 2 3 3 2 2 3 0 2 7 2 - 7 2 0 0 2 2 2 0 5 0 5 5 0 0 0 2 3 0 q 6 d.",
"P @ $ - - ; * ; = ; ; = = < - * - 2 ; - 2 - 3 3 3 2 2 2 2 2 2 2 4 1 2 1 3 0 # s.",
"Y - - ; ; 3 = ; y y 3 ; 3 1 1 1 3 ; 3 3 3 3 3 3 3 3 x 3 5 5 5 v 3 N 1 s 3 3 $ 7.",
"U * = ; = = = z = w w = = 1 = 1 = w 1 1 w w y 1 s 1 s 1 s 1 s x N N s N x 3 $ ,.",
"W = = ; = z = w w w e y t w 1 y y y y y y y s 1 f 1 e f f N s 4 C C N C x H , r.",
"U * = ; = z = w w = y y y y y 1 y y y x y z k s e 1 s 1 f 1 s s s s C C x S * t.",
"^ * 3 = 3 ; w y 1 1 = y 1 1 1 3 1 z y 1 s 1 N 1 1 f s 4 s S s 5 S s 1 f 1 5 $ #.",
"^ * ; - 3 * 3 = = y y 1 1 1 1 4 y 1 1 s 1 1 s 1 1 1 N 1 1 4 4 s N N 1 N 5 3 , 7.",
"! * 2 - 3 3 = 1 1 * 1 1 1 3 3 3 3 3 1 3 3 3 1 3 1 4 1 1 5 1 5 4 4 1 4 1 3 5 , i.",
"! - 2 * 3 = 3 3 1 1 1 1 1 1 3 5 3 1 5 1 3 1 5 1 4 1 4 4 N 5 N 3 N 4 1 5 5 5 $ u.",
"! * 3 - 3 3 3 = 1 1 1 1 1 1 1 1 s 1 1 4 1 1 1 1 N 1 S S N N S 5 5 4 s N 5 0 $ u.",
"~ * 2 = 3 = ; 1 1 1 1 1 1 1 1 4 1 s 1 s f 1 N s s 5 s x s 5 S N N N 1 N 4 5 , u.",
"/ * 3 * 3 = 1 1 1 1 e e 1 1 u u 1 s s s s 1 f s N s N N C S C S V V s k S J , u.",
"^ * 3 = 3 1 1 w = e e 1 1 1 u u f 1 s s s y f s N s C C C C C C V N s N S H - 0.",
"^ * 2 ; 3 = s = = e y 1 1 1 1 1 1 1 f 1 s 1 f N s 1 N N s 4 N S K 4 N N 3 5 $ :.",
"/ % 2 ; ; = y w e = 1 y 1 1 s s e s s y 1 f 1 u f 4 1 N N s x S K 4 S x 5 3 $ 0.",
"/ % 2 ; 3 = z = = e 1 1 1 1 3 1 1 f 1 f f 1 s 4 s 4 u N N x N S V 4 N S 3 5 $ 0.",
"~ % 3 * = = 3 = e = y 1 1 1 s 3 e 1 s 1 1 s 1 s 1 u N s S N S S 4 5 s S 3 3 $ s.",
"~ % 3 * ; = 3 = 1 = e e 1 1 3 1 s 1 s 1 s 1 s 1 N 1 s S s N S S K 4 N 3 3 3 $ @.",
"~ @ ; - = = = = = 1 e = 1 y = z 1 f 1 s s 1 1 N s N 1 N N x N S 4 4 4 s 3 2 $ :.",
"^ o ; - ; = 1 = = w e 1 3 = 1 3 1 1 y y 1 1 1 1 1 1 S x x S x S 4 4 N 3 3 2 @ @.",
"! o 3 * ; = = = = = e = y = 3 1 1 y 3 y 1 s 1 s s 1 1 5 S S x S 1 4 1 3 3 ; # &.",
"Y % 2 * ; = = ; ; = ; ; z = 3 = = y 1 = 1 1 s 3 3 N N 1 x 4 1 N 4 1 1 1 1 2 + :.",
"' % - * 3 = = = = = = = = ; 1 3 1 = 1 1 1 1 1 1 1 s 1 1 4 s s 3 4 2 4 < 3 2 # q.",
"Y o ; % z % - = = = = = 1 ; 1 ; = = 1 1 = 1 1 = 3 3 1 3 1 3 3 4 4 4 1 1 < 2 # O.",
"Y o - & ; - ; = = = = = = ; = ; 1 = = 1 = 1 3 = 1 1 1 3 3 1 3 1 4 1 4 3 ; 2 # O.",
"E % ; % ; ; ; ; = = = = ; = 3 = = = = 3 1 1 - 1 1 1 1 1 1 1 3 1 5 1 1 1 3 2 O O.",
"Y + & & ; & % ; = = = = = = = = = = = = = 1 1 1 = 1 < 3 1 5 3 3 5 3 3 3 ; - O O.",
"Y o ; & ; % % ; = = = = = = ; = = = = = 1 = 1 1 1 * 1 1 1 4 4 3 3 5 3 3 ; - X O.",
"Y o & % ; = % = = * = = = = = 1 = = = ; = = = * 1 1 1 1 1 3 1 3 S 5 3 3 - 2 O O.",
"Y o % % & % w % w % % w w w % w = = * = = ; 3 ; = 1 1 1 4 4 1 4 1 1 1 1 - 7 O O.",
"Y o % % w % % w % w w % % w w % = = = % = = = = = = 1 1 1 < 1 1 4 1 1 1 - :   X.",
"Y % ; % ; & & ; % w w w w w w & * - = = ; ; ; 1 1 1 < 1 3 1 1 4 4 4 1 2 - 7 # a.",
"Y . % . % % % & % % % % & % % % * o % * * * * * * * 1 < 1 < 1 1 1 1 1 < - :   a.",
"E . > + & & & & = = & & & ; ; & - - - - - - - ; 3 2 3 2 5 4 5 3 4 5 4 3 7 6   a.",
"E . & . & + + + & & & & & & & & + * * @ - - - = < 2 2 < 2 2 < 2 3 1 2 2 - :   a.",
"9 . . . + . + + + o & + & & & & o o o o * $ % - @ * $ - , $ < * < < < , $ :   a.",
"} 9 E 8 R E E E E E E E E E E R E Y E Y ' ' E E ~ [ ~ { ) ) ) ) ) ) ) ' ` _ T g."
};
