/* XPM */
static char *ff01441ae7bb44a9c9495d6d6174697cPpftQcHLF4X4qdjF[] = {
/* columns rows colors chars-per-pixel */
"40 40 238 2 ",
"   c #1F0700",
".  c #2B0D03",
"X  c #230A04",
"o  c #330E04",
"O  c #3B0D04",
"+  c #2E1004",
"@  c #271104",
"#  c #341204",
"$  c #3B1304",
"%  c #3C1509",
"&  c #3A1705",
"*  c #430D04",
"=  c #4A0E04",
"-  c #431505",
";  c #4C1606",
":  c #451A04",
">  c #4C1A05",
",  c #471609",
"<  c #4C1708",
"1  c #451909",
"2  c #4B1A09",
"3  c #541505",
"4  c #5D1503",
"5  c #531C05",
"6  c #5B1B05",
"7  c #531C0A",
"8  c #5C1D0A",
"9  c #4E1F10",
"0  c #641402",
"q  c #6B1402",
"w  c #631C05",
"e  c #6B1C04",
"r  c #631C0B",
"t  c #6B1E0B",
"y  c #751501",
"u  c #7C1301",
"i  c #731B03",
"p  c #7B1D03",
"a  c #4E2103",
"s  c #532106",
"d  c #5A2105",
"f  c #56210E",
"g  c #5B220B",
"h  c #5C2512",
"j  c #582717",
"k  c #642304",
"l  c #6B2405",
"z  c #642903",
"x  c #6D2904",
"c  c #64240B",
"v  c #6C240B",
"b  c #6C2A0D",
"n  c #742304",
"m  c #7C2404",
"M  c #732A04",
"N  c #7B2B03",
"B  c #73240B",
"V  c #7B240A",
"C  c #732A0C",
"Z  c #7B2A0B",
"A  c #7E3004",
"S  c #763002",
"D  c #632613",
"F  c #652814",
"G  c #6D2A14",
"H  c #6A2916",
"J  c #712411",
"K  c #7E2711",
"L  c #732B13",
"P  c #7C2C14",
"I  c #742F1A",
"U  c #7B2F19",
"Y  c #6D311B",
"T  c #743115",
"R  c #7E3316",
"E  c #7A351D",
"W  c #841600",
"Q  c #841C02",
"!  c #8C1C02",
"~  c #8C1700",
"^  c #931D01",
"/  c #9C1C00",
"(  c #A61D00",
")  c #842304",
"_  c #8C2303",
"`  c #832B04",
"'  c #8B2B05",
"]  c #84240A",
"[  c #8C240A",
"{  c #842A0C",
"}  c #8C2C0C",
"|  c #932403",
" . c #9B2302",
".. c #932B04",
"X. c #9C2B05",
"o. c #942B0B",
"O. c #9B2D0C",
"+. c #96250B",
"@. c #853102",
"#. c #8D3203",
"$. c #8C320B",
"%. c #953404",
"&. c #9B3405",
"*. c #9B3A04",
"=. c #93320C",
"-. c #9A310C",
";. c #9C390C",
":. c #953904",
">. c #832D15",
",. c #8B2E12",
"<. c #872311",
"1. c #922B13",
"2. c #9C2F12",
"3. c #8F3113",
"4. c #8E3619",
"5. c #8C3A1A",
"6. c #853516",
"7. c #933415",
"8. c #9B3413",
"9. c #95361A",
"0. c #9B361A",
"q. c #943A1C",
"w. c #9C3B1C",
"e. c #9B3A15",
"r. c #A32402",
"t. c #AD2501",
"y. c #A32B04",
"u. c #AB2B03",
"i. c #A72D0C",
"p. c #B32502",
"a. c #B42B02",
"s. c #BA2D02",
"d. c #B42D0A",
"f. c #B92906",
"g. c #A33304",
"h. c #AB3205",
"j. c #A43A03",
"k. c #AD3A03",
"l. c #A5340B",
"z. c #AC330B",
"x. c #AA3B0D",
"c. c #B43204",
"v. c #BE3205",
"b. c #B23B04",
"n. c #BA3D04",
"m. c #B2330B",
"M. c #BA350B",
"N. c #B23D0E",
"B. c #BC3C0A",
"V. c #A92F10",
"C. c #A33313",
"Z. c #AD3513",
"A. c #AB3A13",
"S. c #A33A1A",
"D. c #AB3B1B",
"F. c #A53917",
"G. c #B43512",
"H. c #BC3711",
"J. c #B43B16",
"K. c #BB3B15",
"L. c #BA3A1B",
"P. c #B53A19",
"I. c #883B25",
"U. c #9C3C22",
"Y. c #933F23",
"T. c #A23F23",
"R. c #AA3F21",
"E. c #BC3D21",
"W. c #C22E01",
"Q. c #C23303",
"!. c #C43A0B",
"~. c #C93C0E",
"^. c #C73A04",
"/. c #D33603",
"(. c #D53B06",
"). c #D83B06",
"_. c #C43B13",
"`. c #CB3B12",
"'. c #C33C1C",
"]. c #C93A19",
"[. c #AA4002",
"{. c #B94204",
"}. c #AC431C",
"|. c #A3411B",
" X c #BC411E",
".X c #B64417",
"XX c #994526",
"oX c #8A442F",
"OX c #AD4325",
"+X c #AC4B2C",
"@X c #A64829",
"#X c #B54524",
"$X c #BA4521",
"%X c #B84B2A",
"&X c #AF4F30",
"*X c #BA5234",
"=X c #B74D32",
"-X c #CB4404",
";X c #CB4A04",
":X c #C44708",
">X c #D94A05",
",X c #C2441C",
"<X c #C84417",
"1X c #DB4416",
"2X c #D4441B",
"3X c #D44A17",
"4X c #D8531D",
"5X c #E64A0C",
"6X c #EE5007",
"7X c #F25104",
"8X c #E44B1D",
"9X c #FF611A",
"0X c #C34524",
"qX c #C64B25",
"wX c #CD4924",
"eX c #C44B29",
"rX c #CC4F2C",
"tX c #D64C26",
"yX c #D84D27",
"uX c #CB502D",
"iX c #DC5127",
"pX c #D3532E",
"aX c #DB542E",
"sX c #CD4F30",
"dX c #CA5433",
"fX c #DB5531",
"gX c #D95934",
"hX c #D75533",
"jX c #EA4F22",
"kX c #E4532A",
"lX c #E9562B",
"zX c #E25127",
"xX c #E65A34",
"cX c #FE5F31",
"vX c #F55528",
"bX c #FC683C",
"nX c #FB6537",
"mX c #FD6940",
/* pixels */
"v 3 # 2 7 8 B % 7 8 1 8 J 4.L $ 2 8 B v ; C b > o $ 8 F 7 # > l J J o < < < 1 . ",
"o.-.l c F.F.A.c { P.T.Y w.hXpXS.- J.kX,X>.0X'.G.6 7.G.< 1 2.{ ] > N i r 2 V p q ",
",.>.T B A.S.q.b S.$XU.E w.rX%Xq.> .XiXiXe.'.L.C.N _.Z.,.L d.V.1.` B.+.r r [ Q p ",
"v L Y - L 5.E G F.OX@XT g +XXXR s +XqXzX{ S.U.6.6 } 1.U v 2.1.L ` M.<.r 5 m t r ",
"t o # - , % 2 5 ; D h 5 - f Y 1 : XX+X#Xs 5 D v 7 6 B g $ < 8 g 7 4 r 7 # ; 7 - ",
"m o 8 { 0.Y l P.XXT G rX,.O % 1.6 h h S.D.0.d F.E.$XK - ' [ 1 k ..J < w V 4 . d ",
"i B Z.= - 6.B.'..X5.OXaX>.> 9.lXD.w.b wXkXzXe.0X'.wX0.{.M.r C [.v.i.g +.r.6 N b.",
"0 3 e O & 6 G.,X X5.L +XXXL R.aXOXoXg }.uXzX7.q.0X].{ V p & 5 j.v.O.d i ] r Z ! ",
"< O t $ : % O >.9.6   h F $ O U.oXj ; 6.&XuXv r U.>.$ l e > a $ p [ - - 8 < , 4 ",
"8 i l.e 6 ,.,.; v U L - + F F < j 2 5 $ j L $ o % v c 2.' d n B O k 7 O X O * * ",
"| [ O.e ] Z.K.m }.xXlX} T bXbXqX> ,X<XT.L {.Z.>.b `.'.L.Z.' M.d.] o.u. .V ..^ Q ",
"[ [ +.3 >.,.0.r #XuX*X5.L gXdXq.Z lX0X@X6.3XL.U.R D.K.G.l.$.2.+.] ) r._ V _ Q p ",
"c { ] ; B 6.C $ L =XY.v D &X@XF c yX%XXXx Z.D.4.s d 7.P.} B 3.L > e [ v r n t r ",
"% - - o 2 2 . . # c c Z - 9 f & # 6 D G b t r % > 5 ; D - : 5 $ # : ; w r - $ $ ",
"L ` ] A.7.> %.N.}.P q.fXpX-.b dXqX8.- 4XhXfX9.@.-XF.C l.O.c.n #.k.X.m ..X.Q i n ",
"L [ p 8.7.k qXpX*XY 0.wXfXD.G xXfX}.b rXwXtX0.-X`.2.Z z. .t.` ;XQ. .v _  .| p e ",
"C ] } V v Z pXeX@Xv >.eX+X5.5 %X+XY.L OX#X0X{ g.`.8.k | X.[ x k.p.] v _ _ p 6 4 ",
": % < 7 5 8 K 5.E - % R Y h # 7 D D : s b U 1 6 ] B s ; 7 k w w i 6 > 5 < - $ . ",
"e m ` v 8.8.-.n d q.7.w ; N ` ;.G z e.C g M [.S.>.N :XC.} x.z.y.) M ' p e d N N ",
"^ ! +.] z.m._.y.] tXyXl.N 9XlXdXE .XnXnX|..XvXjX$Xx.`.d.z.h.a.a.p.y.u.r./ &.B. .",
") |  .e O.i.C.n v D.D.>.C nXdX+Xc |.gXcXe.=.qX8X<X$.Z.c.t.X.y. ._ N ) Q i #.m.W ",
"v ] ) * L P B - 2 U 6.; P lX=Xq.z $.#XaXq.x |. XK.5 B O.] c B v ; - r w o s X.q ",
"7 7 $ # > 2 # : s 5 $ : C P c ` z z g b $.x 2 a ` Z ] k d l 5 : z N : # k B 0 : ",
"u.{ ..h.` z ;.-X<X%.d <X1XiXw.4X3X:Xx ;X6X(.` *.5X!.(.` ;X/.X.#.>XQ._ z g.a.r.l ",
"Q +.z.C.,.v A.K.K.A.k D.1X1X8 D.2XK.m N.~.G.$.' H.v.v.' c.t._ m r.( ! l ) |  .w ",
" . .i.,.I v d.P.w.Y.$ 7. X1X3 N.G.3.Z g._.7.L x A.M./.X.u. .V 6  .^ e l M _  .i ",
"e 4 B G b ; t r d 2 + z 6.} $ v 2 > s d J c 5 a z b w > 6 w d : - - # - > : 5 $ ",
"$ ; d 2 > x c # # x M x $ M :.z 5 e.S.%.n x k.b.%.z :.X.o.C N g.n z *.j.n d *.&.",
"| !  .B ' c.v.' ;.5X^.b.M 5X5X^.n G.~.(.^.g.7X>XO.%.).p.a... .t.t.` {.c.r.m &.y.",
"Q ~ ^ 0 |  .O.n l.H.G.7.{ `.G.F.7 u.Q.v...*.).a.] n u.a.p. . . .Q d ' / Q 0 i ^ ",
"i m ! 0 e { V : V m.7.B r M.S.>.> o.V n 6 N d.n d : d n ) 6 4 4 6 : n 0 3 - * 0 ",
"# $ - O % 1 5 5 5 g , k > c g 6 d B : 1 k ` w : x M 6 x z k k s ' m 5 5 N m 6 3 ",
") w M @.%.M v B.h.B 5 l.M.J.) X.v.Q.) d c./.c.n k./.v.j.-X-X^.m | r.r.' {.|  .p ",
"! ' n.k.O.h p t.d.' n s.a.s.| _ a.W.| ' c.a.s.m g.v.s...;XQ./ w | / ! n | W W W ",
"Q ) y._ V 7 Q r.| x w  .r.s.| ) X.y.n X.y.X.! z g.c.W.y.!.( Q w Q Q q 0 0 0 0 0 ",
"^ ! | ] B 5 3 m v k $ w e w 5 8 7 - @ l m n 6 : x ` y.m ) i e s : 5 > 5 $ o . # ",
"4 3 3 2 g 5 d - k k x 5 : d a : N *.z d d m M N d *.` ` x N ' ..n A j.&.6 M @.m ",
"x N w m _ X.) w >XB.;.z @.-Xx.C ;X6X^.#.' v.Q.Q.[.>Xt.a.X.{.t.( ^ ` n.r.m M &.Q ",
"Q Q 3 ~ ^ / p m u.i.l.l j.M.O.C b.y.a...i t.r./ N  ./ / Q | ~ ^ ^ n ..u 0 x j.W ",
"y y * y p ! e e r.Q V k n.d.-.x / y.| e e  ._ e 2 m Q ^ ! e i q 3 n | 0 ; ; _ y "
};
