/* XPM */
static char *_18054961d6f438bb0fd6c24142e1228iBp5KkhsLCfVaBK2[] = {
/* columns rows colors chars-per-pixel */
"40 40 243 2 ",
"   c #040000",
".  c #0E0B02",
"X  c #190C0D",
"o  c #180A05",
"O  c #191406",
"+  c #0B1816",
"@  c #1B1311",
"#  c #171A19",
"$  c #05190D",
"%  c #261A07",
"&  c #2A1916",
"*  c #351719",
"=  c #2E1209",
"-  c #09271D",
";  c #1C221D",
":  c #2A210C",
">  c #35260E",
",  c #2B2815",
"<  c #342817",
"1  c #39311D",
"2  c #0D1A23",
"3  c #161E23",
"4  c #321F21",
"5  c #0E2427",
"6  c #14232B",
"7  c #192628",
"8  c #1A2933",
"9  c #14352A",
"0  c #292B2B",
"q  c #252727",
"w  c #382A26",
"e  c #3B3429",
"r  c #273338",
"t  c #3C3232",
"y  c #373B3A",
"u  c #2C312D",
"i  c #443319",
"p  c #4C2A1E",
"a  c #65211E",
"s  c #403225",
"d  c #483927",
"f  c #573D2D",
"g  c #413434",
"h  c #463C3C",
"j  c #4A3D3B",
"k  c #4A3935",
"l  c #543D3B",
"z  c #583A37",
"x  c #4B2D2A",
"c  c #75342D",
"v  c #663738",
"b  c #73393B",
"n  c #683028",
"m  c #394030",
"M  c #4B422D",
"N  c #5D452E",
"B  c #55432C",
"V  c #4D423C",
"C  c #46413B",
"Z  c #5A453C",
"A  c #5C4A3D",
"S  c #554738",
"D  c #5D543B",
"F  c #6A4431",
"G  c #6B4D34",
"H  c #644A38",
"J  c #784938",
"K  c #68563A",
"L  c #74543A",
"P  c #69452E",
"I  c #75633B",
"U  c #6C673D",
"Y  c #263741",
"T  c #5A3E41",
"R  c #483B45",
"E  c #653C45",
"W  c #793C41",
"Q  c #384749",
"!  c #274659",
"~  c #3A4C58",
"^  c #3B525A",
"/  c #3B5145",
"(  c #365563",
")  c #4C4D4A",
"_  c #474846",
"`  c #524542",
"'  c #554B45",
"]  c #5B4C44",
"[  c #544C4A",
"{  c #5B4D4A",
"}  c #5C4443",
"|  c #495848",
" . c #5D504C",
".. c #5B5C4D",
"X. c #575448",
"o. c #444D55",
"O. c #564A56",
"+. c #475958",
"@. c #585857",
"#. c #624D4A",
"$. c #7A4846",
"%. c #6C5A44",
"&. c #63544B",
"*. c #6B5C4E",
"=. c #655847",
"-. c #765B46",
";. c #645452",
":. c #6B5C53",
">. c #695A57",
",. c #715D5B",
"<. c #745A56",
"1. c #7E4D51",
"2. c #546353",
"3. c #596858",
"4. c #4B6356",
"5. c #6C634D",
"6. c #68644A",
"7. c #7B6B43",
"8. c #73634B",
"9. c #796A4B",
"0. c #646353",
"q. c #6B6352",
"w. c #6C645B",
"e. c #696B59",
"r. c #736355",
"t. c #7B6C54",
"y. c #736459",
"u. c #7B6B5B",
"i. c #746C5A",
"p. c #7D725C",
"a. c #797457",
"s. c #747352",
"d. c #4A5A67",
"f. c #585F69",
"g. c #47646B",
"h. c #5C6C61",
"j. c #596A66",
"k. c #5C756B",
"l. c #566B75",
"z. c #56777A",
"x. c #466E7A",
"c. c #666968",
"v. c #776C63",
"b. c #6A7569",
"n. c #787566",
"m. c #6C7B7C",
"M. c #677876",
"N. c #737472",
"B. c #6C6F74",
"V. c #8D4D3B",
"C. c #864949",
"Z. c #965846",
"A. c #8A5C5A",
"S. c #90534D",
"D. c #A45C51",
"F. c #A65C4F",
"G. c #846A4B",
"H. c #81684A",
"J. c #84764A",
"K. c #856C59",
"L. c #84745D",
"P. c #897C5E",
"I. c #887856",
"U. c #966A55",
"Y. c #A46455",
"T. c #8C5E61",
"R. c #886668",
"E. c #837363",
"W. c #8C7C64",
"Q. c #897669",
"!. c #8C7D6A",
"~. c #867967",
"^. c #927D65",
"/. c #957B68",
"(. c #847B72",
"). c #807C7B",
"_. c #926F6B",
"`. c #B27D64",
"'. c #5B837A",
"]. c #698379",
"[. c #768877",
"{. c #7F8362",
"}. c #88835B",
"|. c #92835E",
" X c #8E8166",
".X c #8C836C",
"XX c #8C886B",
"oX c #948265",
"OX c #998565",
"+X c #93846B",
"@X c #9B846C",
"#X c #95896D",
"$X c #9C8A6D",
"%X c #978A64",
"&X c #99936C",
"*X c #8E8774",
"=X c #8A8778",
"-X c #948473",
";X c #948B73",
":X c #9C8C74",
">X c #958D7A",
",X c #9D8C79",
"<X c #9E8472",
"1X c #899177",
"2X c #9C937D",
"3X c #989578",
"4X c #A28B72",
"5X c #A28D7B",
"6X c #A19276",
"7X c #A3937C",
"8X c #A8997B",
"9X c #B08E72",
"0X c #587B86",
"qX c #4B7B87",
"wX c #6D7C81",
"eX c #747E86",
"rX c #598493",
"tX c #5E858A",
"yX c #678386",
"uX c #608693",
"iX c #758A91",
"pX c #888E88",
"aX c #968A84",
"sX c #88948C",
"dX c #9C9481",
"fX c #969686",
"gX c #A39B85",
"hX c #AD9A83",
"jX c #A79887",
"kX c #B09F85",
"lX c #A7A288",
"zX c #B7A688",
"xX c #BDB693",
"cX c #B3AA96",
"vX c #B4B5A4",
"bX c #C5B798",
"nX c #D7B599",
"mX c #D1AC8F",
"MX c #C5BAA3",
"NX c #CAC59C",
"BX c #CAC3A6",
"VX c #D1C3AB",
"CX c #CBD3C8",
/* pixels */
"d % O M . . & o * = * * 6 2 9 - 9 - - + X     X & & * & @ @ X @ X X X X X o X X ",
"cXVXdXlXXXd = z R.R._.R.).B.yX'.'.yX4.7 + q h { ;.#.O.} } O.[ [ R j j g g t g g ",
"e.cX1XdXjXS = $.T.T.R.,.B.B.wXz.z.yXl.r 7 0 R  .,.<.;.#.;.;.#. .' ` R k g g g s ",
"D p.*XMXxXI.v K.T.T.T.>.v.wX0Xz.'.tXyX].j._ y [ ;.;.;.;.#.{ [ [ ` ` j k g t t t ",
"..6.~.BXMXhX-.C.Y.T.C.E O.B.x.qXtXz.l.yXM.o.t R >.,.,.v.,.;.;.;.{ ] ` V j j k j ",
"..6.q.gXnXnXG.Z.D.S.W E O.0X( qXtXtXz.l.wXc.O._ [ ;.,.,.,.;.;.;.{ [ ' ` V V j j ",
"..q.6.a.zXnXZ.V.D.C.W T O.l.! qXx.0XqXl.m.wXj.) R { &.:.y.,.:.>.;.&.&.&.#.] ] ' ",
"e.e.5.K.OXnX`.Z.D.C.W E O.l.! 0XqXuXuX0XwXwXc.@.h j V &.:.y.y.:.*.:.:.;.&. .] ] ",
"q.5.n.9.H.mX`.V.F.c W b O.d.x.0X0X0X0XiXl.eXm.0.h X.S k &.y.<.r.y.y.q.*. .] ] #.",
"=X..1 > P kX`.F.F.c C.#.R o.qX0XqXrX0XwXM.iXc.) C ` k s A y.E.E.y.y.y.:.=.&.&.=.",
"e < M K K.9XZ.Z.V.a W E t o.uX0X( qXx.g.z.m.@.) [ ] A S } u.Q.u.u.u.y.r.:.*.*.*.",
"M 5.W.&X$X^.P V.c a b v j +.yXz.( d.~ d.@.+.Q ) _ ' X.] A v.Q.u.u.u.r.<.r.:.:.:.",
"W.;X XW.^./.v n n c v x >.c.].yXz.~ ! Q Q y _ _ ..*.y.q.*.K.-XQ.E.u.u.u.r.r.r.r.",
"L.^.L.^./.@X%.a C.$.v T ).B.].z.d.Q ~ / o.@.N...C V =.*.<.E.Q.Q.~.E.u.u.u.u.t.y.",
"4X4X!.:X+X<XK.H A.$.v <.aXv.M.b.Q Y +.c.pXsXsXv., , & s =.r.u.Q.!.~.E.u.u.u.u.y.",
"P.9.%././.<X_.$.A.v v R.aXc.m.k.+.~ j.pXCXvX=Xv.>Xy.s < z A &.E.+XW.E.L.E.L.u.u.",
"K N H 8./.5X_.G f _._.-X=XN.M.g.~ ~ Q c.1X8XxXxXzX*XT l w } r.%.L.oX XL.L.L.t.t.",
"G G K K K././.P.G.@X@X;X=Xb.k.d.! ( Q c.&XNXxXzX%.A x T * Z r.8.t.W. XW.W.P.L.t.",
"G K H H -./.@X4X/.4X+X;X=XN.h.Q d.~ Q u 1XNXNXbXN z Z { 4 s *.K 8.P.oXW.W.P.p.p.",
"G G H N K K.^.oX/.OXOX X>XfXM.y d.d.| m #XNX8X$XB z } } * w y.q.5.W.+X X XW.L.W.",
"L L G N N 8.P. XOXOXOXI.2XvXfX_ f.eX) | 6.NX8XI.#.z T k 4 t w.:.t.W.+XW.W.W.W.!.",
"P L L N B U I.&X$X|.|.J.-XBXcX@.+.B...e K 8XbX^.#.T l g w w >.=.p.+X;XW.W.W.W. X",
"P P N B D s.%X&X&XJ.I.J. XxXlXw.` O.w.q.;Xa.bX/.f z k 4 w t >.v.E.#X$XW.+X+X^.+X",
"F N p B a.3X8X&X|.J.J.I.OXzX8Xu.).N.' MX+X9.kXMXB =.j & & @ C 0.~.#X+XXX+X#X!.+X",
"p f R.gXdX;X&X&X7.}.}.J.|.|.t.8.~.fXdXjX4XlXW.%.x =.k < w . o X.2X+X X+X+XW.W.+X",
"z <.-XlXgXfX1X{.U J.J.I J.J.t.8.(.dX,X7X:X5X-.d H A * o < w & < p. X:X;X+X+X+XW.",
"r.v.Q.(.[.fX2XXXU I J.J.I I.}.s.L.:X,X,X:X5Xr.p f z i d ,.~.` % d K.6X:X X+X+XW.",
">. .[ ) X.{.dX3X7.I J.|.J.I.P.8.%.W.:X,X7XhX!.H > d =.u.>XgXp.e : A W.3X+X X+X+X",
"t 0 0 y [ w.;X2XOXH.I I.s.7.6.D K }.7X&X5XjX5XK.-.9.W.$X:X,X-Xu.d i N  X7X:X X+X",
"q 3 3 y Q @.(.2XhXJ.I H.s.s.{.s.s.oXhX5XgX5XhX5XhX4X:X6X+X+X,X,Xt.d < %.:X7X+XoX",
"8 6 6 8 0 _ n.-XhX$XH.U 7.}.{.{. X%X8X+X-XW.5XhX7X4XOXOXOXOX+X#X-X%.i d 8.%X:XoX",
"3 8 8 3 3 y v.v.8X9XI.K U 7.6.6.3X&X3Xp.v.=.E.-X;X4X:XOX$X$X$X:X;XW.D > 1 s.:X#X",
"8 Y 8 2 8 # ) >.+XoX9XH.i i G U {.[.3.2.C 3.U e.3X:X:X:X$X#X$X#XXX2X!.M : 1 a.2X",
"d.2 2 8 r 3 q v.Q.@XI.L G.H.K K | 3.4./ | 4.| 2.XX1X5X!.W.&X8X#X.X;X*X5.1 : M a.",
"o.Y 8 2 2 q # C +X/.-.L 9X6Xt.=.h.k.k.[.[.3.2.2.v.-XdX<X+X6X3XXX2X;X2X3Xq.< , M ",
"~ Q 2 Y 3 + , e -X9.H.G.G.oX X..4.m h.].iX3.2.6.0.u.!.4X7X$X%X#X8X*XXX2X*XD < : ",
"u Y + 3 3 0 y d E.K.@X4X^.-X,Xn.3./ 4.k.[.4.2.3.q.u.L./.8X7X;X3X>XXX~.*X3X.XA : ",
"; h R 7 y N.| w S u.^./.8X,Xp.v.b.| +.4.3.3.e.c.n.>XQ.t.+X7X&XXX.X;X*X.X*X>Xp.M ",
"t # y ) j.@.0 C d 5.H.K.-X!.5.3.3.+.4.h.h.].1X1XdXlX-Xr. X3XXXXXXX>X;XXX*X>X=Xn.",
". @ @ # q   X O O o : > % % , . ; - - ; $ 9 , O < 1 % o > : O > % % O : : : , < "
};
