/* XPM */
static char *d64e979de6ef4c3ef5d3c46223c45b2dOcCmEOf5h5D70Zz0[] = {
/* columns rows colors chars-per-pixel */
"40 40 223 2 ",
"   c #030204",
".  c #0C0302",
"X  c #0B0A06",
"o  c #05050A",
"O  c #0A060B",
"+  c #050A0D",
"@  c #0B0A0D",
"#  c #130302",
"$  c #1C0200",
"%  c #1E0B04",
"&  c #140B0C",
"*  c #1B0D0D",
"=  c #130709",
"-  c #12110E",
";  c #1E100F",
":  c #060C11",
">  c #0C0C12",
",  c #090712",
"<  c #120E13",
"1  c #1A0E11",
"2  c #0D1115",
"3  c #0F171A",
"4  c #121215",
"5  c #1C1213",
"6  c #14131A",
"7  c #1A151A",
"8  c #15191D",
"9  c #1B1A1D",
"0  c #240A03",
"q  c #250E0A",
"w  c #270A03",
"e  c #281209",
"r  c #38140A",
"t  c #221314",
"y  c #2B1514",
"u  c #221619",
"i  c #251A1C",
"p  c #2D1D1C",
"a  c #291A15",
"s  c #331B15",
"d  c #381A17",
"f  c #3C0E01",
"g  c #19221D",
"h  c #2E221E",
"j  c #34221D",
"k  c #3C231E",
"l  c #392215",
"z  c #1B1A22",
"x  c #1A1721",
"c  c #221D22",
"v  c #232125",
"b  c #2A2627",
"n  c #322423",
"m  c #342A24",
"M  c #3B2A23",
"N  c #362D2C",
"B  c #3B2927",
"V  c #3B322B",
"C  c #37302A",
"Z  c #353431",
"A  c #4D1D0B",
"S  c #47251E",
"D  c #58281A",
"F  c #432823",
"G  c #4B2C23",
"H  c #472B27",
"J  c #542D26",
"K  c #44322C",
"L  c #4A332E",
"P  c #463A2E",
"I  c #53342B",
"U  c #5A3224",
"Y  c #433433",
"T  c #4B3632",
"R  c #453B33",
"E  c #4A3A34",
"W  c #493C3B",
"Q  c #593531",
"!  c #533A36",
"~  c #5D3D34",
"^  c #533C39",
"/  c #573A38",
"(  c #65352B",
")  c #673B3A",
"_  c #723E31",
"`  c #494239",
"'  c #51453D",
"]  c #5B4439",
"[  c #65463C",
"{  c #6A4639",
"}  c #794B3B",
"|  c #474647",
" . c #5B4743",
".. c #564941",
"X. c #5B4C45",
"o. c #5C4B4A",
"O. c #544444",
"+. c #5B544D",
"@. c #565B56",
"#. c #664A46",
"$. c #734A44",
"%. c #64554C",
"&. c #7B5448",
"*. c #685B58",
"=. c #735C58",
"-. c #57635E",
";. c #696057",
":. c #63615C",
">. c #75695F",
",. c #655E60",
"<. c #5B6462",
"1. c #686A68",
"2. c #746D6D",
"3. c #776865",
"4. c #67706E",
"5. c #7B7264",
"6. c #6C7370",
"7. c #6B7A74",
"8. c #7A7B77",
"9. c #814A35",
"0. c #845848",
"q. c #965A47",
"w. c #855C56",
"e. c #8A6252",
"r. c #926554",
"t. c #9C6455",
"y. c #96614F",
"u. c #A8715C",
"i. c #B2715F",
"p. c #867569",
"a. c #9B7669",
"s. c #81797A",
"d. c #977E79",
"f. c #896F60",
"g. c #A56F62",
"h. c #A3746C",
"j. c #A8796B",
"k. c #B57462",
"l. c #B37B6B",
"z. c #A87770",
"x. c #C07C65",
"c. c #78847F",
"v. c #968B7F",
"b. c #8B877C",
"n. c #A68477",
"m. c #B68776",
"M. c #C78670",
"N. c #C88B76",
"B. c #D89079",
"V. c #7B8983",
"C. c #838A87",
"Z. c #9F9C92",
"A. c #939287",
"S. c #BB9B8A",
"D. c #A89C91",
"F. c #B79E95",
"G. c #BE8C81",
"H. c #9AA696",
"J. c #A6A598",
"K. c #B7A699",
"L. c #B0AEA2",
"P. c #A5B2A1",
"I. c #ABB4A5",
"U. c #ADBBAA",
"Y. c #ADB8A8",
"T. c #B4B3A6",
"R. c #B4B4A9",
"E. c #B3BAAD",
"W. c #BABBAE",
"Q. c #BAB5A9",
"!. c #B6BDB2",
"~. c #BBBDB2",
"^. c #BCBFB8",
"/. c #ABADA0",
"(. c #C49488",
"). c #D39A85",
"_. c #C6A695",
"`. c #DAA794",
"'. c #E5A38B",
"]. c #C2BEB3",
"[. c #CBBDB4",
"{. c #D7BBB5",
"}. c #B5C2B1",
"|. c #BBC2B5",
" X c #BDC4BA",
".X c #BEC9B9",
"XX c #BBC8B7",
"oX c #C3C3B5",
"OX c #C3C6BA",
"+X c #CBC4BA",
"@X c #C3CABC",
"#X c #CACABE",
"$X c #CAC0B6",
"%X c #D1C9BD",
"&X c #D5C1B8",
"*X c #C7C0AE",
"=X c #E4C7B9",
"-X c #F4D1BE",
";X c #C5CAC2",
":X c #CACDC2",
">X c #C8CCC6",
",X c #D2CDC2",
"<X c #DBCEC5",
"1X c #CDD2C4",
"2X c #CED3CA",
"3X c #C5D0C0",
"4X c #D3D9CB",
"5X c #D6D5C9",
"6X c #D9DFD0",
"7X c #E3CCC3",
"8X c #E9D2C9",
"9X c #FEDECF",
"0X c #EADCD3",
"qX c #E6D9D0",
"wX c #F3DCD4",
"eX c #F8DBD5",
"rX c #EEE1D8",
"tX c #F6E2DA",
"yX c #FCE6DE",
"uX c #FBE8DD",
"iX c #FFE4D1",
"pX c #FDE9E1",
"aX c #FFF6F1",
/* pixels */
"E.@X4X6X4X2X#X1X6X1X%X%X4X5X+X~.;X;X;X>X2X2X>X;X2X>X+XOXOX].^.!.~.OXoXW.+X0XpXtX",
"}..X1X4X4X2X1X1X#X#X@X#X1X%X+X]. X X X;X>X2X>X>X2X>X;X;XOXOX^.W.!.OXOXoX,X0XuXwX",
"|.XX@X@X3X4X1X1X@X@X#X#X%X#X#XOX^.!.!.^. X;X;X;X2X:X;X@X+X@X].^.!.OXOX].,XtXuXwX",
"XX}.}.|..X4X1X@X@X#X1X1X1X#X#X@X X X!.!. X X@XOX>X;X@X@X@X@X|.^.!.OXOX].%X0XuX0X",
"}.}.P.}.XX.X@X@X@X#X1X#X#XoXoX|.;X X|.~.|.XXXX|.;X X X X X;X X|.|.+X^.Q.[.qXpXeX",
"P.P.P.}.}.XX.X.XOXOXOXoX|.W.E.R.;X XoX}.|. X|.XX@XXX X X X X X X~.OXoXW.+XqXpXeX",
"H.P.H.P.P.}.XXXX|.}.W.W.oX~.Q.L.~.W.}.|.OXOXOX|.|.^.!.!.}. X X}.!.OX>X[.<XpXyXeX",
"H.H.P.P.P.P.}.XX|.W.E.W.OXOX~.L.T.T.Q.*XOX#X#XoX}.E.!.!. X X X!.R.;X,X,XqXpXyXwX",
"H.P.P.P.I.E.I.J.T.I.T.T.W.~.].~.J.*X*X*XQ.*X#X,X#XOX|.OX|.E.!.^.OX+X].[.qXpXwX7X",
"H.P.@X@X2X6X6X:XoXW.T.T.Q.T.D.A.b.f.b.c.v.K.J.A.Z.Z.J.I.~.~.^.;X+X:X:X[.[.<XeXyX",
"/.|.1X4X:XoXQ.T.8.>.+.X.X.' V a % % e l ] [ ] P E V V ` +.*.1.8.D.R.,X5XqX0XeXeX",
"A.J.J.Z.b.5.;.+.' P M m K E '  .f.n.N.]._.K.K.F.>.] j h c n Z W +.1.v.Q.8XpXyXeX",
";.;.;.%...R V P M K ! X.=.d.F.{.=X-X9XiX9X7X=X7X{.D.f.o.W Z N N m m V ..p.F.8XaX",
"] ' ` E R K K T % j T #.#.=.p.d.n.n.n.N._._.(.F.n.p.,.%. .Y B m Z V V m p / d.=X",
"%.' L P E L L T k K ! T H k S S r A U } $.( Q J Q ! ^ o.o.^ W W R R ` T M d H #.",
"+.P k K ! T L G [  .[ I S d r r A 9.m.m.r.D f r J J Q )  ./ / O.R h a m T H k d ",
"Y H F M F G I Q a.a.a.r.0.} 0.r.M.B.N.M.k.q.9.( _ ( J ( $.$.) H p n V Y Y V n s ",
"H B j d d k F D $.&.e.r.r.u.m.).'.B.M.M.k.u.k.l.g.g.z.z.h.w.) J j h p p p p n m ",
"c y y y y y y d ] { } &.e.j.(.`.B.N.i.q.q.q.t.g.(.(.(.n.w.Q d q y t ; ; ; t p n ",
"t t t t y q q q 0 e l D { e.m._.`.).B.N.m.l.j.j.w.0.$.Q d $ $ = * * ; ; t t t t ",
"7 u u u u t q 0 $ $ 0 w r G [ &.} &.0.e.&.{ I S r w 0 # # # # % 5 5 ; * * * 1 & ",
"x u c c i u 1 * p s y q w y S G [ [ [ ] I l 0 # . . . . . # = = j u * = # = 1 t ",
"x x c c z 5 1 & . # = q a M W ] ` K M l q . . . . . . X o       c u 1 = = & 1 u ",
"x x x x 6 < > = c 7 5 = # # = & X X X . . . X . . X O       O < < 1 5 u u 5 1 1 ",
"x , z v 3 x c o < < < < 1 1 1 & - & X       + X o   o   o   o o < 1 < 1 < 1 6 7 ",
", , , x , 2 x o > > 6 9 z c v v h g 4 2 - - 3 8 : + + + + + + + > < 1 7 7 5 1 1 ",
"6 o o 6 o o > > o o > > 7 9 x x 3 - 2 + + : 2 8 2 2 : : : + : : , < 7 x c x 1 < ",
"| c , > > o + > o o O @ > > @ @ : : + + + + : + 3 2 2 2 : : 2 : < < 1 7 6 1 6 > ",
"s.| 7 o > > + > < 2 4 4 2 > > + + 2 2 4 8 8 2 2 4 2 2 2 > @ + @ 6 5 < < < < 6 6 ",
"C.<.h   < 7 @ 4 > > < 2 6 6 4 4 + 2 6 8 z 8 8 4 6 2 - @ @ @ @ @ 7 6 > , O > < 6 ",
"2.2.N   - 7 @ - X @ @ > 2 2 2 > + @ 2 2 4 6 4 7 8 4 < & @ @ @ X 5 < > O O , , < ",
"@.8.| X X 4 @ & 4 @ 4 4 4 2 2 2 4 > @ + > 4 9 v 8 7 4 < & @ & @ , = > , , O o o ",
"6.C.4.g     4 @ X O > < 4 3 3 3 + X X X X 2 2 4 8 8 < 2 , , , , , , ,       o O ",
"C.C.<.g   + @   c u 4 > o o o o 2 - 2 - 2 X > @ 9 7 6 x 6 x x 6 6 , o o     o O ",
"c.c.4.b   . < O O O O @ @ 2 2 3   X X X X - 2 > 6 6 6 6 x x 6 6 < > , O o o o o ",
"-.c.c.| o     = O & 5 7 4 2     X X X X 2 X @ @ , > , > , , , 6 > @ > > , O o o ",
"c.c.V.<.Z 8 , .   . . @ X @ @ X 4 - 4 - & @ o o o o O O , , , , O O @ O + O     ",
"c.c.7.4.1.1.W n i 5 & . . X - 4   X X X o O O , O O , , , , 6 > , + > O O o o   ",
"<.-.-.4.8.s.2.,.2.=.o.Z h 5 & X X         X > < > , > > 2 6 , , > > > @ O O o O ",
"-.-.4.4.1.,.2.8.*.,.;.3.3.*.+.X.Z b 9 - o . o o > > > > > > , 6 4 < > @ O , + @ "
};
