/* XPM */
static char *namine1680161344[] = {
/* columns rows colors chars-per-pixel */
"40 40 248 2 ",
"   c #020402",
".  c #0A0304",
"X  c #040904",
"o  c #04040A",
"O  c #040B0B",
"+  c #0C0B0B",
"@  c #0B0809",
"#  c #150909",
"$  c #09150D",
"%  c #15140C",
"&  c #0C0C13",
"*  c #070A18",
"=  c #140C13",
"-  c #190E15",
";  c #110E19",
":  c #0C1313",
">  c #091818",
",  c #131313",
"<  c #1B1313",
"1  c #15131A",
"2  c #1B1B1A",
"3  c #181919",
"4  c #291918",
"5  c #29130E",
"6  c #082717",
"7  c #16261C",
"8  c #28211D",
"9  c #382419",
"0  c #0A1526",
"q  c #161B26",
"w  c #141936",
"e  c #0B152D",
"r  c #231924",
"t  c #0C2A26",
"y  c #182426",
"u  c #093928",
"i  c #18342B",
"p  c #133039",
"a  c #262525",
"s  c #3C2923",
"d  c #252632",
"f  c #243736",
"g  c #3B3D3D",
"h  c #502C1E",
"j  c #492D26",
"k  c #593427",
"l  c #4D332F",
"z  c #653238",
"x  c #471E1F",
"c  c #024A2B",
"v  c #00542C",
"b  c #035A2C",
"n  c #034C31",
"m  c #0C4A36",
"M  c #144536",
"N  c #015433",
"B  c #035C33",
"V  c #035C3C",
"C  c #095639",
"Z  c #125A3E",
"A  c #01623A",
"S  c #016B3A",
"D  c #006534",
"F  c #00773F",
"G  c #504438",
"H  c #6E443A",
"J  c #192543",
"K  c #18314C",
"L  c #272A48",
"P  c #263848",
"I  c #282E55",
"U  c #293759",
"Y  c #343754",
"T  c #33384E",
"R  c #1F3867",
"E  c #2A3A65",
"W  c #343A67",
"Q  c #221B4F",
"!  c #503A45",
"~  c #6D3541",
"^  c #0E4A4B",
"/  c #1A4E46",
"(  c #055B45",
")  c #175847",
"_  c #135858",
"`  c #255656",
"'  c #2E4E52",
"]  c #026344",
"[  c #056949",
"{  c #156649",
"}  c #01734D",
"|  c #057549",
" . c #0B6952",
".. c #186954",
"X. c #017B52",
"o. c #087858",
"O. c #177959",
"+. c #39655B",
"@. c #24745C",
"#. c #206956",
"$. c #26496A",
"%. c #36476A",
"&. c #364975",
"*. c #39537C",
"=. c #2A5075",
"-. c #197569",
";. c #287964",
":. c #37796A",
">. c #306D75",
",. c #6A4946",
"<. c #72504F",
"1. c #44547B",
"2. c #4A506E",
"3. c #4E736F",
"4. c #6E6769",
"5. c #943637",
"6. c #9F3F40",
"7. c #864A4D",
"8. c #8C5C52",
"9. c #856358",
"0. c #9F665F",
"q. c #A26E5B",
"w. c #966C67",
"e. c #977367",
"r. c #8B6A6A",
"t. c #A87569",
"y. c #B3786C",
"u. c #AB7A74",
"i. c #B87C79",
"p. c #AB6869",
"a. c #B84F5B",
"s. c #C14B58",
"d. c #C47978",
"f. c #CB6870",
"g. c #C55764",
"h. c #00834C",
"j. c #028453",
"k. c #03865A",
"l. c #14855D",
"z. c #02955A",
"x. c #088A63",
"c. c #168665",
"v. c #069767",
"b. c #16966A",
"n. c #079C73",
"m. c #179C77",
"M. c #268A71",
"N. c #358E78",
"B. c #259876",
"V. c #36957D",
"C. c #2B8B6C",
"Z. c #08A976",
"A. c #17A879",
"S. c #16B97B",
"D. c #0EAA6D",
"F. c #23A47D",
"G. c #36AD7C",
"H. c #50887C",
"J. c #BD897D",
"K. c #B88479",
"L. c #C28B7E",
"P. c #C68578",
"I. c #CF8E7E",
"U. c #3A4B85",
"Y. c #3D5284",
"T. c #3D558B",
"R. c #385591",
"E. c #376F97",
"W. c #276FA1",
"Q. c #445484",
"!. c #445A83",
"~. c #4B5A85",
"^. c #43568C",
"/. c #445C8C",
"(. c #4B5A8C",
"). c #445A93",
"_. c #4A5C93",
"`. c #48589C",
"'. c #424E86",
"]. c #5B6B8C",
"[. c #4D6297",
"{. c #586696",
"}. c #4F608E",
"|. c #647197",
" X c #546CA6",
".X c #5667A5",
"XX c #8F798E",
"oX c #328F87",
"OX c #16B786",
"+X c #14B186",
"@X c #26AA84",
"#X c #26BB89",
"$X c #38BA97",
"%X c #2FAD92",
"&X c #3FBBA3",
"*X c #589B8D",
"=X c #499281",
"-X c #64908A",
";X c #58A593",
":X c #44AF92",
">X c #65B5A2",
",X c #19C28A",
"<X c #1CC696",
"1X c #14CE92",
"2X c #27C897",
"3X c #37C59B",
"4X c #29D496",
"5X c #39D89C",
"6X c #26C789",
"7X c #3CE59C",
"8X c #25D8A5",
"9X c #35D5A7",
"0X c #34E5A8",
"qX c #2CE3AB",
"wX c #1BE5A5",
"eX c #48C698",
"rX c #44D6A6",
"tX c #52CEAA",
"yX c #63D7B7",
"uX c #45E4AE",
"iX c #49ECB3",
"pX c #52EEB8",
"aX c #6AEDC8",
"sX c #B98A82",
"dX c #AC8482",
"fX c #9C8999",
"gX c #C58B86",
"hX c #D88887",
"jX c #CC948B",
"kX c #C99688",
"lX c #D7958B",
"zX c #CC9B95",
"xX c #D79B96",
"cX c #E29998",
"vX c #D7A49A",
"bX c #CCA097",
"nX c #E4A49B",
"mX c #E89FA6",
"MX c #D9A9A4",
"NX c #DCB0AD",
"BX c #E8A9A5",
"VX c #EAB3AA",
"CX c #EBB8B4",
"ZX c #F8B9B6",
"AX c #F6AEA7",
"SX c #F3C4BE",
"DX c #F0C6C6",
"FX c #A8EBD9",
/* pixels */
"*X=X3.3.aX:.*X9X' Z eXuX| Z  .3X3XO.) Z c.@X{ ' F.3X&XeX) x.rXrXS b v v.6XN c c ",
"*X;X3.3.yX$X$XeX' #.rXpXG.) ( b.A.} ] O.tXuXc.#.$X#XM.uXl.) F.iX| B v l.qX| v D ",
"-X>X-X3.*XtX&XM...@.m.@Xc.) [ c.M.( / f t > p ) %X&X;.9XF.Z z.aXA.D A b.8Xv.A v ",
"-X:X*X3.3.N.=X:.....@X+X2X;.m 6 o 6 $ X , - & y _ %XM.9XB.{ ,XaX4Xo.A k.1X,XS b ",
"-X>X*X3.3.N.N.oX:.O.3Xo.@X/ +   O 3 < # % , 3 q e -.%X$Xl.{ n.,XOX} A #X2X0XS.B ",
">XaXtX@.3.%XC.;.B...9XO.t + X , q , + r a , # r p u W.o.| ..n.,X2XF.X.uXD.A.iX[ ",
"H.>XyXH.@.V.M.;.F.#.#XB.X = > - 4 1 X % 9 j r X t P / -.x.o.3XD.x.8Xj.5X#Xx.iXj.",
"+.H.aXC.+.N.B.@.m.{ l.{ X X - 1 : + 9 H 0.K.t.j : f K _ o...S.$XX.wXj.6X9Xv.0Xj.",
"+.C.aX#X:.@.B.B.l.Z h.8 . > < 5 h K.I.xXnXnXlXi.k 4 L ^ _ O.Z.8Xx.1Xk.z.0X8X,XD ",
"#.M.yX:X#.) l.,X4Xl.B $ # $ 8 l I.VXnXAXAXnXAXmXy.s p ` _ O.X.<X+XZ.} S O.1XZ.D ",
"+.:.V.N.;.+.G.5X4X#XC % - 5 z K.BXVXVXnXAXVXBXBXvX7.5 y ` _ ) ( x.X.N v X.8X+Xv ",
"` H.:X%X:X@.tXrXG.iXZ # , 4 t.jXMXCXAXAXAXVXZXmXnXI.9 @ p _ ..| #X2X[ D j.wX9X| ",
"+.oX%X;.9Xc.eXtXC.6Xi 4   z hXvXDXDXCXZXZXVXDXDXvXlX7.. t p  .j.OX8X} S ( v.qXk.",
"/ F.3X#.3XV.G.pXb.@.% % g 4.4.<.,.<.sXZXZXzXu.r.e.w.z . + > / {  .8Xc.S A o.0Xm.",
"{ l.3XM.#XM.O.#XZ u % # g H.FX4., s 4 G l 4 s 3 2 a y f + - t ] [ 4XB.D D v.qX8X",
"{ / @XF.@Xo.( V u 2 % %   fXfXXXl 7.z l j z <.l <.~ <.O   > i ] h.2X2Xj.B j.+Xn.",
"z.{ ( M.@Xo.m c 7 % 5 x x e.y.d.d.p.z sXgX,.p.i.i.d.u.5 h . i ^ [ v.v.( B } <X<X",
"A.[ ..OX+X8Xo.6 u % 4 8.,.,.i.xXgXw.l cXBXH u.VXmXxXe.8.gXj $ C S v.Z.} A F Z.8X",
"iXb.o.2X( #Xm.> u O 9 K.q.t.7.w.<.H u.VXAX0.j 9.w.9.9.d.gX# 6 n S l.+X} B B } 8X",
"5X4Xx.<X .@X@Xp t $ X e.jXi.vXMXvXvXd.L.xXd.gXL.bXMXzXmX,.  f M B A Z.j.v B [ <X",
"S.5Xh.6Xn.n.+Xc 3 , O < e.t.P.xXmXzXjXxXxXlXvXZXVXkXJ.<.  > f / S A Z.z.N N } 1X",
"S.7X[ l.OXA.x.N 7 < r # . l K.P.sXgXhXhXhXcXlXJ.I.bXl   o o q ^ ) ( v.D.| V ( x.",
"0XS.v n  .k.V c i . @ 2   2 u.I.t.5.s.g.g.s.6.y.I.K.X o # + O K #.( [ X.v n V k.",
",Xz.B B | Z.o.C 6 @   + .   ,.gXkXi.g.f.f.f.P.I.I.H o & 5 $ O > / ( X.v.A B V [ ",
"7X6Xb v ] v.v.u & . O % @ o 4 t.i.gXxXxXvXnXvXL.y.5   + < 3 @ 1 a M V v.[ n B v ",
"6X4XD b c o.n.t   @ O X . . 9 y.y.L.VXVXZXZXP.J.K.5   X % < o : r i m X.} c N m ",
"b.7Xh.n u ] z.>   @   X @   # 8.q.K.gXjXkXkXy.L.t.# X   @ =   : 1 y m X.k.Z n m ",
"h.7XD.B M  .h.$ % +     .   # 8.e.t.K.K.K.K.K.kXr.# X . @ X   : a y M [ j.V n n ",
"D.7X,X| 6 u c , % # + X . . 4 8.K.q.sXkXvXkXL.bX,.# @ & =   : : 3 7 i ( D.n.m n ",
"F D.D.B c } ( * < = 1 = @ q 9 H J.e.K.kXvXL.kXL.j % , ; = @ 3 = : 3 m n.m.2Xk.n ",
"j.0X4X) J ' ' w , - ; + ; d a H t.L.sXK.L.L.vXt.5 # q 4 = + , < 3 & ^ +X( +X,Xc ",
"A c.>.Q.&.Q I * O ; ; & q e , k J.kXK.K.K.L.kXy.#   3 q # X X < 1 0 w ` -.E.<XN ",
"P %.1.(.U.E K e O o - q w 1.L 9 0.kXjXP.P.lXjXkXe.. T %.d 0 +   : e K R T. XoXn ",
"$.1.}.(.)./.Q.$.I d q e &.{.I 9 zXMXbXbXbXvXMXnXgX9.2.&.U.Q.1.L w %.&.*.^.E.W.^ ",
"%.~.}.).`.[._.^.&.U {.U.&.^.%.. 8.VXDXMXVXVXBXVXBXj Y R.R.`.{.K E Y.Y.1.Q.T.E.=.",
"*.~.}._._.).^.).&.U {.T.&.Q.&.* . l dXMXBXVXCXsXl   2.^.T.{.].J U./.T.Y.Q.^.E.R.",
"&.Q.{.(.(.[.).).E I ].Y._.'.&.; > o o 4 ! ! d 1 o * ~.*.~.].2.w T././.Y.^.(.$.$.",
"&.&.}.(.^.).^._.$.w ].(.~.{.|.Y o ; ; * o o ; * . e Q./.). X2.I [./.T.U.U.Q.E =.",
"!.&.Q._.^.T.U.}.&.J {.(.%.P %.W d 1 = 1 , + = = ; 2.|.|..X.X].%.[.!.T.U.Q.1.E E.",
"!.W ^.^.Y.).Y./.`.I 1.%.w L Y W Y Y 0 o q 1 3 T U J Y Y 2.2.2.1.`.^.*.^.(.*.U W."
};
