/* XPM */
static char *_c23b50489204fc6e33aeddc7a5a862bCWC9UhpKPxMfegr6[] = {
/* columns rows colors chars-per-pixel */
"40 40 127 2 ",
"   c #2B2629",
".  c #2F2A2C",
"X  c #302B2D",
"o  c #332E30",
"O  c #373232",
"+  c #3A3535",
"@  c #3E3839",
"#  c #433D3C",
"$  c #46403E",
"%  c #49423F",
"&  c #464140",
"*  c #4B4543",
"=  c #4F4946",
"-  c #4F4A48",
";  c #514A46",
":  c #534C49",
">  c #594F4D",
",  c #57514E",
"<  c #5B534E",
"1  c #5C5551",
"2  c #5F5854",
"3  c #615753",
"4  c #645B56",
"5  c #695F57",
"6  c #655D59",
"7  c #695E58",
"8  c #67615B",
"9  c #6B635D",
"0  c #70645D",
"q  c #76695F",
"w  c #6E6661",
"e  c #6E6963",
"r  c #706661",
"t  c #746B64",
"y  c #796C63",
"u  c #756E69",
"i  c #7A6E68",
"p  c #7B7066",
"a  c #76716A",
"s  c #7B736C",
"d  c #7D7670",
"f  c #7E7972",
"g  c #82766D",
"h  c #84796E",
"j  c #8E7D6E",
"k  c #827671",
"l  c #847A73",
"z  c #8A7D74",
"x  c #8A7F79",
"c  c #8D8075",
"v  c #87827C",
"b  c #8C837A",
"n  c #908277",
"m  c #918276",
"M  c #908479",
"N  c #93857B",
"B  c #958679",
"V  c #95847A",
"C  c #93857D",
"Z  c #95877C",
"A  c #94877D",
"S  c #93867C",
"D  c #98877C",
"F  c #98867C",
"G  c #95887B",
"H  c #978A7D",
"J  c #94897F",
"K  c #96897E",
"L  c #978A7E",
"P  c #96897C",
"I  c #988A7B",
"U  c #988A7C",
"Y  c #9C897E",
"T  c #9C8B7F",
"R  c #9B8C7F",
"E  c #9C8C7F",
"W  c #9A8B7D",
"Q  c #8C8780",
"!  c #8C8780",
"~  c #948980",
"^  c #978981",
"/  c #948A81",
"(  c #968B82",
")  c #9D8B81",
"_  c #988C81",
"`  c #9F8C82",
"'  c #9D8E82",
"]  c #9A8E85",
"[  c #9D8F86",
"{  c #9B8C82",
"}  c #9B9185",
"|  c #9D9087",
" . c #9F9286",
".. c #9D9186",
"X. c #9D9288",
"o. c #A09185",
"O. c #A49387",
"+. c #A19186",
"@. c #AA9984",
"#. c #AA9984",
"$. c #A19289",
"%. c #A19389",
"&. c #A39689",
"*. c #A0958A",
"=. c #A1958B",
"-. c #A3958B",
";. c #A49689",
":. c #A2978C",
">. c #A2978D",
",. c #A4978D",
"<. c #A3958A",
"1. c #A1988D",
"2. c #A6998F",
"3. c #A79A8F",
"4. c #A49A8F",
"5. c #AA998C",
"6. c #AA998C",
"7. c #A99A90",
"8. c #A89B90",
"9. c #AA9F91",
"0. c #AA9C91",
"q. c #ADA193",
"w. c #B0A095",
"e. c #B0A397",
"r. c #B0A296",
"t. c #B3A398",
"y. c #B3A398",
/* pixels */
"4 X i =.* & 4 w t 4 < * > 4 3 t : - 6 4 4 X p =.* & 4 r t 4 1 * > 3 3 t : ; 4 4 ",
"C $ c 9.1./ 7.2.1.6.C s y Y s z c M ^ ^ M # c q.>./ 6.4.>.7.M s t Y g z x x ( Z ",
"l # l R 1.=.| ] | 4.X.9 y Y k z Y B z D h # l _ >.=.| } | ,.$.9 y E h j Y G n B ",
"h # ..' o.=.;.7.=.=.e.0 g V M Y _ ) ) 6.z # | [ | =.;.3.-.$.w.r g P M W E Y ` O.",
"t * b M B o.k | q.e.( : l n z p t 9 t z t $ b c B o.g [ y.y.^ : h b z p t 9 y k ",
"+ + # ; < , X # 2 8 $ O ; < 4 1 @ + * & @ + # ; 1 , o @ 1 6 # O = < 4 3 + @ * & ",
"x d u f f v ; ; q 9 9 1 9 c Y #.3 6 v l v d u l f v - - t w 8 4 9 c G #.3 6 v l ",
"s a d k l v , * 0 t t u p p p Y 7 1 s f s a d d l v 1 * 9 t t u u p p Y 6 1 d f ",
"d k d l l ! , - u e s s u u u ! 2 , l l s l f l l ! , - e e d s u u u ! 6 1 f f ",
"s s d s a s # * 6 6 e u 9 6 6 s - , w s s s s s a d # * 6 6 e u 8 6 7 s - > w s ",
", - @ - * ; * @ $ $ @ # + * ; # * 6 , * : - @ ; * - * @ $ $ @ # + * ; # * 6 , * ",
"c t & z M z v l f s d u + u u s l l f s c t % c b z c l f s h t + i u s l l k d ",
"d p ; h h c l l f f v t + 9 h t d l k l h p * h l v x f f f b t + 9 h t p l j h ",
"m W : q B c x v b h x 4 + p G c z z z m m I : y V l x l b l b 2 + s B c z z c m ",
"q 8 $ $ 3 ; 6 8 9 1 1 : O < 4 t g y j j q 8 $ # 3 ; 6 w 9 < 2 , O < 4 r y p h j ",
"# + O $ % * O # 4 4 6 w < * e u # # : * # + + # * * O # 4 3 6 9 , * e u # # : * ",
"9 0 e e r u * 4 ;.Y ^ Z l l ! ` 1 7 Y p 9 0 e e e a * 2 4.L P P k l ~ ^ 1 7 I a ",
"s c d 8 w d : t ^ z s y k z g x 1 < p 9 p c f 8 0 s - t L b s t g z d x 1 1 p 9 ",
"c I z 9 r l 1 r z l z x z z x O.4 8 h c m I h 9 t c < 0 l l c c z z x O.4 7 g j ",
"y 1 # * 1 7 # * 4 4 7 0 - 4 k k % % 1 : q < # * 2 8 @ * 4 3 9 0 ; 7 k k * ; < > ",
"1   q ( & # 1 7 w 1 ; # ; < 4 r ; ; 4 1 1   t ( & # 3 8 w 1 ; # ; < 4 r - - 4 1 ",
"I $ b q.1.( 0.9.4.7.^ k y E g z b b ( I P $ b q.4.^ 0.7.4.9.D k y ) g z c b / Y ",
"h @ h R >.=.[ ] X.,.$.7 y R h j W G c D z @ h R >.>.[ ] X.,.$.8 y R h z P P c B ",
"l $ } } o.=.;.7.,.$.w.w g P c I E E E 6.z # } E | =.;.7.,.$.w.r g P c Y _ ) ` o.",
"t % b c P | k [ q.y.( : l b c p t 9 t z t $ b c B o.k X.y.y.^ : l n z p q 9 t l ",
"@ @ # ; 1 , X # 2 8 $ O ; < 4 1 @ @ * & @ @ # : 1 < o @ 1 6 $ O ; < 4 3 O # * * ",
"v d u l f l ; ; t 9 8 2 9 c G #.3 4 v f v s u f d v ; * t 0 9 1 8 c Y #.3 6 v l ",
"p a s f l v 1 * 0 t t u p p p I 8 < f f s a f s f v 1 * 9 t y u a p p D 7 < s f ",
"s l s l l ! , - u e s s i u i ! 6 , l f s l d c v b , = t e s s u u u ! 6 , l l ",
"s s d s s d # * 6 6 e u 8 6 6 u - , 9 s s s s s a a $ * 8 6 e t 9 6 6 s = , w s ",
", - @ - * ; * @ & # # # + * ; & * 6 , * : = @ = * = * @ $ $ # # + * ; & * 2 , * ",
"b t & c C v l f d a l y + u u d l l f s b t $ c b c v l f s f t + u u d l l k s ",
"h p * h h c l l f f v t + 9 g y p h j h f p % c h c l f f f b t + 9 g t p l h h ",
"m I : y m b v v c l x 4 + s Y c h c c m m W : q B c v v b k x 4 + s G n l j n n ",
"q 8 $ $ 2 = 8 8 w 1 1 : O < 4 t y p c c q 8 $ $ 3 ; 4 8 w > 4 : O < 4 t p p h c ",
"# + + $ $ * O $ 4 3 6 w , * e u # $ % % $ + O $ * * + # 4 4 6 9 , = e t # # ; * ",
"9 q 0 e e a * 2 6._ P Z l v C ( 2 8 I p 9 q e e e t * 4 ;.( P Z l l M ^ 2 7 L p ",
"p c h 8 0 s - t ^ z s y s l g v 2 1 p 0 u c d 6 t s - t ^ z s t l l k x 2 1 p 0 ",
"c m c 8 e c , 9 k l z z k k z +.3 5 h h c I j 8 w g 1 9 l g z z l l z +.3 4 h h ",
"p 8 $ % 8 0 % , r 9 t y > r x Z : % 5 3 h 3 # : 6 t & , t 9 t y > w x V ; > 4 3 "
};
