/* XPM */
static char *_0c0a1247f70479ef02b273787608840oS8wJrNeWiPjVud7[] = {
/* columns rows colors chars-per-pixel */
"40 40 239 2 ",
"   c #7A3B28",
".  c #812108",
"X  c #8E2E18",
"o  c #952C15",
"O  c #8F351A",
"+  c #92341A",
"@  c #9B351D",
"#  c #943B1E",
"$  c #9A3A1F",
"%  c #8A322B",
"&  c #833725",
"*  c #953D22",
"=  c #9C3C22",
"-  c #97342A",
";  c #8D3834",
":  c #913830",
">  c #A6383B",
",  c #AA3F2B",
"<  c #99401E",
"1  c #8C421D",
"2  c #8A4228",
"3  c #964325",
"4  c #9B4225",
"5  c #94472A",
"6  c #9B4429",
"7  c #954B2A",
"8  c #9C4C2C",
"9  c #974C26",
"0  c #9D522D",
"q  c #98512A",
"w  c #824533",
"e  c #9D4C33",
"r  c #934D3B",
"t  c #994939",
"y  c #8D503E",
"u  c #9C5233",
"i  c #9B5B37",
"p  c #9C533B",
"a  c #9E5E3B",
"s  c #955339",
"d  c #A14326",
"f  c #A4452B",
"g  c #A44B2C",
"h  c #AA4B2D",
"j  c #A94727",
"k  c #A1522D",
"l  c #AA542F",
"z  c #A44D32",
"x  c #AB4C32",
"c  c #A3453D",
"v  c #A54C3C",
"b  c #AA4539",
"n  c #B24D35",
"m  c #BC4F32",
"M  c #A35534",
"N  c #AB5434",
"B  c #A55B34",
"V  c #AC5B36",
"C  c #A3563B",
"Z  c #AC553A",
"A  c #A45B3B",
"S  c #AB5C3C",
"D  c #B35336",
"F  c #B35B36",
"G  c #B95B34",
"H  c #B3543A",
"J  c #B35B3D",
"K  c #BC5A3B",
"L  c #BB5439",
"P  c #B34C2D",
"I  c #9F613C",
"U  c #A3633F",
"Y  c #A66438",
"T  c #B2633D",
"R  c #BA663F",
"E  c #C24F32",
"W  c #C1593B",
"Q  c #C1603D",
"!  c #9F4640",
"~  c #9D5B44",
"^  c #985544",
"/  c #A64B43",
"(  c #AA4C44",
")  c #AD4F4D",
"_  c #B34F4F",
"`  c #A25442",
"'  c #AD5543",
"]  c #A45C45",
"[  c #AC5C43",
"{  c #A35D4A",
"}  c #AC5C4C",
"|  c #AB524A",
" . c #B35546",
".. c #B55D41",
"X. c #BA5D43",
"o. c #B3534C",
"O. c #B45C4B",
"+. c #BA5D4C",
"@. c #AF5A53",
"#. c #B45B53",
"$. c #B55452",
"%. c #996546",
"&. c #9F7046",
"*. c #9E6B55",
"=. c #9D7555",
"-. c #A46442",
";. c #AD6343",
":. c #A46C45",
">. c #AA6A45",
",. c #A36249",
"<. c #AE654A",
"1. c #AC6C4A",
"2. c #A16C4C",
"3. c #B36344",
"4. c #BB6345",
"5. c #B56942",
"6. c #BA6A45",
"7. c #B4644B",
"8. c #BC654A",
"9. c #B46C4B",
"0. c #BB6C4C",
"q. c #A4724A",
"w. c #AC724C",
"e. c #AC7B4C",
"r. c #A87345",
"t. c #B3744D",
"y. c #B9704F",
"u. c #B47B4E",
"i. c #B97A4D",
"p. c #B77446",
"a. c #AA6552",
"s. c #A36A54",
"d. c #AB6C54",
"f. c #AD635A",
"g. c #A86B58",
"h. c #B36353",
"j. c #BB6351",
"k. c #B56C54",
"l. c #BD6C53",
"z. c #BB6E5D",
"x. c #B4695C",
"c. c #A47451",
"v. c #AC7552",
"b. c #AD7B53",
"n. c #AE745B",
"m. c #AE7B5A",
"M. c #B47552",
"N. c #BC7453",
"B. c #B47B55",
"V. c #BB7B55",
"C. c #B3745A",
"Z. c #BC735B",
"A. c #B37C5B",
"S. c #BC7C5B",
"D. c #AD7260",
"F. c #BB7162",
"G. c #B47F62",
"H. c #BB7D62",
"J. c #B37764",
"K. c #C75C46",
"L. c #C15F5E",
"P. c #C36145",
"I. c #C16349",
"U. c #C4694C",
"Y. c #CB6C4D",
"T. c #CA6747",
"R. c #D2644C",
"E. c #D16B4E",
"W. c #C5724D",
"Q. c #C6784B",
"!. c #C16553",
"~. c #C36C54",
"^. c #CC6C53",
"/. c #C36D59",
"(. c #C37454",
"). c #CB7355",
"_. c #C37C56",
"`. c #C4735C",
"'. c #CA765A",
"]. c #C27C5A",
"[. c #CC7C5E",
"{. c #C87D56",
"}. c #D37A5C",
"|. c #D4765C",
" X c #D46353",
".X c #E0775A",
"XX c #C47763",
"oX c #C47C63",
"OX c #CC7B65",
"+X c #CB7F6F",
"@X c #D87D62",
"#X c #AD824F",
"$X c #AC8351",
"%X c #AA825D",
"&X c #A8855A",
"*X c #B48255",
"=X c #BB8256",
"-X c #B5845B",
";X c #BB825C",
":X c #B9885F",
">X c #B78C5F",
",X c #B9905C",
"<X c #B58363",
"1X c #BC8564",
"2X c #B58D64",
"3X c #BE8B63",
"4X c #BC876A",
"5X c #BD896B",
"6X c #B7856E",
"7X c #BC9163",
"8X c #B9916A",
"9X c #BD8974",
"0X c #C2825D",
"qX c #CA845C",
"wX c #C38A5D",
"eX c #C28356",
"rX c #D38358",
"tX c #C48562",
"yX c #CC8463",
"uX c #C38A64",
"iX c #CD8964",
"pX c #C48C6C",
"aX c #CB8C6A",
"sX c #C4836A",
"dX c #D28665",
"fX c #D58B65",
"gX c #D88C6A",
"hX c #C3926B",
"jX c #C9936C",
"kX c #C49566",
"lX c #D89467",
"zX c #C48E75",
"xX c #C88B78",
"cX c #DE8E73",
"vX c #CF9470",
"bX c #C99677",
"nX c #D19979",
"mX c #E1936D",
"MX c #D29883",
/* pixels */
"fXqXqXqXeX_.{.qXhXhX3X1X;X=X=XeXzXpXsXS.S.H.0X].jXuXS.V.H.oXZ.l.tX].S.N.y.9.0.l.",
"E.P.K K W W W Q ~.8.4...J H K P./.j.7.O.+.8.!.~.~.8...D D x x n P.J H n x j x L ",
"Q.5.V T p.T T T 3.S M M M M V V M.:.,.1.a.{ { a.;.C 0 u 0 1 q B 9.A C S A 7 u >.",
"=Xu.w.i.V.i.u.u.S.9.1.t.V.t.t.t.3XB.m.uX4XC.g.J.oXv.v.V.=Xu.u.wXiXM.M.uXaX;X:XhX",
"D N N J J N g N Z x x X.4.J N V Z g N 8.!. .( #.L._ o.!.).3.H ..J f x I.).8...4.",
"] C A <.;.C u A i u i ] ;.B 0 0 V 9 k 3.7.v v | | t t } 7.' u 8 g 3 5 S 9.S u e ",
"pX<XA.1X1X-XA.<XuX;X-XtX:XM.t.i.lXeXeXqXqXV.N.oXJ.m.B.A.;X=XV.i.S.M.V.;X0XV.M.M.",
"OXl.} h.h.j.h.h.).+.J X.L j j L T.Q G G K L L K.(.(.6.R T G G G ~.8.8...D x n n ",
"N.>.] ;.;.] ] 9.0.N 8 g j < 4 F U.T N J 3.S ] 7.7.C e z z g x Z 3.M 6 e 8 5 9 M ",
"].0.0.]._.9.9.l.A.:.:.t.t.:.Y =XwXi.B.1XpX1X1X6XbX6X<X1XtX1XqXwX3Xb.w.B.;X;X;X1X",
"V B B ;.;.C u u S M C 9.0.T V T V M A N.oX`.F.F.F.x.f.Z.N.7.S S J z M 7.(.l.9.8.",
"B 0 0 B V u 9 9 e 4 8 V J g d g k 3 6 [ j.h.@.@.#.} } j.+.D x h f = f X.P.D x h ",
"lXfXdXfXgXfXdXdXnXhXuXjXvX3X0XuXvX7X1XhXbXxX9XxX6XG.G.uXuXS.B.S.M.9.M.0XS.1.>.1.",
"qXeXi.V._._.S.].vX1XV.V.S.V.t.V.jX:XB.G.H.A.J.sXsXH.H.S.V.M.0.i.N.9.;.;.A u M 9.",
"qXV.t.N.S.S.Z.V.'.l.3.7.8.8.4.8.yXZ.z.XX`.l.~.OX`.l.8.4.X.Z D X.X.N f g f 4 f H ",
"tXS.S.0XtXtXS.Z.3XA.b.A.1X:X0XuX5X<X-X1Xm.&.:.w.#Xr.r.q.q.:.1.V.tXM.V.0XtX=X=XuX",
"G l M 3.l.h.$.$.f.@.^ k.Z.<.0.3.E L j R 3.f x , x x = J X.x ' z n D = 4.@XI.(.8.",
"l g k A ] ` v ( / / b  .+.D n h d 4 3 N V 6 3 * * * # g M 3 3 3 + + + M 7.Z z k ",
"kX7X7XkXuX3X2X8X4Xn.-X1XuXtXM.A.2X&X-X2X8X2X&X8X8X$X%X>X,X-Xb.;X:X-X-X:X7X-X&.m.",
"{.Y.R.R.R.T.T.(.yX0.W.9.8.(.3.(.oX7./.!.j./.d.H.}.9.(.I.P.P.n K.^.X.I.X.X.K.x ^.",
"6.G P m E L G F p.0 Y q 0 V e 3.sX<.l.+.+.#.{ F.7.z N f f f @ x X.x x 4 f f = L ",
",X#Xr.*X,X*X#X#Xu.U r.r.M.e.w.V.&X=.%XA.m.*.%.*.<X*.c.c.q.&.:.w.-Xb.b.b.:X$Xq.-X",
"R T T T 9.T ..Z ....K Y.Y.K.I.I.6.4.8.XXz.| _ _ @.| ( +. .c x Z = 4 4 3.}.).`.[.",
"j g k B A 8 6 x q u 5 A A 9 M 9 d j 4 S ' - > > > > - ( b X - X o + . 6  .z M 8 ",
"3XB.m.<X;Xb.w.m.-Xv.1.V.V.Z.9.<.:Xb.v.B.A.d.v.J.-.u i 9.N.3.A ;.i u I M.0XV.M.y.",
"OX(.l.`./.l.U.`.0XN.9.9.9.;.;.6..XE.P.R. XK.K. XaXaXoXV.l.N.0.U @X).U.^.U.X.H X.",
"M.-.A ,.{ ~ %.f.6.N k g 9 < 3 V 6.F M F D N D 4.;.e 5 7 u u B ;.;.u 7 7 5 2 7 Y ",
";Xv.v.C.n.g.s.n.j.S S O.O.u B l.b.q.q.b.m.q.q.w.oX] p 9.9.S S 8.tXV.v.t.1.U U t.",
"4.4.X.I.+.( c / ~ r r s.a.^ ^ s.,.` { h.a.` t e p u p ] (.iXyX(.X.H X.).@X|.|.@X",
"0 9 u C p &   & w     ^ ^ w     ; ; ; ! c : % % &   & r A C 7 1 8 3 g ..8.Z 8 9 ",
";X#XB.-XB.2.,.n.n.2.2.n.n.a.,.{ g.*.*.D.J.g.g.D.a.r p V.].y.9._.I i a t.M.t.1.t.",
"mXfXdXgXfX[.OXcXnXvXaXaXaXyXyXdXMXxX4XzXzX1XtXsXMXnXxXsXS.V.V.u.|.!.4.4...x x J ",
"}.Q.R Q (.W.U.(.{.0.T T T T T 5.+Xz.h.z.F.F.Z.XX[.;.8.3.S 3.Z U.z d @ @ @ o o n ",
"wX*X=X,XuX4X1X1X<XA.n.A.:X;X;XtXpX-X-X<X-Xb.v.$XA.q.q.w.w.:.:.t.M.>.a :.1.U C 9.",
"1.;.>.N.Z.k.f.x.x.h.h.F.XXl.l.l.5.T 5.W.5.M k l ;.V M 3.8.Z S J 0.3...(.gXdX(.yX",
"g g z Z ( / c / ) ( ( o.+.H x h j 4 d x x = + $ # * X f x = f @ # X O z 4.[ N N ",
"i.p.p.N.N.9.9.C.%.~ %.1.1.U Y Y d.-.-.1.M.>.:.<.>.>.i M.N.U >.U ;.A C >.M.-.i U ",
"rXY.W.Q.).W.W.).yX]._.qX{.Q.p.Q.yXZ.k.Z.oXZ.z.S.yX].y.].(.9.9.8.[.'.0.(.(.3.U l.",
"T.K G K R K K K 8.Z g h h g j l ~.O. .O.O.'  .7.8.N x z f 6 = h Z z 6 f g @ = D ",
"aXS.t.B.=XV.=X=X:Xv.>.q.w.w.B.eX:X*Xb.A.b.q.w.;X:X>.v.-.-.>.U S.kX:Xb.B.B.q.M.jX"
};
