/* XPM */
static char *a774e58fef724ea9b2c73ce04477c6baUUhWCfhYC2C8S5YV[] = {
/* columns rows colors chars-per-pixel */
"40 40 124 2 ",
"   c #6D0500",
".  c #640900",
"X  c #690A00",
"o  c #7A0100",
"O  c #740C00",
"+  c #7B0B00",
"@  c #7F1200",
"#  c #850300",
"$  c #8D0600",
"%  c #830A00",
"&  c #8C0C00",
"*  c #940401",
"=  c #9B0400",
"-  c #940C00",
";  c #9B0A01",
":  c #950F0C",
">  c #861200",
",  c #8E1300",
"<  c #8A1109",
"1  c #931301",
"2  c #9E1100",
"3  c #A40301",
"4  c #AC0301",
"5  c #A30A01",
"6  c #AB0A01",
"7  c #A40509",
"8  c #AB0109",
"9  c #A60B09",
"0  c #AA0C0B",
"q  c #B40300",
"w  c #BC0300",
"e  c #B40A01",
"r  c #BB0901",
"t  c #B2040D",
"y  c #BC0409",
"u  c #B7080D",
"i  c #BF0B0E",
"p  c #A51501",
"a  c #AA1100",
"s  c #A81609",
"d  c #B31701",
"f  c #B91202",
"g  c #B6140F",
"h  c #BC1B09",
"j  c #A90510",
"k  c #BA0A13",
"l  c #BC1411",
"z  c #8C300B",
"x  c #A02007",
"c  c #B7220E",
"v  c #BC2315",
"b  c #BB2A15",
"n  c #BC3320",
"m  c #C40201",
"M  c #CB0201",
"N  c #C30A02",
"B  c #CB0A02",
"V  c #C10309",
"C  c #CB010B",
"Z  c #C50909",
"A  c #CD0A08",
"S  c #D40101",
"D  c #DC0102",
"F  c #D30903",
"G  c #DB0A05",
"H  c #D5030A",
"J  c #DC030A",
"K  c #D40B09",
"L  c #DC0A0B",
"P  c #C51007",
"I  c #C91000",
"U  c #C8160A",
"Y  c #D91008",
"T  c #C00810",
"R  c #CB0C12",
"E  c #D40114",
"W  c #DE0313",
"Q  c #D50D10",
"!  c #DB0C16",
"~  c #C71511",
"^  c #E40103",
"/  c #EC0103",
"(  c #E00906",
")  c #ED0805",
"_  c #E3030B",
"`  c #EC020B",
"'  c #E10A0B",
"]  c #EE0F0A",
"[  c #F30003",
"{  c #FB0004",
"}  c #F00903",
"|  c #F3020B",
" . c #FC010C",
".. c #F2090D",
"X. c #FF080A",
"o. c #E40713",
"O. c #ED0412",
"+. c #E10C10",
"@. c #EE0813",
"#. c #E4011C",
"$. c #ED0019",
"%. c #EC0A1A",
"&. c #F50412",
"*. c #FE0212",
"=. c #F50812",
"-. c #FD0915",
";. c #F30018",
":. c #FF071C",
">. c #F50B18",
",. c #FE0A1C",
"<. c #E41312",
"1. c #E6181A",
"2. c #F21715",
"3. c #F6151C",
"4. c #C52213",
"5. c #CC281F",
"6. c #E1241E",
"7. c #FF0520",
"8. c #F11821",
"9. c #F81D25",
"0. c #FF1628",
"q. c #FF1A28",
"w. c #D12E25",
"e. c #F22627",
/* pixels */
" .) ^ q /  .^ X. .S 5 _  .{ X.[ S S  . .)  .{ w ^ ..|  .X./ 3 [ *.^  ...w m ` G ",
"w V C q H H % 4 S D M ` M ; F ^ 5 6 M M m D D ; { [ - m ^ S q S L w F S 4 m [ / ",
"^ / { D { [ 4 F (  .| *.S - M { O.H D S M  .*.J [ / 1 M | | D *.M w / X.^ _ *.) ",
"V V u $ y E 8 #.I r - m M 4 S M q q M m w ^ ` 4 6 N m S F M > D M w S S 4 q Z w ",
"{ { / m / { D { { S 5 J *.| *...= 4 _ &...*._ * {  .{  .&.D & S :.| ) G 6 m  .[ ",
"N i V ; u k X o D S 3 H M 3 B B w q w q 3 M J 4 D D @ w _ J m D 6 5 B ^ w C ^ M ",
"/ ) [ M ^ J * 4 _ _ C &.S 4 D / *.&.` M q /  .| G D > m ,.*.| *.3 3 / *. .&.=.F ",
"^ ( H = m J q $.r 4 * C S w ..{ 4 w _ [ S ^ S 1 S J S ^ L M @ C *.S D M 3 w ` ^ ",
"{  .*.$ ^  .^ _ [ w 3 _ _ A  .S = 4 [ S D | y 8 J D ^ J _ m > B J D ^ ^ 4 5 ^ ^ ",
"= r S  .J S   m D S M | m * S S C m H ; * H m S m q O 3 ` J ^ { w ; M J F [ J S ",
"P K S ^ M K & ` ^ S S *.S 4 | [ ^ F o.0 0 W M D  .^ ; w  .L ^ | M 5 D ` D / ^ S ",
" .| / o S | _ [ D q 3 ^ / D  .{ 8 m [ ^ ^ [ q = { | { / / M - S / ` =. .w 5 / ` ",
"m Z ' % L ` w e F a 1 A N q ^ r : 6 ^ S A _ 5 < r f B B J w 1 L w w m M - > M Z ",
"m ^ / *.^ ^ =  .{ { / *.D 3 ^ ^ { /  .V C *.[ [ { / 6 M { / [  .^ e ^  .&.*.| ^ ",
"w r e q = e + | S m w _ e & B B N w C * 5 H w m [ D 1 6 D e e N r & m M m S m 4 ",
"| |  .= *.*.` ` | B 4  .*.|  .{ 7 w { { { X.m 3 ^ ) {  . .^ e {  . .*. .m e  .-.",
"m N M & C K 3 w G S M | w - J ^ M D F 4 q D ^ N M m m m D m 2 H * # w J y Z J w ",
"|  .| /  .*.1 A / | *.*.m $ D [ ` &.' N m [ X.` *./ , q [ _ [ *.; = J *.^ |  .^ ",
"D F D 3 S ^ w ! S 4 ; S A w / M = m S M S ^ M ; D S N N S q ; m J w Z Z * 5 F B ",
"S F ^ 1 S / S | ^ w = _ ` J  .^ 3 M ^ / / { D 3 D ^  .` ` M - H  .^ / G 4 w ) ^ ",
"S ^ Y / ^ / % w / / `  .w % S ^ _ _ M q w ^ | _ ` D & q  .O.| *.6 4 ^  ./ [  .D ",
"D S F w D _ 5 H G F M ` q % M M V V e 5 e S S N K B 5 e ^ F m _ d 5 S / m S _ B ",
"` | [ & _ *.| :. .N 3 ` | ` *./ 8 m J / |  .J 4 / ` *.*. .S 1 H *.| | ^ 4 m | | ",
"M m w q w m X = ^ w 3 _ H q / M ; q m m S ^ M 5 / ^ 5 w ^ m q m M q K K 4 w ^ J ",
"W D ^ { } ^ + 8 ^ _ J  .w ; _ ) { {  .V N  .[ { ..^ ; m  .| [  .F 5 D | .. . .^ ",
"^ ^ ^ + q R w S M 4 * M m w { ^ m m ^ e e ^ m y M m S S ^ m & m S S S ^ 4 ; ^ D ",
"/ } &.; C %.^ { ..B e &.O._ -. .3 w { ^ ^  .w 9 J L ` O.*.J p _ &.[ &.*.m e  .| ",
"e q m D D S + y M m w ^ 4 # M M q w D 8 8 J q q M w O = J N m S e $ m M w D F w ",
"W _ ) { { [ ; E ..^ ^ *.H 4 / [ { | ;.8 t $./ { &./ ; m *.&.|  .K 6 ^ | ^ { ..D ",
"D D _ + 3 Z e S M 4 * J K N | J & 7 D m m S = + H F J D _ m - S H S K ' ; 1 ^ F ",
"^ [ &.- y _ D [ ^ w 4 | _ M { ^ * q  .[ [ { 4 $ ^ ^ / ^ [ S 6 / J D _ ` q 5 | ^ ",
"8 4 B [ [ [ * J ^ J _ *.m # M F { / ` 5 7 ` / { ) S > 4 ^ F D  .N & M ' J  .) S ",
"D B 5 3 e C $ D F S S | w - D / Z S S w w H L m ^ D e m | S 4 F M q S _ m B S M ",
"{ { [ ; J &.^ ,. .m 5 ` *.` *.) ; m ` =.` &.H * ' ..^ ^ | B w [ *._ >._ q m / 3.",
"w B ^ 3 _ ^ 3 e / S w ` M 3 D B 4 m B f e A H q m F m m L u 4 ^ - # q S m H D M ",
"G G L / *. .= M [ {  .*.M - ^ { *. .` m w | *. .[ / m J 7.%.R %.s ; Q ,.9.q.*./ ",
"[ D e 3 r J 6  .r ; * S w q / D 6 m S M M D S 4 D S 4 6 ! l 1 l @.~ w.n z x B F ",
"[ [ [ 2 G [ S &./ N 4 ` _ S  .) ; M ` | ` | F ; [  .^ J 8.5.v 3.0.1.e.6.c U / | ",
"3 w ^ 6 ^ D = ; ^ D H | q # M B w m M e q M S w M D m m <.4.h -.b p K ..<.2.[ S ",
"/ ..] { { { e *. .) ^ *.J q [ / | { / M M [ *.{ [ ' w m *.| D { K m [ { / ..{ / "
};
